<?xml version="1.0" encoding="utf-8"?>
<!-- Generator: Adobe Illustrator 23.0.6, SVG Export Plug-In . SVG Version: 6.00 Build 0)  -->
<svg version="1.1" id="Layer_1" xmlns="http://www.w3.org/2000/svg" xmlns:xlink="http://www.w3.org/1999/xlink" x="0px" y="0px"
	 viewBox="0 0 64 64" style="enable-background:new 0 0 64 64;" xml:space="preserve">
<style type="text/css">
	.st0{fill:url(#SVGID_1_);}
	.st1{fill:url(#_Path__1_);}
	.st2{fill:url(#SVGID_2_);}
	.st3{fill:url(#SVGID_3_);}
	.st4{fill:url(#SVGID_4_);}
	.st5{fill:url(#SVGID_5_);}
	.st6{fill:url(#SVGID_6_);}
	.st7{fill:url(#SVGID_7_);}
	.st8{fill:url(#SVGID_8_);}
	.st9{fill:url(#SVGID_9_);}
	.st10{fill:url(#SVGID_10_);}
	.st11{fill:url(#SVGID_11_);}
	.st12{fill:url(#SVGID_12_);}
	.st13{fill:url(#SVGID_13_);}
</style>
<g>
	
		<radialGradient id="SVGID_1_" cx="-15475.5791" cy="8637.9355" r="28.4794" fx="-15477.3955" fy="8637.9355" gradientTransform="matrix(0.762 3.400000e-02 5.000000e-02 -1.12 11419.6406 10216.7881)" gradientUnits="userSpaceOnUse">
		<stop  offset="4.500000e-02" style="stop-color:#FFEA00"/>
		<stop  offset="0.12" style="stop-color:#FFDE00"/>
		<stop  offset="0.254" style="stop-color:#FFBF00"/>
		<stop  offset="0.429" style="stop-color:#FF8E00"/>
		<stop  offset="0.769" style="stop-color:#FF272D"/>
		<stop  offset="0.872" style="stop-color:#E0255A"/>
		<stop  offset="0.953" style="stop-color:#CC2477"/>
		<stop  offset="1" style="stop-color:#C42482"/>
	</radialGradient>
	<path class="st0" d="M50.4,6.4c-1.5,1.8-2.2,5.7-0.7,9.7s3.9,3.1,5.4,7.2c1.9,5.4,1,12.7,1,12.7s2.3,6.7,3.9-0.4
		C63.7,22.2,50.4,9.7,50.4,6.4z"/>
	
		<radialGradient id="_Path__1_" cx="-8151.895" cy="8224.4473" r="49.9777" gradientTransform="matrix(1.225 0 0 -1.225 10029.7383 10087.7275)" gradientUnits="userSpaceOnUse">
		<stop  offset="0" style="stop-color:#00CCDA"/>
		<stop  offset="0.22" style="stop-color:#0083FF"/>
		<stop  offset="0.261" style="stop-color:#007AF9"/>
		<stop  offset="0.33" style="stop-color:#0060E8"/>
		<stop  offset="0.333" style="stop-color:#005FE7"/>
		<stop  offset="0.438" style="stop-color:#2639AD"/>
		<stop  offset="0.522" style="stop-color:#401E84"/>
		<stop  offset="0.566" style="stop-color:#4A1475"/>
	</radialGradient>
	<path id="_Path_" class="st1" d="M32,62.1c15.5,0,28-12.6,28-28.2S47.5,5.8,32,5.8S4,18.4,4,34C3.9,49.5,16.5,62.1,32,62.1z"/>
	
		<linearGradient id="SVGID_2_" gradientUnits="userSpaceOnUse" x1="35.9305" y1="19.3606" x2="23.8384" y2="58.9161" gradientTransform="matrix(1 0 0 -1 0 66)">
		<stop  offset="0" style="stop-color:#000F43;stop-opacity:0.4"/>
		<stop  offset="0.485" style="stop-color:#001962;stop-opacity:0.173"/>
		<stop  offset="1" style="stop-color:#002079;stop-opacity:0"/>
	</linearGradient>
	<path class="st2" d="M53,51.3c-0.6,0.4-1.2,0.8-1.9,1.1c0.9-1.3,1.7-2.6,2.4-4c0.6-0.7,1.1-1.3,1.6-2c0.2-0.3,0.5-0.8,0.7-1.3
		c1.6-2.8,3.3-7.4,3.4-12.1v0c0-0.1,0-0.2,0-0.3c0-1.2-0.1-2.4-0.4-3.5c0,0.1,0,0.2,0,0.3c0-0.1,0-0.1,0-0.2c0,0.1,0,0.3,0.1,0.4
		c0.3,2.7,0.1,5.4-1.1,7.4c0,0,0,0.1-0.1,0.1c0.6-3,0.8-6.3,0.1-9.6c0,0-0.3-1.6-2.2-6.5c-1.1-2.8-3.1-5.1-4.9-6.8
		c-1.6-1.9-3-3.2-3.8-4c-1.6-1.7-2.3-3-2.6-3.8c-0.2-0.1-3.4-3.1-3.6-3.3c-1.4,2.1-5.6,8.7-3.6,14.9c0.9,2.8,3.3,5.7,5.7,7.3
		c0.1,0.1,1.5,1.6,2.1,4.9c0.7,3.4,0.3,6.1-1,10c-1.6,3.4-5.7,6.8-9.5,7.2c-8.2,0.7-11.2-4.1-11.2-4.1c2.9,1.2,6.2,0.9,8.1-0.3
		c2-1.2,3.2-2.1,4.2-1.8c1,0.4,1.7-0.7,1-1.8c-1.1-1.7-3.1-2.5-5-2.2c-2,0.3-3.8,1.9-6.4,0.4c-0.2-0.1-0.3-0.2-0.5-0.3
		c-0.2-0.1,0.6,0.2,0.4,0c-0.5-0.3-1.4-0.9-1.6-1.1c0,0,0.4,0.1,0.4,0.1c-2.4-2-2.1-3.4-2.1-4.2c0.1-0.7,0.5-1.5,1.2-1.9
		c0.4,0.2,0.6,0.3,0.6,0.3s-0.2-0.3-0.2-0.5c0,0,0.1,0,0.1,0c0.3,0.1,0.9,0.5,1.3,0.7c0.4,0.3,0.6,0.6,0.6,0.6s0.1-0.1,0-0.3
		c0-0.1-0.2-0.5-0.6-0.8l0,0c0.3,0.2,0.5,0.3,0.7,0.5c0.1-0.5,0.3-0.9,0.3-1.8c0-0.6,0-0.7-0.1-1c-0.1-0.2,0.1-0.3,0.2-0.1
		c0-0.2-0.1-0.3-0.1-0.5l0,0c0.2-0.7,4.3-2.6,4.6-2.8c0.5-0.3,0.9-0.8,1.2-1.3c0.2-0.4,0.4-0.9,0.4-1.6c0-0.6-0.2-0.9-4.4-1.4
		c-1.1-0.1-1.8-0.9-2.2-1.7c-0.1-0.2-0.1-0.3-0.2-0.5C25.1,18,25,17.9,25,17.7c0.7-2,1.8-3.6,3.5-4.8c0.1-0.1-0.4,0-0.3-0.1
		c0.1-0.1,0.8-0.4,0.9-0.4c0.2-0.1-0.7-0.4-1.4-0.3c-0.8,0.1-0.9,0.2-1.3,0.3c0.2-0.2,0.7-0.4,0.6-0.4c-0.8,0.1-1.8,0.6-2.7,1.1
		c0-0.1,0-0.2,0.1-0.3c-0.4,0.2-1.4,0.9-1.7,1.5c0-0.1,0-0.2,0-0.3c-0.3,0.3-0.6,0.6-0.8,0.9l0,0c-2.4-1-4.4-1-6.2-0.6
		c-0.4-0.4-0.6-0.1-1.4-2c-0.1-0.1,0,0.1,0,0c-0.1-0.4,0.1,0.5,0,0c-1.5,1.2-3.4,2.5-4.3,3.4c0,0,1.1-0.3,0,0
		C9.4,15.7,9.5,16,9.4,18c0,0.2,0,0.3,0,0.5c-0.7,0.9-1.2,1.7-1.4,2.2c-1,1.7-2,4.2-3,8.3c0.5-1.1,1-2.2,1.6-3.2
		c-0.9,2.2-1.7,5.6-1.8,10.8c0.2-1.1,0.5-2.1,0.8-3.2C5.3,37.7,6,42,7.7,46c0.6,1.4,1.6,3.6,3.2,6c5.2,5.5,12.6,8.9,20.7,8.9
		C40.1,61,47.7,57.2,53,51.3z"/>
	
		<radialGradient id="SVGID_3_" cx="-9142.8193" cy="7117.4878" r="16.8578" gradientTransform="matrix(1.219 0.123 0.123 -1.219 10334.1309 9841.5029)" gradientUnits="userSpaceOnUse">
		<stop  offset="3.000000e-03" style="stop-color:#FFEA00"/>
		<stop  offset="0.497" style="stop-color:#FF272D"/>
		<stop  offset="1" style="stop-color:#C42482"/>
	</radialGradient>
	<path class="st3" d="M46.7,55.3c10.3-1.2,14.8-11.8,9-12C50.4,43.2,41.8,55.9,46.7,55.3z"/>
	
		<radialGradient id="SVGID_4_" cx="-9144.3447" cy="7133.6523" r="28.1511" gradientTransform="matrix(1.219 0.123 0.123 -1.219 10334.1309 9841.5029)" gradientUnits="userSpaceOnUse">
		<stop  offset="3.000000e-03" style="stop-color:#FFE900"/>
		<stop  offset="0.157" style="stop-color:#FFAF0E"/>
		<stop  offset="0.316" style="stop-color:#FF7A1B"/>
		<stop  offset="0.472" style="stop-color:#FF4E26"/>
		<stop  offset="0.621" style="stop-color:#FF2C2E"/>
		<stop  offset="0.762" style="stop-color:#FF1434"/>
		<stop  offset="0.892" style="stop-color:#FF0538"/>
		<stop  offset="1" style="stop-color:#FF0039"/>
	</radialGradient>
	<path class="st4" d="M56.4,41.2c7.1-4.1,5.2-13,5.2-13s-2.7,3.2-4.6,8.2C55.2,41.4,52.2,43.6,56.4,41.2z"/>
	
		<radialGradient id="SVGID_5_" cx="-9140.3633" cy="7107.5566" r="25.8317" gradientTransform="matrix(1.219 0.123 0.123 -1.219 10334.1309 9841.5029)" gradientUnits="userSpaceOnUse">
		<stop  offset="3.000000e-03" style="stop-color:#FF272D"/>
		<stop  offset="0.497" style="stop-color:#C42482"/>
		<stop  offset="0.986" style="stop-color:#620700"/>
	</radialGradient>
	<path class="st5" d="M34,60.6c9.9,3.1,18.3-4.6,13.1-7.2C42.3,51,29.3,59.1,34,60.6z"/>
	
		<radialGradient id="SVGID_6_" cx="46.9553" cy="40.5305" r="49.4062" fx="48.7225" fy="39.657" gradientTransform="matrix(1 0 0 -1 0 66)" gradientUnits="userSpaceOnUse">
		<stop  offset="0.156" style="stop-color:#FFEA00"/>
		<stop  offset="0.231" style="stop-color:#FFDE00"/>
		<stop  offset="0.365" style="stop-color:#FFBF00"/>
		<stop  offset="0.541" style="stop-color:#FF8E00"/>
		<stop  offset="0.763" style="stop-color:#FF272D"/>
		<stop  offset="0.796" style="stop-color:#F92433"/>
		<stop  offset="0.841" style="stop-color:#E91C45"/>
		<stop  offset="0.893" style="stop-color:#CF0E62"/>
		<stop  offset="0.935" style="stop-color:#B5007F"/>
	</radialGradient>
	<path class="st6" d="M57.2,44.9c0.2-0.3,0.6-1.4,0.9-1.9c1.7-2.8,1.8-5.1,1.8-5.1c1.1-5.3,1-7.4,0.3-11.4c-0.5-3.2-2.8-7.8-4.8-10
		c-2-2.3-0.6-1.5-2.6-3.2c-1.7-1.9-3.4-3.8-4.3-4.6c-6.6-5.5-6.4-6.7-6.3-6.9C42.1,2,42.1,2,42,2c-0.1-0.3-0.1-0.6-0.1-0.6
		s-3.6,3.6-4.4,9.6c-0.5,3.9,1,8,3.1,10.6c1.1,1.4,2.4,2.6,3.7,3.7v0c1.6,2.3,2.5,5.1,2.5,8.2c0,7.7-6.2,13.9-13.9,13.9
		c-1,0-2.1-0.1-3.1-0.3c-3.6-0.7-5.7-2.5-6.7-3.8c-0.6-0.7-0.9-1.2-0.9-1.2c3.2,1.2,6.8,0.9,9-0.3c2.2-1.2,3.5-2.1,4.6-1.8
		c1.1,0.4,1.9-0.7,1.1-1.7c-0.7-1.1-2.7-2.6-5.6-2.2c-2.2,0.3-4.2,1.9-7.1,0.4c-0.2-0.1-0.4-0.2-0.5-0.3c-0.2-0.1,0.6,0.2,0.4,0
		c-0.6-0.3-1.6-0.9-1.8-1.1c0,0,0.4,0.1,0.4,0.1c-2.7-2-2.4-3.3-2.3-4.2c0.1-0.7,0.6-1.5,1.4-1.9c0.4,0.2,0.6,0.3,0.6,0.3
		s-0.2-0.3-0.3-0.5c0,0,0.1,0,0.1,0c0.3,0.1,1,0.5,1.4,0.7c0.5,0.3,0.7,0.6,0.7,0.6s0.1-0.1,0-0.3c0-0.1-0.2-0.5-0.7-0.8l0,0
		c0.3,0.1,0.6,0.3,0.8,0.5c0.1-0.4,0.4-0.9,0.3-1.8c0-0.6,0-0.7-0.1-1c-0.1-0.2,0.1-0.3,0.2-0.1c0-0.2-0.1-0.3-0.2-0.5l0,0
		c0.2-0.7,4.8-2.5,5.1-2.7c0.5-0.3,1-0.8,1.3-1.3c0.3-0.4,0.4-0.9,0.5-1.6c0-0.3-0.1-0.6-1.3-0.9c-0.7-0.2-1.8-0.3-3.6-0.5
		c-1.3-0.1-2-0.9-2.4-1.7c-0.1-0.2-0.2-0.3-0.2-0.5c-0.1-0.2-0.1-0.3-0.2-0.5c0.8-2,2.1-3.7,3.9-4.8c0.1-0.1-0.4,0-0.3-0.1
		c0.1-0.1,0.9-0.4,1-0.4c0.2-0.1-0.8-0.4-1.6-0.3c-0.8,0.1-1,0.2-1.5,0.3c0.2-0.2,0.8-0.4,0.6-0.4c-0.9,0.1-2,0.6-3,1.1
		c0-0.1,0-0.2,0.1-0.3c-0.5,0.2-1.6,0.9-1.9,1.4c0-0.1,0-0.2,0-0.3c-0.3,0.3-0.6,0.5-0.9,0.9l0,0c-2.6-0.9-4.9-1-6.9-0.6
		c-0.4-0.4-1.1-1-2.1-2.9c-0.1-0.1-0.1,0.2-0.2,0.1C11.2,9.7,11,8.3,11,7.3c0,0-0.8,0.4-1.4,1.8C9.5,9.4,9.4,9.5,9.4,9.7
		c0,0,0.1-0.5,0.1-0.5C9.3,9.4,9,9.7,8.9,10c-0.1,0.3-0.2,0.4-0.3,0.7l0,0c0-0.1,0-0.4,0-0.3c-0.3,0.6-0.6,1.2-0.8,1.9
		C7.5,13.5,7.1,15,7,17c0,0.2,0,0.3,0,0.5c-0.8,0.9-1.4,1.7-1.6,2.1c-1.1,1.6-2.2,4.2-3.4,8.2c0.5-1.1,1.1-2.2,1.8-3.2
		c-0.9,2.1-1.9,5.5-2,10.7c0.2-1.1,0.5-2.1,0.9-3.2C2.5,35.7,2.9,40,5.1,44.9c1.3,2.8,4.3,8.6,11.6,13.1l0,0c0,0,2.5,1.9,6.8,3.2
		c0.3,0.1,0.6,0.2,1,0.3c-0.1,0-0.2-0.1-0.3-0.1c2.8,0.9,5.8,1.3,8.8,1.3c11.1,0,14.3-4.4,14.3-4.4s0,0,0,0c0.2-0.1,0.3-0.3,0.5-0.5
		c-1.7,1.6-5.7,1.8-7.2,1.6c2.5-0.7,4.2-1.4,7.5-2.6c0.4-0.1,0.8-0.3,1.2-0.5c0,0,0.1,0,0.1-0.1c0.1,0,0.2-0.1,0.2-0.1
		c1.6-0.7,3.1-1.7,4.4-2.8c3.3-2.6,4-5.2,4.3-6.8c-0.1,0.2-0.2,0.5-0.3,0.8c-0.8,1.8-2.7,2.9-4.7,3.8c1-1.3,1.9-2.6,2.7-3.9
		C56.5,46.7,56.7,45.6,57.2,44.9z"/>
	
		<radialGradient id="SVGID_7_" cx="43.238" cy="65.3385" r="58.3399" gradientTransform="matrix(1 0 0 -1 0 66)" gradientUnits="userSpaceOnUse">
		<stop  offset="0.279" style="stop-color:#FFEA00"/>
		<stop  offset="0.402" style="stop-color:#FFDD00"/>
		<stop  offset="0.63" style="stop-color:#FFBA00"/>
		<stop  offset="0.856" style="stop-color:#FF9100"/>
		<stop  offset="0.933" style="stop-color:#FF6711"/>
		<stop  offset="0.994" style="stop-color:#FF4A1D"/>
	</radialGradient>
	<path class="st7" d="M53.2,51.2c1.3-1.5,2.5-3.1,3.4-5.1c2.3-4.9,5.9-13,3.1-21.6c-2.2-6.7-5.3-10.4-9.2-14
		c-6.4-5.8-8.1-8.4-8.1-10c0,0-7.3,8.2-4.2,16.7c3.2,8.5,9.7,8.2,14,17.1c5.1,10.5-4.1,21.9-11.7,25.1c0.5-0.1,16.9-3.8,17.7-13.2
		C58.2,46.5,57.9,49.1,53.2,51.2z"/>
	
		<linearGradient id="SVGID_8_" gradientUnits="userSpaceOnUse" x1="-9185.9395" y1="7127.4082" x2="-9167.9775" y2="7131.9863" gradientTransform="matrix(1.219 0.123 0.123 -1.219 10334.1309 9841.5029)">
		<stop  offset="0" style="stop-color:#C42482;stop-opacity:0.5"/>
		<stop  offset="0.474" style="stop-color:#FF272D;stop-opacity:0.5"/>
		<stop  offset="0.486" style="stop-color:#FF2C2C;stop-opacity:0.513"/>
		<stop  offset="0.675" style="stop-color:#FF7A1A;stop-opacity:0.72"/>
		<stop  offset="0.829" style="stop-color:#FFB20D;stop-opacity:0.871"/>
		<stop  offset="0.942" style="stop-color:#FFD605;stop-opacity:0.964"/>
		<stop  offset="1" style="stop-color:#FFE302"/>
	</linearGradient>
	<path class="st8" d="M31.9,20.8c0-0.6-0.3-0.9-4.8-1.4c-1.9-0.2-2.6-1.9-2.8-2.6c-0.7,1.7-0.9,3.6-0.8,5.8c0.1,1.4,1.1,3,1.5,3.9
		c0,0,0.1-0.1,0.2-0.2c0.9-0.9,4.5-2.3,4.9-2.5C30.4,23.5,31.9,22.5,31.9,20.8z"/>
	
		<linearGradient id="SVGID_9_" gradientUnits="userSpaceOnUse" x1="99.427" y1="1425.1913" x2="95.98" y2="1434.0247" gradientTransform="matrix(0.995 0.1 0.1 -0.995 -230.591 1425.1161)">
		<stop  offset="0" style="stop-color:#891551;stop-opacity:0.6"/>
		<stop  offset="1" style="stop-color:#C42482;stop-opacity:0"/>
	</linearGradient>
	<path class="st9" d="M11.8,10.5c-0.1-0.1-0.1,0.2-0.2,0.1c-0.4-0.9-0.6-2.3-0.6-3.3c0,0-0.8,0.4-1.4,1.8C9.5,9.4,9.5,9.6,9.4,9.7
		c0,0,0.1-0.5,0.1-0.5C9.3,9.4,9,9.7,8.9,10c-0.1,0.3-0.2,0.4-0.3,0.7c0,0.1,0-0.4,0-0.3c-1.5,2.9-1.8,7.3-1.6,7.1
		c3.2-3.4,6.8-4.2,6.8-4.2C13.5,13,12.6,12.2,11.8,10.5L11.8,10.5z"/>
	
		<linearGradient id="SVGID_10_" gradientUnits="userSpaceOnUse" x1="-215.1198" y1="-187.9519" x2="-209.1754" y2="-194.7034" gradientTransform="matrix(0.995 0.1 0.1 -0.995 248.544 -135.296)">
		<stop  offset="5.000000e-03" style="stop-color:#891551;stop-opacity:0.5"/>
		<stop  offset="0.484" style="stop-color:#FF272D;stop-opacity:0.5"/>
		<stop  offset="1" style="stop-color:#FF272D;stop-opacity:0"/>
	</linearGradient>
	<path class="st10" d="M23.9,46.1c-4.4-1.9-9.4-4.5-9.2-10.6c0.3-7.9,7.4-6.4,7.4-6.4c-0.3,0.1-1,0.6-1.2,1.1
		c-0.3,0.7-0.8,2.2,0.7,3.8c2.3,2.5-4.8,6,6.2,12.6C28.1,46.9,25.2,46.6,23.9,46.1L23.9,46.1z"/>
	
		<linearGradient id="SVGID_11_" gradientUnits="userSpaceOnUse" x1="-203.8751" y1="-199.6849" x2="-203.8708" y2="-194.9613" gradientTransform="matrix(0.995 0.1 0.1 -0.995 248.544 -135.296)">
		<stop  offset="0" style="stop-color:#C42482"/>
		<stop  offset="8.299999e-02" style="stop-color:#C42482;stop-opacity:0.81"/>
		<stop  offset="0.206" style="stop-color:#C42482;stop-opacity:0.565"/>
		<stop  offset="0.328" style="stop-color:#C42482;stop-opacity:0.362"/>
		<stop  offset="0.447" style="stop-color:#C42482;stop-opacity:0.204"/>
		<stop  offset="0.562" style="stop-color:#C42482;stop-opacity:9.100000e-02"/>
		<stop  offset="0.673" style="stop-color:#C42482;stop-opacity:2.300000e-02"/>
		<stop  offset="0.773" style="stop-color:#C42482;stop-opacity:0"/>
	</linearGradient>
	<path class="st11" d="M22.3,42.1c3.1,1.1,6.8,0.9,8.9-0.3c1.5-0.8,3.3-2.1,4.5-1.8c-1-0.4-1.8-0.6-2.7-0.6c-0.2,0-0.3,0-0.5,0
		c-0.3,0-0.7,0-1,0.1c-0.6,0.1-1.2,0.4-1.8,0.3c0,0,0.5-0.2,0.5-0.2c-0.3,0.1-0.6,0.1-1,0.1c-0.2,0-0.4,0.1-0.6,0.1
		c-6.5,0.6-12-3.5-12-3.5C16.3,37.8,18.8,40.9,22.3,42.1L22.3,42.1z"/>
	
		<linearGradient id="SVGID_12_" gradientUnits="userSpaceOnUse" x1="40.9762" y1="63.1385" x2="60.2829" y2="19.9657" gradientTransform="matrix(1 0 0 -1 0 66)">
		<stop  offset="0" style="stop-color:#FFF14F"/>
		<stop  offset="0.268" style="stop-color:#FFEE4C"/>
		<stop  offset="0.452" style="stop-color:#FFE643"/>
		<stop  offset="0.612" style="stop-color:#FFD834"/>
		<stop  offset="0.757" style="stop-color:#FFC41E"/>
		<stop  offset="0.892" style="stop-color:#FFAB02"/>
		<stop  offset="0.902" style="stop-color:#FFA900"/>
		<stop  offset="0.949" style="stop-color:#FFA000"/>
		<stop  offset="1" style="stop-color:#FF9100"/>
	</linearGradient>
	<path class="st12" d="M53.2,51.2c6.6-6.5,9.9-14.3,8.5-23.1c0,0,0.6,4.5-1.6,9.1c1-4.5,1.1-10.1-1.6-15.9
		c-3.6-7.7-9.6-11.8-11.9-13.5c-3.5-2.6-4.9-5.2-4.9-5.7c-1,2.1-4.2,9.4-0.3,15.6c3.6,5.8,9.2,7.6,13.2,12.9
		C61.8,40.5,53.2,51.2,53.2,51.2z"/>
	
		<linearGradient id="SVGID_13_" gradientUnits="userSpaceOnUse" x1="44.7885" y1="38.309" x2="35.6431" y2="13.7538" gradientTransform="matrix(1 0 0 -1 0 66)">
		<stop  offset="0" style="stop-color:#FF8E00"/>
		<stop  offset="4.000000e-02" style="stop-color:#FF8E00;stop-opacity:0.858"/>
		<stop  offset="8.400000e-02" style="stop-color:#FF8E00;stop-opacity:0.729"/>
		<stop  offset="0.13" style="stop-color:#FF8E00;stop-opacity:0.628"/>
		<stop  offset="0.178" style="stop-color:#FF8E00;stop-opacity:0.557"/>
		<stop  offset="0.227" style="stop-color:#FF8E00;stop-opacity:0.514"/>
		<stop  offset="0.282" style="stop-color:#FF8E00;stop-opacity:0.5"/>
		<stop  offset="0.389" style="stop-color:#FF8E00;stop-opacity:0.478"/>
		<stop  offset="0.524" style="stop-color:#FF8E00;stop-opacity:0.416"/>
		<stop  offset="0.676" style="stop-color:#FF8E00;stop-opacity:0.314"/>
		<stop  offset="0.838" style="stop-color:#FF8E00;stop-opacity:0.172"/>
		<stop  offset="1" style="stop-color:#FF8E00;stop-opacity:0"/>
	</linearGradient>
	<path class="st13" d="M52.2,34.4c-2.3-4.8-5.2-6.8-7.9-9.1c0.3,0.4,0.4,0.6,0.6,0.9c2.4,2.5,5.9,8.8,3.4,16.6
		c-4.8,14.7-24.1,7.8-26.1,5.8c0.8,8.5,15,12.6,24.3,7.1C51.7,50.7,56,42.2,52.2,34.4z"/>
</g>
</svg>
