<?xml version="1.0" encoding="utf-8"?>
<!-- Generator: Adobe Illustrator 23.0.2, SVG Export Plug-In . SVG Version: 6.00 Build 0)  -->
<svg version="1.1"
	 id="photoshop" inkscape:version="0.92.4 5da689c313, 2019-01-14" sodipodi:docname="chrome.svg" xmlns:cc="http://creativecommons.org/ns#" xmlns:dc="http://purl.org/dc/elements/1.1/" xmlns:inkscape="http://www.inkscape.org/namespaces/inkscape" xmlns:rdf="http://www.w3.org/1999/02/22-rdf-syntax-ns#" xmlns:sodipodi="http://sodipodi.sourceforge.net/DTD/sodipodi-0.dtd" xmlns:svg="http://www.w3.org/2000/svg"
	 xmlns="http://www.w3.org/2000/svg" xmlns:xlink="http://www.w3.org/1999/xlink" x="0px" y="0px" viewBox="0 0 64 64"
	 style="enable-background:new 0 0 64 64;" xml:space="preserve">
<style type="text/css">
	.st0{fill:url(#SVGID_1_);}
	.st1{fill:#08C9FF;}
</style>
<g>
	<radialGradient id="SVGID_1_" cx="32.0002" cy="32.0002" r="36.8479" gradientUnits="userSpaceOnUse">
		<stop  offset="0" style="stop-color:#0A1B30"/>
		<stop  offset="1" style="stop-color:#001D26"/>
	</radialGradient>
	<polygon class="st0" points="3.5,60.5 3.5,3.5 60.5,3.5 60.5,60.5 60.5,60.5 	"/>
	<path class="st1" d="M59,5v54H5V5H59 M60.5,2h-57C2.7,2,2,2.7,2,3.5v57C2,61.3,2.7,62,3.5,62h57c0.8,0,1.5-0.7,1.5-1.5v-57
		C62,2.7,61.3,2,60.5,2L60.5,2z"/>
</g>
<g>
	<path class="st1" d="M20.9,44.3h-4.2V17.5h6.9c5.7,0,9,3.2,9,8.5c0,5.2-4.2,8.9-8,8.9c-1.3,0-2.6,0-3.6,0V44.3z M20.9,21.7v8.9
		c1,0,2.4,0,3.6,0c1.5,0,3.8-1.9,3.8-4.6c0-2-0.5-4.3-4.8-4.3H20.9z"/>
	<path class="st1" d="M42.4,28.1c1.4,0,3.4,0.4,5.3,1.2v-4.5c-1.9-0.6-3.8-0.9-5.3-0.9c-3.3,0-6.8,2.1-6.8,5.7
		c0,4.1,3.2,5.7,5.3,6.8c2,1.1,2.6,1.5,2.6,2.4c0,1.5-1.3,1.8-2.5,1.8c-2,0-3.9-0.6-5.4-1.4v4.6c1.7,0.6,3.5,1,5.4,1
		c3.2,0,6.7-1.9,6.7-6.1c0-3.6-2.8-5.1-4.9-6.2c-2.2-1.1-3-1.7-3-3.1C39.9,28.7,41.3,28.1,42.4,28.1z"/>
</g>
</svg>
