<?xml version="1.0" encoding="utf-8"?>
<!-- Generator: Adobe Illustrator 23.0.6, SVG Export Plug-In . SVG Version: 6.00 Build 0)  -->
<svg version="1.1" id="Layer_2" xmlns="http://www.w3.org/2000/svg" xmlns:xlink="http://www.w3.org/1999/xlink" x="0px" y="0px"
	 viewBox="0 0 64 64" style="enable-background:new 0 0 64 64;" xml:space="preserve">
<style type="text/css">
	.st0{fill:none;stroke:url(#SVGID_1_);stroke-width:7;stroke-miterlimit:10;}
	.st1{fill:#C8DAEA;}
	.st2{fill:#A9C9DD;}
	.st3{fill:url(#SVGID_2_);}
</style>
<linearGradient id="SVGID_1_" gradientUnits="userSpaceOnUse" x1="45.5998" y1="-0.2828" x2="21.8614" y2="55.1035">
	<stop  offset="0" style="stop-color:#37AEE2"/>
	<stop  offset="1" style="stop-color:#1E96C8"/>
</linearGradient>
<path class="st0" d="M56,9.1L6.9,28c-3.4,1.3-3.3,3.2-0.6,4L18.9,36l4.3,14.3c0.6,1.6,0.3,2.2,1.9,2.2c1.3,0,1.8-0.6,2.5-1.3l6.1-6
	l12.7,9.4c2.3,1.3,4,0.6,4.6-2.2L59.5,13C60.4,9.6,58.2,8,56,9.1z"/>
<g>
	<path class="st1" d="M25.1,52.4c-1.7,0-1.4-0.6-1.9-2.2l-4.9-16l37.4-22.2"/>
	<path class="st2" d="M25.1,52.4c1.3,0,1.8-0.6,2.5-1.3l6.8-6.6L26,39.4"/>
	
		<linearGradient id="SVGID_2_" gradientUnits="userSpaceOnUse" x1="-475.4125" y1="541.0063" x2="-475.3312" y2="540.8511" gradientTransform="matrix(130.4927 0 0 -109.4496 62075.9414 59243.2109)">
		<stop  offset="0" style="stop-color:#EFF7FC"/>
		<stop  offset="1" style="stop-color:#FFFFFF"/>
	</linearGradient>
	<path class="st3" d="M26,39.4l20.5,15.2c2.3,1.3,4,0.6,4.6-2.2L59.5,13c0.9-3.4-1.3-5-3.6-4L6.9,28c-3.4,1.3-3.3,3.2-0.6,4L18.9,36
		L48,17.6c1.4-0.8,2.6-0.4,1.6,0.5"/>
</g>
</svg>
