<?xml version="1.0" encoding="utf-8"?>
<!-- Generator: Adobe Illustrator 23.0.2, SVG Export Plug-In . SVG Version: 6.00 Build 0)  -->
<svg version="1.1" id="Gimp" image-rendering="optimizeSpeed"
	 xmlns="http://www.w3.org/2000/svg" xmlns:xlink="http://www.w3.org/1999/xlink" x="0px" y="0px" viewBox="0 0 64 64"
	 style="enable-background:new 0 0 64 64;" xml:space="preserve">
<style type="text/css">
	.st0{fill:url(#SVGID_1_);}
	.st1{opacity:0.2;filter:url(#b);}
	.st2{fill:#C8DAEA;}
	.st3{fill:#A9C9DD;}
	.st4{fill:url(#SVGID_2_);}
</style>
<filter  color-interpolation-filters="sRGB" height="1.0789" id="b" width="1.0662" x="-.033097" y="-.039461">
	<feGaussianBlur  stdDeviation="1.7995675"></feGaussianBlur>
</filter>
<linearGradient id="SVGID_1_" gradientUnits="userSpaceOnUse" x1="14122.9395" y1="-7382.4443" x2="14122.9395" y2="-8402.4443" gradientTransform="matrix(6.376200e-02 0 0 -6.376200e-02 -868.5068 -471.1424)">
	<stop  offset="0" style="stop-color:#6BC3E9"/>
	<stop  offset="1" style="stop-color:#1A7FD4"/>
</linearGradient>
<circle class="st0" cx="32" cy="32" r="30"/>
<g transform="matrix(3.9208 0 0 3.9208 41 52)" class="st1">
	<path d="M-3.7-1.4c-0.2,0-0.2-0.1-0.3-0.3l-0.7-2.4l5.6-3.3"/>
	<path d="M-3.7-1.4c0.2,0,0.3-0.1,0.4-0.2l1-1l-1.3-0.8"/>
	<path d="M-3.6-3.4l3.1,2.3C-0.1-0.9,0.1-1,0.2-1.4l1.3-5.9c0.1-0.5-0.2-0.7-0.5-0.6l-7.4,2.8c-0.5,0.2-0.5,0.5-0.1,0.6l1.9,0.6
		l4.4-2.8C-0.1-6.8,0.1-6.7,0-6.6"/>
</g>
<g>
	<path class="st2" d="M24.6,48.3c-1.2,0-1-0.4-1.4-1.6l-3.5-11.4l26.7-15.9"/>
	<path class="st3" d="M24.6,48.3c0.9,0,1.3-0.4,1.8-0.9l4.9-4.7L25.3,39"/>
	
		<linearGradient id="SVGID_2_" gradientUnits="userSpaceOnUse" x1="2585.6541" y1="-1774.6299" x2="2613.4585" y2="-1827.6877" gradientTransform="matrix(0.273 0 0 -0.229 -671.9495 -373.8079)">
		<stop  offset="0" style="stop-color:#EFF7FC"/>
		<stop  offset="1" style="stop-color:#FFFFFF"/>
	</linearGradient>
	<path class="st4" d="M25.3,39l14.7,10.9c1.7,0.9,2.9,0.4,3.3-1.6l6-28.2c0.6-2.5-0.9-3.6-2.5-2.8L11.6,30.9c-2.4,1-2.4,2.3-0.4,2.9
		l9,2.8L41,23.4c1-0.6,1.9-0.3,1.1,0.4"/>
</g>
</svg>
