<?xml version="1.0" encoding="utf-8"?>
<!-- Generator: Adobe Illustrator 23.0.2, SVG Export Plug-In . SVG Version: 6.00 Build 0)  -->
<svg version="1.1" id="thunderbird" xmlns="http://www.w3.org/2000/svg" xmlns:xlink="http://www.w3.org/1999/xlink" x="0px"
	 y="0px" viewBox="0 0 64 64" style="enable-background:new 0 0 64 64;" xml:space="preserve">
<style type="text/css">
	.st0{fill:url(#SVGID_1_);}
	.st1{fill:#FBFBFB;}
	.st2{fill:#999999;}
	.st3{fill:#F8F8F8;}
	.st4{fill:url(#SVGID_2_);}
	.st5{fill:url(#SVGID_3_);}
	.st6{fill:url(#SVGID_4_);}
	.st7{fill:#3F6499;}
	.st8{fill:url(#SVGID_5_);}
	.st9{fill:url(#SVGID_6_);}
	.st10{fill:url(#SVGID_7_);}
	.st11{fill:url(#SVGID_8_);}
	.st12{opacity:0.6;}
	.st13{opacity:0.2;}
	.st14{fill:url(#SVGID_9_);}
	.st15{fill:url(#SVGID_10_);}
	.st16{opacity:0.1;fill:#F2F2F2;enable-background:new    ;}
	.st17{fill:#2F4282;}
	.st18{fill:url(#SVGID_11_);}
	.st19{fill:#FFFFFF;}
	.st20{fill:url(#SVGID_12_);}
	.st21{fill:url(#SVGID_13_);}
</style>
<g>
	<g>
		
			<linearGradient id="SVGID_1_" gradientUnits="userSpaceOnUse" x1="50.4772" y1="15.4418" x2="11.64" y2="54.279" gradientTransform="matrix(1 0 0 -1 0 66)">
			<stop  offset="0" style="stop-color:#130036"/>
			<stop  offset="0.2297" style="stop-color:#18023B"/>
			<stop  offset="0.5122" style="stop-color:#26094A"/>
			<stop  offset="0.8211" style="stop-color:#3D1563"/>
			<stop  offset="1" style="stop-color:#4E1D75"/>
		</linearGradient>
		<path class="st0" d="M47.9,10.1c-3.5-2.3-8-3-10.5-3.3c-2.7-0.3-5-0.2-7,0.1c-0.2,0-0.3,0-0.5,0c-0.1,0-0.3,0-0.4,0
			c0.1-0.1,0.1-0.1,0.1-0.1s-0.1,0-0.3,0.1c-0.7,0-1.3,0-2,0.1c0.9-1,1.6-1.5,1.6-1.5S28,5.6,26.4,7c-0.8,0.1-1.5,0.2-2.2,0.3
			c1.7-2.3,3.4-3.2,3.4-3.2S25.5,3.7,22.2,7c-0.3,0.3-0.5,0.6-0.8,0.9c-9.7,2.4-16.7,8.6-16.7,16c0,1.4-0.4,3,0,4.6
			C4.5,31.1,4.9,38,4.9,38s2.6,14.2,12.8,16.7c0.2,0-2.1-3.6-3.1-7.9c2,2,4.3,3.6,6.9,3.8c0.3,0-1.5-2.1-3.1-4.7l23,7.8
			c12-5.2,10.6-4.7,13.2-7.5c5.7-6.2,6.5-9.7,5.1-20C58.7,19.3,53.6,12.4,47.9,10.1z"/>
		<polygon class="st1" points="7.5,16.6 4.1,36.2 6,42.1 44,54.7 51.1,24.7 		"/>
		<g>
			<path class="st2" d="M7.6,17.3c0.2,0.4,0.1,0.5,0,0.5c-0.1,0-0.1,0-0.2,0c-0.1,0-0.1,0-0.2,0c-0.1,0,0,0.2,0.5,0.9
				c0.8,1.1,13.2,19.8,13.9,19.8c0,0,0,0,0,0C27.5,36.3,52,27.9,52,27.9l-2.5-3.7L7.6,17.3"/>
		</g>
		<path class="st3" d="M8,16.8c0,0,0.2,1,1,2c0.9,1.1,12.3,18.4,12.8,18.2c7.5-2,34.6-12.6,34.6-12.6L8,16.8z"/>
		<polygon class="st2" points="42.7,54.3 6.5,42.2 6.6,43.1 43.1,55.2 		"/>
		
			<linearGradient id="SVGID_2_" gradientUnits="userSpaceOnUse" x1="4.4886" y1="41.3394" x2="16.0195" y2="41.3394" gradientTransform="matrix(1 0 0 -1 0 66)">
			<stop  offset="0" style="stop-color:#3156A8"/>
			<stop  offset="0.2474" style="stop-color:#3351A4"/>
			<stop  offset="0.5365" style="stop-color:#3B4397"/>
			<stop  offset="0.8453" style="stop-color:#472C82"/>
			<stop  offset="1" style="stop-color:#4E1D75"/>
		</linearGradient>
		<path class="st4" d="M16,16c0,0-13.1,3.9-7.1,17.3c0,0-2.8-2.5-4.4-5.8c-0.1-0.1,2.7-10.2,2.7-10.2L16,16z"/>
		
			<radialGradient id="SVGID_3_" cx="16.3521" cy="167.8635" r="20.7111" gradientTransform="matrix(1 0 0 -1.45 0 272.5846)" gradientUnits="userSpaceOnUse">
			<stop  offset="0.1654" style="stop-color:#14CDDA"/>
			<stop  offset="0.5478" style="stop-color:#2061BD"/>
			<stop  offset="0.6546" style="stop-color:#2658AC"/>
			<stop  offset="0.864" style="stop-color:#373F81"/>
			<stop  offset="1" style="stop-color:#432D62"/>
		</radialGradient>
		<path class="st5" d="M8.9,33.3c-1.1,0-3-1-3.6-2.1C4.6,43.6,9.6,50.8,17.7,54.7C15.1,54.4,2,47.5,2,30.9C2,16.8,13.2,4.2,30.7,3.6
			c0.1,0.8-8.7,2.8-9,3.7c-0.4,1.5-1.4,3-2.3,4.3c-1.1,1.7,1.6,3.2-0.4,3.6C16,16,12,15.6,9,19.5C4.5,25.3,7.5,32,8.9,33.3z"/>
		<g>
			
				<linearGradient id="SVGID_4_" gradientUnits="userSpaceOnUse" x1="12.8209" y1="50.4292" x2="48.5295" y2="50.4292" gradientTransform="matrix(1 0 0 -1 0 66)">
				<stop  offset="0" style="stop-color:#2061BD"/>
				<stop  offset="0.1846" style="stop-color:#2B51AC"/>
				<stop  offset="0.6826" style="stop-color:#442C84"/>
				<stop  offset="0.9409" style="stop-color:#4E1D75"/>
			</linearGradient>
			<path class="st6" d="M35.3,4.1C24,3.2,18.1,7.8,14.4,13c-1.4,1.9-1.2,3.7-0.7,5.8c0.2,0.9,0.4,1.3,0.2,2.3
				c-0.1,0.5-0.1,1-0.3,1.3c-0.2,0.4-0.5,0.9-0.6,1.6c-0.2,1.9,0.4,2.5,0.8,3.1c0.6-0.6,1.7-2,3.8-2.8c2.1-0.8,3.4-2.1,6-3.4
				c3.6-1.8,7.7,0.9,15.6-1.7c2.4-0.8,8-9.1,9.3-9.4C44.8,5.8,38.6,4.4,35.3,4.1z"/>
		</g>
		<path class="st7" d="M27.8,1.5c0,0-2,1-2.9,2.7c2-1,3.2-1.6,3.8-1.7c0,0-0.5,0.3-1.2,1.7c1.2-0.4,1.6-0.6,1.9-0.6
			c0,0-0.1,0.1-0.2,1.6c-1.8-0.6-5.3,0.1-7.1,1.3C21.5,3.1,27.8,1.5,27.8,1.5z"/>
		
			<linearGradient id="SVGID_5_" gradientUnits="userSpaceOnUse" x1="18.0772" y1="58.8579" x2="42.6378" y2="37.5077" gradientTransform="matrix(1 0 0 -1 0 66)">
			<stop  offset="2.020000e-02" style="stop-color:#48A8E0"/>
			<stop  offset="0.3883" style="stop-color:#2061BD"/>
			<stop  offset="0.4968" style="stop-color:#2B51AC"/>
			<stop  offset="0.7892" style="stop-color:#442C84"/>
			<stop  offset="0.9409" style="stop-color:#4E1D75"/>
		</linearGradient>
		<path class="st8" d="M35.9,3.6c-3.5-0.5-6.4-0.4-8.9,0.1c0.8-0.7,1.7-1.1,1.7-1.1c-1.2,0.1-2.6,0.9-3.9,1.7
			C24.2,4.5,23.6,4.7,23,5c0.3-0.5,0.8-0.9,1.1-1.3c1.5-1.4,3.6-2.1,3.6-2.1C26,1.4,19.7,3,16,10.6c-0.6,0.7-1.2,1.5-1.7,2.3
			c-1.4,2-1.3,3.8-0.8,6c0.2,0.9,0.2,2.4,0,3.4c0,0.2-0.6,0.7-0.7,2c-0.1,1.4,0.4,2.1,0.9,2.7c1.8-2.6,3.6-3.1,3.6-3.1
			c2.5-1,3.6-2.1,6.2-3.5c3.7-1.9,16.5,4.2,24.7,1.6c2.5-0.8-1-11.5,0.4-11.8C44.7,5.9,39.2,4,35.9,3.6z"/>
		
			<linearGradient id="SVGID_6_" gradientUnits="userSpaceOnUse" x1="6.7806" y1="-17.4807" x2="54.9243" y2="53.8953" gradientTransform="matrix(1 0 0 -1 0 66)">
			<stop  offset="0.3787" style="stop-color:#3156A8"/>
			<stop  offset="1" style="stop-color:#4E1D75"/>
		</linearGradient>
		<path class="st9" d="M61.3,26.6C59.3,16.1,49.6,6.5,41.9,6c-3.5-0.2-2.4,1.5-4.6,2.2c-9.3,2.9-9.5,4.6-9.5,4.6
			c19.7,0.9,20,20.4,14.8,25.4c1.5-0.3,3.1-2.2,4.6-5c-0.2,1.2-0.3,2.7-0.6,4.3c-0.7,5,0.2,15.5-14.2,22.5c0,0,7.9-0.6,11.8-5
			c-1.6,3.6-5.9,5.6-5.9,5.6c3.2-0.5,11.6-3,17-9.7C61.3,43.3,63.2,36.1,61.3,26.6z"/>
		
			<linearGradient id="SVGID_7_" gradientUnits="userSpaceOnUse" x1="25.505" y1="-3.2027" x2="52.1261" y2="56.5893" gradientTransform="matrix(1 0 0 -1 0 66)">
			<stop  offset="0" style="stop-color:#29ABE2"/>
			<stop  offset="0.7733" style="stop-color:#385AA6"/>
			<stop  offset="0.8575" style="stop-color:#414293"/>
			<stop  offset="1" style="stop-color:#4E1D75"/>
		</linearGradient>
		<path class="st10" d="M42.1,45.8c0,0,6.4-1.8,8.5-5.3c-0.3,4-3.9,8.2-3.9,8.2s5.4-1.1,7.6-4.9c-0.3,3.4-4.4,8-4.4,8
			c4.2-0.8,14.8-7.4,11.5-25.2C59.3,16.1,49.6,6.5,41.9,6c-3.5-0.2-2.4,1.5-4.6,2.2c-9.3,2.9-9.5,4.6-9.5,4.6
			c19.7,0.9,25,11.3,14.8,25.1c1.5-0.3,2.1-1.2,3.2-2.5C45.8,35.4,46.3,40.7,42.1,45.8z"/>
		
			<linearGradient id="SVGID_8_" gradientUnits="userSpaceOnUse" x1="13.7271" y1="42.1357" x2="15.1782" y2="41.3013" gradientTransform="matrix(1 0 0 -1 0 66)">
			<stop  offset="0" style="stop-color:#B0DCD6"/>
			<stop  offset="1" style="stop-color:#53ACE0"/>
		</linearGradient>
		<path class="st11" d="M16.7,22.3c0,0-1.1,0.8-2,0.6c-1-0.2-1.1-1.2-1.1-1.2c0,0.2,0,0.4-0.1,0.6c0,0.2-0.6,0.7-0.7,2
			c-0.1,1.4,0.4,2.3,0.9,2.8c1.8-2.6,3.5-3.3,3.5-3.3C16.6,23.6,16.7,22.3,16.7,22.3z"/>
		<g>
			<g class="st12">
				<g class="st13">
					
						<linearGradient id="SVGID_9_" gradientUnits="userSpaceOnUse" x1="44.812" y1="58.887" x2="41.9029" y2="59.5016" gradientTransform="matrix(1 0 0 -1 0 66)">
						<stop  offset="0" style="stop-color:#3092B9"/>
						<stop  offset="0.2199" style="stop-color:#258DB6"/>
						<stop  offset="0.6564" style="stop-color:#1685B1"/>
						<stop  offset="1" style="stop-color:#1082AF"/>
					</linearGradient>
					<path class="st14" d="M41.7,6c0.3-0.1,1.4,0,2.1,0.4c0.7,0.3,2,0.9,1,1.1c-1,0.2-1.6-0.1-2.1-0.6S41.1,6.2,41.7,6z"/>
				</g>
			</g>
		</g>
		
			<linearGradient id="SVGID_10_" gradientUnits="userSpaceOnUse" x1="21.6268" y1="55.2575" x2="24.0207" y2="45.656" gradientTransform="matrix(1 0 0 -1 0 66)">
			<stop  offset="7.400000e-03" style="stop-color:#1398D1;stop-opacity:0"/>
			<stop  offset="0.2482" style="stop-color:#1187C2;stop-opacity:0.6197"/>
			<stop  offset="0.6422" style="stop-color:#3F6499;stop-opacity:0.71"/>
			<stop  offset="1" style="stop-color:#2F4282;stop-opacity:0.5"/>
		</linearGradient>
		<path class="st15" d="M16.8,22.1c0,0,6.3-10.4,12-13.2c0.5-0.3-7.9,2.2-11.3,6C15.5,17.2,16.6,21.5,16.8,22.1z"/>
		<path class="st16" d="M16.8,22.1C16.8,22.1,16.8,22.1,16.8,22.1c1.6-1,4.4-1.6,5.3-3.4c3.5-7,6.6-9.7,6.6-9.7
			C23.1,11.8,16.8,22.1,16.8,22.1z"/>
		<path class="st17" d="M17.4,20.2c0,0-1.1-1.7,0.5-3.3c0.9-0.8,2.2-0.4,2.3-0.2c0.6,0.6,0.2,2-0.3,2.7
			C19.6,19.9,18.6,20.5,17.4,20.2z"/>
		
			<linearGradient id="SVGID_11_" gradientUnits="userSpaceOnUse" x1="10.8994" y1="136.306" x2="9.5537" y2="137.0519" gradientTransform="matrix(0.9994 3.490000e-02 3.490000e-02 -0.9994 4.0367 155.1287)">
			<stop  offset="0" style="stop-color:#F9C21B"/>
			<stop  offset="0.1479" style="stop-color:#F3BA1B"/>
			<stop  offset="0.3787" style="stop-color:#E3A41B"/>
			<stop  offset="0.6634" style="stop-color:#C9801C"/>
			<stop  offset="0.9884" style="stop-color:#A44E1C"/>
			<stop  offset="1" style="stop-color:#A34C1C"/>
		</linearGradient>
		<path class="st18" d="M18.1,20.1c0,0-0.8-1.2,0.3-2.3c0.6-0.6,1.5-0.3,1.6-0.2c0.4,0.4,0.2,1.4-0.2,1.9
			C19.6,19.9,18.9,20.3,18.1,20.1z"/>
		<path d="M19.6,18.8c0,0.5-0.4,0.9-0.9,0.8c-0.5,0-0.9-0.4-0.8-0.9c0-0.5,0.4-0.9,0.9-0.8C19.3,18,19.7,18.4,19.6,18.8z"/>
	</g>
	<circle class="st19" cx="18.2" cy="18.6" r="0.3"/>
	
		<linearGradient id="SVGID_12_" gradientUnits="userSpaceOnUse" x1="52.1" y1="32.8778" x2="43.1637" y2="52.949" gradientTransform="matrix(1 0 0 -1 0 66)">
		<stop  offset="0" style="stop-color:#409EC3"/>
		<stop  offset="0.62" style="stop-color:#2061BD"/>
	</linearGradient>
	<path class="st20" d="M57.5,17.3c-4.3-6.6-7.7-8.2-7.7-8.2s0.2,4.8,2.5,7.1c0.3,0.3-2.9-2-2.9-2s-0.7,2.2,0.9,4.7
		c-0.4-0.6-0.7-0.8-0.7-0.8s-2.9,1.3-3.7,3.2c-0.4-0.8-0.8-1.3-0.8-1.3s-2,4-1.7,8.6c0.4,7.5-1.4,10.3-1.4,10.3s4.9-1.9,7.2-7.9
		c1,2.6,0,5.3,0,5.3s3.9-2.9,4.8-8.3c0.9,1.5,0.7,4.5,0.7,4.5s2.5-3.5,2.6-7.3c1.2,0.8,1.3,4,1.3,4S62.1,24.3,57.5,17.3z"/>
	
		<linearGradient id="SVGID_13_" gradientUnits="userSpaceOnUse" x1="44.9449" y1="39.4566" x2="38.5422" y2="59.1621" gradientTransform="matrix(1 0 0 -1 0 66)">
		<stop  offset="0" style="stop-color:#14B2DA"/>
		<stop  offset="0.4028" style="stop-color:#297CCC"/>
		<stop  offset="0.5077" style="stop-color:#256FC5"/>
		<stop  offset="0.6492" style="stop-color:#2164BF"/>
		<stop  offset="0.8162" style="stop-color:#2061BD"/>
		<stop  offset="0.9835" style="stop-color:#2061BD"/>
	</linearGradient>
	<path class="st21" d="M53.3,12.7c-1.1-2.1-3.1-3.4-4.9-4.5c-4.4-2.7-7.1-3.1-7.1-3.1S37.3,5.9,38,7c0,0.1,0.1,0.1,0.2,0.2
		c-3.5-1.6-5.5,2.1-5.5,2.1c-2-0.1-4.5,0.9-5.2,3.5c-0.1,0.3,0.9,0.1,1.4,0.2c2.9,0.6,5.7,2,7,2.7c3,1.6,4.7,4.2,5.7,6.2
		c1.2,2.4,1.7,6.6,1.7,6.6s3.2-4.4,2.5-6.7c1.3,0.8,1.5,3.6,1.5,3.6s2.1-3.4,1.5-6.3c1.7,1,1.7,3.1,1.7,3.1s1.7-2.3,0.9-6.2
		c1.7,1.3,2,3,2,3S54.8,15.5,53.3,12.7z"/>
</g>
</svg>
