<?xml version="1.0" encoding="utf-8"?>
<!-- Generator: Adobe Illustrator 23.0.2, SVG Export Plug-In . SVG Version: 6.00 Build 0)  -->
<svg version="1.1" id="Gimp" image-rendering="optimizeSpeed"
	 xmlns="http://www.w3.org/2000/svg" xmlns:xlink="http://www.w3.org/1999/xlink" x="0px" y="0px" viewBox="0 0 64 64"
	 style="enable-background:new 0 0 64 64;" xml:space="preserve">
<style type="text/css">
	.st0{fill:url(#SVGID_1_);}
	.st1{fill:url(#twitter-1_1_);}
</style>
<linearGradient id="SVGID_1_" gradientUnits="userSpaceOnUse" x1="31.8818" y1="1.8565" x2="32.1721" y2="75.8888">
	<stop  offset="0" style="stop-color:#1DA1F2"/>
	<stop  offset="0.2371" style="stop-color:#1D9DEF"/>
	<stop  offset="0.4749" style="stop-color:#1B91E7"/>
	<stop  offset="0.7131" style="stop-color:#197DDA"/>
	<stop  offset="0.9503" style="stop-color:#1661C7"/>
	<stop  offset="1" style="stop-color:#155AC2"/>
</linearGradient>
<circle class="st0" cx="32" cy="32" r="30"/>
<linearGradient id="twitter-1_1_" gradientUnits="userSpaceOnUse" x1="37.5582" y1="23.4378" x2="9.5764" y2="54.7551">
	<stop  offset="0" style="stop-color:#FFFFFF"/>
	<stop  offset="0.6" style="stop-color:#EBEBEB"/>
	<stop  offset="1" style="stop-color:#D7D7D7"/>
</linearGradient>
<path id="twitter-1" class="st1" d="M52.4,22.6c-1.4,0.6-2.8,1-4.3,1.2c1.6-0.9,2.8-2.4,3.3-4.2c-1.5,0.9-3.1,1.5-4.8,1.8
	c-1.4-1.5-3.3-2.4-5.5-2.4c-4.9,0-8.5,4.6-7.4,9.3C27.4,28,21.9,25,18.1,20.4c-2,3.4-1,7.8,2.3,10.1c-1.2,0-2.4-0.4-3.4-0.9
	c-0.1,3.5,2.4,6.8,6.1,7.5c-1.1,0.3-2.2,0.4-3.4,0.1c1,3,3.8,5.2,7.1,5.3c-3.2,2.5-7.2,3.6-11.2,3.1c3.3,2.1,7.3,3.4,11.6,3.4
	c14,0,22-11.9,21.5-22.5C50.1,25.4,51.4,24.1,52.4,22.6z"/>
</svg>
