<?xml version="1.0" encoding="utf-8"?>
<!-- Generator: Adobe Illustrator 23.0.2, SVG Export Plug-In . SVG Version: 6.00 Build 0)  -->
<svg version="1.1" id="vlc" image-rendering="optimizeSpeed"
	 xmlns="http://www.w3.org/2000/svg" xmlns:xlink="http://www.w3.org/1999/xlink" x="0px" y="0px" viewBox="0 0 64 64"
	 style="enable-background:new 0 0 64 64;" xml:space="preserve">
<style type="text/css">
	.st0{fill:url(#SVGID_1_);}
	.st1{fill:url(#SVGID_2_);}
	.st2{opacity:0.2;fill:url(#SVGID_3_);enable-background:new    ;}
</style>
<g>
	<linearGradient id="SVGID_1_" gradientUnits="userSpaceOnUse" x1="31.7144" y1="0.2292" x2="32.0047" y2="80.3582">
		<stop  offset="0" style="stop-color:#FFFFFF"/>
		<stop  offset="0.6" style="stop-color:#EBEBEB"/>
		<stop  offset="1" style="stop-color:#D7D7D7"/>
	</linearGradient>
	<polygon class="st0" points="16.7,37.3 18.2,32.7 22.3,28.4 21.7,21.9 24.5,13 32,10 39.5,13 42.3,21.9 40.3,30.9 45.8,32.7 
		47.3,37.3 50,41.6 49.2,47.6 32,52.3 19.5,49 13.7,45.3 14.5,40.4 	"/>
	<linearGradient id="SVGID_2_" gradientUnits="userSpaceOnUse" x1="32" y1="1.0968" x2="32" y2="84.0506">
		<stop  offset="0" style="stop-color:#FFDA64"/>
		<stop  offset="0.546" style="stop-color:#FB7C38"/>
		<stop  offset="0.6638" style="stop-color:#FB7C38"/>
		<stop  offset="0.6981" style="stop-color:#FA7432"/>
		<stop  offset="0.8247" style="stop-color:#F5591E"/>
		<stop  offset="0.8995" style="stop-color:#F34F17"/>
	</linearGradient>
	<path class="st1" d="M32,39.2c7.3,0,13.4-2.8,13.8-6.4c-1.1-3.4-2.3-7.2-3.4-10.8c-0.8,2.6-5.3,4.5-10.3,4.5
		c-5.1,0-9.5-1.8-10.3-4.5c-1.2,3.7-2.3,7.4-3.4,10.8C18.6,36.4,24.7,39.2,32,39.2z M32,16.1c3.4,0,6.6-1.2,7.5-3.1
		c-1.3-4.1-2.4-7.6-3.1-9.8C36,1.8,33.9,1,32,1c-1.9,0-4,0.8-4.5,2.2C26.8,5.5,25.7,9,24.5,13C25.4,14.9,28.6,16.1,32,16.1z
		 M58.8,42.6l-11.5-5.2l1.3,4.2c-0.1,4.4-7.6,7.9-16.7,7.9c-9,0-16.6-3.5-16.7-7.9l1.3-4.2L5.2,42.6c-3.2,1.5-3.3,4.2-0.3,6l21.5,13
		c3,1.8,8,1.8,11.1,0l21.5-13C62.1,46.7,62,44,58.8,42.6z"/>
	
		<radialGradient id="SVGID_3_" cx="1521.7367" cy="-788.3258" r="78.0578" gradientTransform="matrix(0.3862 0 0 -0.3862 -555.6269 -272.4163)" gradientUnits="userSpaceOnUse">
		<stop  offset="0" style="stop-color:#FFDA64;stop-opacity:8.556200e-02"/>
		<stop  offset="0.9107" style="stop-color:#FB7C38"/>
		<stop  offset="1" style="stop-color:#F34F17"/>
	</radialGradient>
	<path class="st2" d="M32,39.2c7.3,0,13.4-2.8,13.8-6.4c-1.1-3.4-2.3-7.2-3.4-10.8c-0.8,2.6-5.3,4.5-10.3,4.5
		c-5.1,0-9.5-1.8-10.3-4.5c-1.2,3.7-2.3,7.4-3.4,10.8C18.6,36.4,24.7,39.2,32,39.2z M32,16.1c3.4,0,6.6-1.2,7.5-3.1
		c-1.3-4.1-2.4-7.6-3.1-9.8C36,1.8,33.9,1,32,1c-1.9,0-4,0.8-4.5,2.2C26.8,5.5,25.7,9,24.5,13C25.4,14.9,28.6,16.1,32,16.1z
		 M58.8,42.6l-11.5-5.2l1.3,4.2c-0.1,4.4-7.6,7.9-16.7,7.9c-9,0-16.6-3.5-16.7-7.9l1.3-4.2L5.2,42.6c-3.2,1.5-3.3,4.2-0.3,6l21.5,13
		c3,1.8,8,1.8,11.1,0l21.5-13C62.1,46.7,62,44,58.8,42.6z"/>
</g>
</svg>
