<?xml version="1.0" encoding="utf-8"?>
<!-- Generator: Adobe Illustrator 23.0.2, SVG Export Plug-In . SVG Version: 6.00 Build 0)  -->
<svg version="1.1" id="Layer_1" xmlns="http://www.w3.org/2000/svg" xmlns:xlink="http://www.w3.org/1999/xlink" x="0px" y="0px"
	 viewBox="0 0 64 64" style="enable-background:new 0 0 64 64;" xml:space="preserve">
<style type="text/css">
	.st0{fill:url(#SVGID_1_);}
	.st1{fill:url(#SVGID_2_);}
	.st2{fill:#FFFFFF;}
	.st3{fill:url(#SVGID_3_);}
	.st4{fill:none;stroke:#F7914B;stroke-width:3;stroke-linecap:round;stroke-linejoin:round;stroke-miterlimit:10;}
</style>
<linearGradient id="SVGID_1_" gradientUnits="userSpaceOnUse" x1="17.9609" y1="5.348" x2="63.662" y2="69.8865" gradientTransform="matrix(1 0 0 -1 0 66)">
	<stop  offset="0" style="stop-color:#FDB15A"/>
	<stop  offset="1" style="stop-color:#F2723C"/>
</linearGradient>
<path class="st0" d="M61.4,19.3v38.3c0,2.1-1.7,3.8-3.8,3.8H18.9c-2.1,0-3.8-1.7-3.8-3.8V6.4c0-2.1,1.7-3.8,3.8-3.8h25.7L61.4,19.3
	L61.4,19.3z"/>
<linearGradient id="SVGID_2_" gradientUnits="userSpaceOnUse" x1="41.1323" y1="1034.4747" x2="71.1968" y2="1010.3457" gradientTransform="matrix(1 0 0 1 0 -1014)">
	<stop  offset="0" style="stop-color:#FDB15A"/>
	<stop  offset="1" style="stop-color:#F2723C"/>
</linearGradient>
<path class="st1" d="M61.4,19.3H48.1c-1.9,0-3.5-1.6-3.5-3.5V2.6L61.4,19.3z"/>
<g>
	<path class="st2" d="M46.7,33.8V25c-3.9,0.5-6.9,3.8-6.9,7.9c0,4.4,3.6,8,8,8c4.1,0,7.4-3,7.9-7h-9V33.8z"/>
	<path class="st2" d="M48.7,25v6.9h6.9C55.2,28.3,52.3,25.4,48.7,25z"/>
</g>
<g>
	<g>
		<rect x="25.5" y="24.9" class="st2" width="8.8" height="2"/>
		<rect x="25.5" y="31.9" class="st2" width="8.8" height="2"/>
		<rect x="25.5" y="38.8" class="st2" width="8.8" height="2"/>
		<rect x="25.5" y="45.8" class="st2" width="29.2" height="2"/>
		<rect x="20.8" y="52.6" class="st2" width="33.9" height="2.1"/>
	</g>
	<rect x="20.8" y="24.9" class="st2" width="2" height="2"/>
	<rect x="20.8" y="31.9" class="st2" width="2" height="2"/>
	<rect x="20.8" y="38.8" class="st2" width="2" height="2"/>
	<rect x="20.8" y="45.7" class="st2" width="2" height="2"/>
	<rect x="20.8" y="52.6" class="st2" width="2" height="2"/>
</g>
<g>
	<radialGradient id="SVGID_3_" cx="19.1935" cy="30.129" r="38.6712" gradientUnits="userSpaceOnUse">
		<stop  offset="0.1508" style="stop-color:#FFFFFF"/>
		<stop  offset="0.3182" style="stop-color:#F4F5F5"/>
		<stop  offset="0.6089" style="stop-color:#D8D8DB"/>
		<stop  offset="0.9862" style="stop-color:#AAABB0"/>
		<stop  offset="0.9944" style="stop-color:#A9AAAF"/>
	</radialGradient>
	<path class="st3" d="M31.6,48.8H7.1c-2.5,0-4.5-2-4.5-4.5V19.8c0-2.5,2-4.5,4.5-4.5h24.5c2.5,0,4.5,2,4.5,4.5v24.5
		C36.1,46.7,34.1,48.8,31.6,48.8z"/>
	<path class="st4" d="M9.2,40.1V32h16.2c0,0,4,0,4-4s-4-4.1-4-4.1H9.2"/>
</g>
</svg>
