<?xml version="1.0" encoding="utf-8"?>
<!-- Generator: Adobe Illustrator 23.0.2, SVG Export Plug-In . SVG Version: 6.00 Build 0)  -->
<svg version="1.1" id="Layer_1" xmlns="http://www.w3.org/2000/svg" xmlns:xlink="http://www.w3.org/1999/xlink" x="0px" y="0px"
	 viewBox="0 0 64 64" style="enable-background:new 0 0 64 64;" xml:space="preserve">
<style type="text/css">
	.st0{fill:url(#SVGID_1_);}
	.st1{fill:url(#SVGID_2_);}
	.st2{fill:#FFFFFF;}
</style>
<g>
	<linearGradient id="SVGID_1_" gradientUnits="userSpaceOnUse" x1="7.4244" y1="61.3974" x2="48.9406" y2="11.7522">
		<stop  offset="0" style="stop-color:#6DA9F8"/>
		<stop  offset="0.3966" style="stop-color:#63A4F8"/>
		<stop  offset="1" style="stop-color:#5688CB"/>
	</linearGradient>
	<path class="st0" d="M55.2,18.7v39.4c0,2.1-1.7,3.8-3.8,3.8H12.7c-2.1,0-3.8-1.7-3.8-3.8V5.8c0-2.1,1.7-3.8,3.8-3.8h25.7L55.2,18.7
		L55.2,18.7z"/>
	<linearGradient id="SVGID_2_" gradientUnits="userSpaceOnUse" x1="38.7745" y1="18.5565" x2="64.5164" y2="-7.7661">
		<stop  offset="0" style="stop-color:#75ACF8"/>
		<stop  offset="0.5558" style="stop-color:#6BA2ED"/>
		<stop  offset="1" style="stop-color:#6299E4"/>
	</linearGradient>
	<path class="st1" d="M55.2,18.7H41.9c-1.9,0-3.5-1.6-3.5-3.5V2L55.2,18.7z"/>
	<g>
		<rect x="15.1" y="24.9" class="st2" width="19.9" height="2"/>
		<rect x="15.1" y="31.9" class="st2" width="19.9" height="2"/>
		<rect x="15.1" y="38.8" class="st2" width="33.9" height="2"/>
		<rect x="15.1" y="45.8" class="st2" width="33.9" height="2"/>
		<rect x="15.1" y="52.7" class="st2" width="33.9" height="2"/>
	</g>
	<rect x="40" y="24.9" class="st2" width="9" height="9"/>
</g>
</svg>
