<?xml version="1.0" encoding="utf-8"?>
<!-- Generator: Adobe Illustrator 23.0.2, SVG Export Plug-In . SVG Version: 6.00 Build 0)  -->
<svg version="1.1" xmlns="http://www.w3.org/2000/svg" xmlns:xlink="http://www.w3.org/1999/xlink" x="0px" y="0px"
	 viewBox="0 0 64 64" style="enable-background:new 0 0 64 64;" xml:space="preserve">
<style type="text/css">
	.st0{display:none;}
	.st1{display:inline;}
	.st2{opacity:0.25;enable-background:new    ;}
	.st3{fill:url(#SVGID_1_);}
	.st4{opacity:0.15;enable-background:new    ;}
	.st5{fill:#FFFFFF;}
	.st6{fill:url(#SVGID_2_);}
	.st7{fill:url(#SVGID_3_);}
	.st8{display:none;fill:#4A8BD1;}
	.st9{fill:#63A4F8;}
	.st10{fill:#32FFE0;stroke:#FFFFFF;stroke-width:2;stroke-miterlimit:10;}
</style>
<g id="Layer_1" class="st0">
	<g transform="matrix(.50103 0 0 .50103 -.37362 31.914)" class="st1">
		<circle class="st2" cx="64.6" cy="0.2" r="59.9"/>
		
			<linearGradient id="SVGID_1_" gradientUnits="userSpaceOnUse" x1="2236.6411" y1="-1128.2399" x2="2234.6541" y2="-1229.7668" gradientTransform="matrix(0.4686 0 0 -0.4686 -982.6405 -570.4443)">
			<stop  offset="0" style="stop-color:#0CBBFF"/>
			<stop  offset="1" style="stop-color:#2452E6"/>
		</linearGradient>
		<circle class="st3" cx="64.6" cy="0.2" r="59.9"/>
		<path class="st4" d="M78.8,22.8c4.7-1.5,8.8-3.8,11.9-7.9C73.4,24.9,56.3,24.6,39,15c1.4,2,3.1,3.5,5.1,4.7c2,1.1,4.1,2.1,6.2,3.1
			c-0.9,1.1-2,2.3-2.9,3.6c-0.8,1.3-1.8,1.7-3.4,1.5c-5.8-0.7-11.1-2.6-15.4-6.7c-0.1-0.1-0.2-0.2-0.4-0.4c-1.8-1.6-2.5-3.4-2.4-6
			C26.6,2.7,29.7-8.9,35-19.9c0.3-0.5,0.7-1.1,1.2-1.4c4.3-3,9-5.1,14.1-6c1-0.2,2-0.3,3-0.3c0.4,0,0.8,0.2,1.2,0.5
			c-6.2,2.1-12,4.5-17.1,8.7c17.7-8.4,35.3-8.8,52.9-0.2c-4.7-3.8-10.2-6.2-15.9-8c0.4-0.9,1-1,1.9-1c6.2,0.6,11.7,2.8,16.7,6.4
			c0.5,0.3,0.9,0.8,1.2,1.3c3.9,7.9,6.5,16.2,8,24.9c0.7,4,1,8.1,1.1,12.2c0,0.6-0.2,1.3-0.6,1.7c-3.3,4.3-7.7,6.9-12.8,8.2
			c-2,0.5-4.1,0.7-6.1,1c-0.3,0-0.8-0.1-1-0.3C81.5,26.1,80.2,24.5,78.8,22.8L78.8,22.8z M51.5,11.8c2.3,0,3.6-0.5,4.8-1.5
			c1.9-1.6,2.6-3.7,2.8-6.1c0.2-2.7-0.9-4.8-3.2-6.2c-2.3-1.4-4.8-1.5-7.2-0.1c-3.8,2.4-4.5,8.1-1.5,11.5
			C48.6,11,50.2,11.8,51.5,11.8L51.5,11.8z M76.4,12c0.8-0.2,1.6-0.3,2.3-0.5c4.5-1.8,6-7.9,2.8-11.9c-2.4-3.1-7-3.4-9.8-0.6
			c-1.8,1.9-2.4,4.2-2.1,6.7C70.1,9.1,73.1,11.8,76.4,12L76.4,12z"/>
		<path class="st5" d="M78.8,22.8c4.7-1.5,8.8-3.8,11.9-7.9C73.4,24.9,56.3,24.6,39,15c1.4,2,3.1,3.5,5.1,4.7c2,1.1,4.1,2.1,6.2,3.1
			c-0.9,1.1-2,2.3-2.9,3.6c-0.8,1.3-1.8,1.7-3.4,1.5c-5.8-0.7-11.1-2.6-15.4-6.7c-0.1-0.1-0.2-0.2-0.4-0.4c-1.8-1.6-2.5-3.4-2.4-6
			C26.6,2.7,29.7-8.9,35-19.9c0.3-0.5,0.7-1.1,1.2-1.4c4.3-3,9-5.1,14.1-6c1-0.2,2-0.3,3-0.3c0.4,0,0.8,0.2,1.2,0.5
			c-6.2,2.1-12,4.5-17.1,8.7c17.7-8.4,35.3-8.8,52.9-0.2c-4.7-3.8-10.2-6.2-15.9-8c0.4-0.9,1-1,1.9-1c6.2,0.6,11.7,2.8,16.7,6.4
			c0.5,0.3,0.9,0.8,1.2,1.3c3.9,7.9,6.5,16.2,8,24.9c0.7,4,1,8.1,1.1,12.2c0,0.6-0.2,1.3-0.6,1.7c-3.3,4.3-7.7,6.9-12.8,8.2
			c-2,0.5-4.1,0.7-6.1,1c-0.3,0-0.8-0.1-1-0.3C81.5,26.1,80.2,24.5,78.8,22.8L78.8,22.8z M51.5,11.8c2.3,0,3.6-0.5,4.8-1.5
			c1.9-1.6,2.6-3.7,2.8-6.1c0.2-2.7-0.9-4.8-3.2-6.2c-2.3-1.4-4.8-1.5-7.2-0.1c-3.8,2.4-4.5,8.1-1.5,11.5
			C48.6,11,50.2,11.8,51.5,11.8L51.5,11.8z M76.4,12c0.8-0.2,1.6-0.3,2.3-0.5c4.5-1.8,6-7.9,2.8-11.9c-2.4-3.1-7-3.4-9.8-0.6
			c-1.8,1.9-2.4,4.2-2.1,6.7C70.1,9.1,73.1,11.8,76.4,12L76.4,12z"/>
	</g>
</g>
<g id="Layer_2">
	<linearGradient id="SVGID_2_" gradientUnits="userSpaceOnUse" x1="2.1935" y1="61.8064" x2="86.1503" y2="-22.1503">
		<stop  offset="0" style="stop-color:#6DA9F8"/>
		<stop  offset="0.3184" style="stop-color:#63A4F8"/>
		<stop  offset="0.7263" style="stop-color:#5688CB"/>
	</linearGradient>
	<path class="st6" d="M55.2,18.7v39.4c0,2.1-1.7,3.8-3.8,3.8H12.7c-2.1,0-3.8-1.7-3.8-3.8V5.8c0-2.1,1.7-3.8,3.8-3.8h25.7L55.2,18.7
		C55.2,18.7,55.2,18.7,55.2,18.7z"/>
	
		<image style="display:none;overflow:visible;" width="384" height="186" xlink:href="FB6B90FE.jpg"  transform="matrix(0.288 0 0 0.288 -29.9206 66.4516)">
	</image>
	<linearGradient id="SVGID_3_" gradientUnits="userSpaceOnUse" x1="41.7203" y1="14.7929" x2="65.2364" y2="-5.7232">
		<stop  offset="0" style="stop-color:#75ACF8"/>
		<stop  offset="0.4403" style="stop-color:#6BA2ED"/>
		<stop  offset="1" style="stop-color:#6299E4"/>
	</linearGradient>
	<path class="st7" d="M55.2,18.7H41.9c-1.9,0-3.5-1.6-3.5-3.5V2L55.2,18.7z"/>
	<rect x="12" y="21.9" class="st8" width="40" height="36.9"/>
	<g>
		<rect x="15.1" y="24.9" class="st5" width="19.9" height="2"/>
		<rect x="15.1" y="31.9" class="st5" width="19.9" height="2"/>
		<rect x="15.1" y="38.8" class="st5" width="33.9" height="2"/>
		<rect x="15.1" y="45.8" class="st5" width="33.9" height="2"/>
		<rect x="15.1" y="52.7" class="st5" width="33.9" height="2"/>
	</g>
	<rect x="-20.9" y="-16" class="st9" width="7.9" height="7.1"/>
	<g>
		<line class="st10" x1="-95.4" y1="-46.6" x2="-61.5" y2="-46.6"/>
		<line class="st10" x1="-95.4" y1="-39.7" x2="-61.5" y2="-39.7"/>
		<line class="st10" x1="-95.4" y1="-32.7" x2="-61.5" y2="-32.7"/>
		<line class="st10" x1="-95.4" y1="-25.7" x2="-61.5" y2="-25.7"/>
		<line class="st10" x1="-95.4" y1="-18.8" x2="-61.5" y2="-18.8"/>
	</g>
	<rect x="40" y="24.9" class="st5" width="9" height="9"/>
	
		<image style="overflow:visible;" width="384" height="186" xlink:href="FB6B9102.jpg"  transform="matrix(0.4604 0 0 0.4604 -57.3381 87.6484)">
	</image>
</g>
</svg>
