<?xml version="1.0" encoding="utf-8"?>
<!-- Generator: Adobe Illustrator 23.0.2, SVG Export Plug-In . SVG Version: 6.00 Build 0)  -->
<svg version="1.1" id="Layer_2" xmlns="http://www.w3.org/2000/svg" xmlns:xlink="http://www.w3.org/1999/xlink" x="0px" y="0px"
	 viewBox="0 0 64 64" style="enable-background:new 0 0 64 64;" xml:space="preserve">
<style type="text/css">
	.st0{fill:url(#SVGID_1_);}
	.st1{fill:url(#SVGID_2_);}
	.st2{fill:none;stroke:#FFFFFF;stroke-width:1.5;stroke-miterlimit:10;}
</style>
<linearGradient id="SVGID_1_" gradientUnits="userSpaceOnUse" x1="2.1935" y1="61.8064" x2="86.1503" y2="-22.1503">
	<stop  offset="0" style="stop-color:#23C24E"/>
	<stop  offset="0.3184" style="stop-color:#13C243"/>
	<stop  offset="0.7263" style="stop-color:#138C2E"/>
</linearGradient>
<path class="st0" d="M55.2,18.7v39.4c0,2.1-1.7,3.8-3.8,3.8H12.7c-2.1,0-3.8-1.7-3.8-3.8V5.8c0-2.1,1.7-3.8,3.8-3.8h25.7L55.2,18.7
	C55.2,18.7,55.2,18.7,55.2,18.7z"/>
<linearGradient id="SVGID_2_" gradientUnits="userSpaceOnUse" x1="38.6734" y1="18.7977" x2="68.9638" y2="-12.654">
	<stop  offset="0" style="stop-color:#23C24E"/>
	<stop  offset="0.3184" style="stop-color:#13C243"/>
	<stop  offset="0.7263" style="stop-color:#138C2E"/>
</linearGradient>
<path class="st1" d="M55.2,18.7H41.9c-1.9,0-3.5-1.6-3.5-3.5V2L55.2,18.7z"/>
<g>
	<g>
		<rect x="15.8" y="25.6" class="st2" width="8.1" height="7.1"/>
		<rect x="23.9" y="25.6" class="st2" width="8.1" height="7.1"/>
		<rect x="32" y="25.6" class="st2" width="8.1" height="7.1"/>
		<rect x="40.1" y="25.6" class="st2" width="8.1" height="7.1"/>
		<rect x="15.8" y="32.7" class="st2" width="8.1" height="7.1"/>
		<rect x="23.9" y="32.7" class="st2" width="8.1" height="7.1"/>
		<rect x="32" y="32.7" class="st2" width="8.1" height="7.1"/>
		<rect x="40.1" y="32.7" class="st2" width="8.1" height="7.1"/>
		<rect x="15.8" y="39.8" class="st2" width="8.1" height="7.1"/>
		<rect x="23.9" y="39.8" class="st2" width="8.1" height="7.1"/>
		<rect x="32" y="39.8" class="st2" width="8.1" height="7.1"/>
		<rect x="40.1" y="39.8" class="st2" width="8.1" height="7.1"/>
		<rect x="15.8" y="46.9" class="st2" width="8.1" height="7.1"/>
		<rect x="23.9" y="46.9" class="st2" width="8.1" height="7.1"/>
		<rect x="32" y="46.9" class="st2" width="8.1" height="7.1"/>
		<rect x="40.1" y="46.9" class="st2" width="8.1" height="7.1"/>
	</g>
</g>
</svg>
