<?xml version="1.0" encoding="utf-8"?>
<!-- Generator: Adobe Illustrator 23.0.2, SVG Export Plug-In . SVG Version: 6.00 Build 0)  -->
<svg version="1.1" id="Layer_1" xmlns="http://www.w3.org/2000/svg" xmlns:xlink="http://www.w3.org/1999/xlink" x="0px" y="0px"
	 viewBox="0 0 64 64" style="enable-background:new 0 0 64 64;" xml:space="preserve">
<style type="text/css">
	.st0{fill:url(#SVGID_1_);}
	.st1{fill:url(#SVGID_2_);}
	.st2{fill:#FFFFFF;}
</style>
<linearGradient id="SVGID_1_" gradientUnits="userSpaceOnUse" x1="25.4458" y1="64.3038" x2="38.2273" y2="1.6875">
	<stop  offset="0" style="stop-color:#FDB15A"/>
	<stop  offset="1" style="stop-color:#F2723C"/>
</linearGradient>
<path class="st0" d="M55.2,18.7v39.4c0,2.1-1.7,3.8-3.8,3.8H12.7c-2.1,0-3.8-1.7-3.8-3.8V5.8c0-2.1,1.7-3.8,3.8-3.8h25.7L55.2,18.7
	L55.2,18.7z"/>
<linearGradient id="SVGID_2_" gradientUnits="userSpaceOnUse" x1="34.9323" y1="19.8747" x2="64.9968" y2="-4.2543">
	<stop  offset="0" style="stop-color:#FDB15A"/>
	<stop  offset="1" style="stop-color:#F2723C"/>
</linearGradient>
<path class="st1" d="M55.2,18.7H41.9c-1.9,0-3.5-1.6-3.5-3.5V2L55.2,18.7z"/>
<g>
	<path class="st2" d="M40,33.8V25c-3.9,0.5-6.9,3.8-6.9,7.9c0,4.4,3.6,8,8,8c4.1,0,7.4-3,7.9-7H40z"/>
	<path class="st2" d="M42,25v6.9h6.9C48.5,28.3,45.6,25.4,42,25z"/>
</g>
<g>
	<g>
		<rect x="19.8" y="24.9" class="st2" width="8.8" height="2"/>
		<rect x="19.8" y="31.9" class="st2" width="8.8" height="2"/>
		<rect x="19.8" y="38.8" class="st2" width="8.8" height="2"/>
		<rect x="19.8" y="45.8" class="st2" width="29.2" height="2"/>
		<rect x="19.8" y="52.7" class="st2" width="29.2" height="2"/>
	</g>
	<rect x="15.1" y="24.9" class="st2" width="2" height="2"/>
	<rect x="15.1" y="31.9" class="st2" width="2" height="2"/>
	<rect x="15.1" y="38.8" class="st2" width="2" height="2"/>
	<rect x="15.1" y="45.7" class="st2" width="2" height="2"/>
	<rect x="15.1" y="52.6" class="st2" width="2" height="2"/>
</g>
</svg>
