<?xml version="1.0" encoding="utf-8"?>
<!-- Generator: Adobe Illustrator 23.0.2, SVG Export Plug-In . SVG Version: 6.00 Build 0)  -->
<svg version="1.1" id="Layer_1" xmlns="http://www.w3.org/2000/svg" xmlns:xlink="http://www.w3.org/1999/xlink" x="0px" y="0px"
	 viewBox="0 0 64 64" style="enable-background:new 0 0 64 64;" xml:space="preserve">
<style type="text/css">
	.st0{fill:url(#SVGID_1_);}
	.st1{fill:url(#SVGID_2_);}
	.st2{fill:#FFFFFF;}
	.st3{fill:url(#SVGID_3_);}
	
		.st4{fill-rule:evenodd;clip-rule:evenodd;fill:none;stroke:#E26758;stroke-width:3;stroke-linecap:round;stroke-linejoin:round;stroke-miterlimit:10;}
</style>
<linearGradient id="SVGID_1_" gradientUnits="userSpaceOnUse" x1="20.5905" y1="2.9373" x2="55.7411" y2="64.642" gradientTransform="matrix(1 0 0 -1 0 66)">
	<stop  offset="0" style="stop-color:#E78275"/>
	<stop  offset="1" style="stop-color:#DC4C3A"/>
</linearGradient>
<path class="st0" d="M61.4,19.3l0,38.4c0,2.1-1.7,3.8-3.8,3.8H18.9c-2.1,0-3.8-1.7-3.8-3.8l0-51.3c0-2.1,1.7-3.8,3.8-3.8h25.7
	L61.4,19.3L61.4,19.3z"/>
<linearGradient id="SVGID_2_" gradientUnits="userSpaceOnUse" x1="48.7919" y1="42.6886" x2="62.7273" y2="83.6241" gradientTransform="matrix(1 0 0 -1 0 66)">
	<stop  offset="0" style="stop-color:#E78275"/>
	<stop  offset="1" style="stop-color:#DC4C3A"/>
</linearGradient>
<path class="st1" d="M61.4,19.3H48.1c-1.9,0-3.5-1.6-3.5-3.5V2.6L61.4,19.3z"/>
<g>
	<rect x="21.3" y="24.9" class="st2" width="33.9" height="2"/>
	<rect x="21.3" y="31.9" class="st2" width="33.9" height="2"/>
	<rect x="21.3" y="38.8" class="st2" width="33.9" height="2"/>
	<rect x="21.3" y="45.8" class="st2" width="33.9" height="2"/>
	<rect x="21.3" y="52.7" class="st2" width="33.9" height="2"/>
</g>
<radialGradient id="SVGID_3_" cx="19.1935" cy="35.871" r="38.6712" gradientTransform="matrix(1 0 0 -1 0 66)" gradientUnits="userSpaceOnUse">
	<stop  offset="0.1508" style="stop-color:#FFFFFF"/>
	<stop  offset="0.3182" style="stop-color:#F4F5F5"/>
	<stop  offset="0.6089" style="stop-color:#D8D8DB"/>
	<stop  offset="0.9862" style="stop-color:#AAABB0"/>
	<stop  offset="0.9944" style="stop-color:#A9AAAF"/>
</radialGradient>
<path class="st3" d="M31.6,48.8H7.1c-2.5,0-4.5-2-4.5-4.5V19.8c0-2.5,2-4.5,4.5-4.5h24.5c2.5,0,4.5,2,4.5,4.5v24.5
	C36.1,46.7,34.1,48.8,31.6,48.8z"/>
<path class="st4" d="M16.9,30.8V21h5.3c3.8,0,7,3.1,7,7v0c0,3.8-3.1,7-7,7h-8.6c-2.3,0-4.2,1.9-4.2,4.2v0c0,2.3,1.9,4.2,4.2,4.2
	l3.2,0v-4.1"/>
</svg>
