<?xml version="1.0" encoding="utf-8"?>
<!-- Generator: Adobe Illustrator 23.0.2, SVG Export Plug-In . SVG Version: 6.00 Build 0)  -->
<svg version="1.1" id="Layer_1" xmlns="http://www.w3.org/2000/svg" xmlns:xlink="http://www.w3.org/1999/xlink" x="0px" y="0px"
	 viewBox="0 0 64 64" style="enable-background:new 0 0 64 64;" xml:space="preserve">
<style type="text/css">
	.st0{fill:url(#SVGID_1_);}
	.st1{fill:url(#SVGID_2_);}
	.st2{fill:none;stroke:#FFFFFF;stroke-width:1.5;stroke-miterlimit:10;}
	.st3{fill:url(#SVGID_3_);}
	.st4{fill:none;stroke:#19C247;stroke-width:3;stroke-linecap:round;stroke-linejoin:round;stroke-miterlimit:10;}
</style>
<linearGradient id="SVGID_1_" gradientUnits="userSpaceOnUse" x1="19.6257" y1="63.4829" x2="63.0774" y2="-9.9687">
	<stop  offset="0" style="stop-color:#2BC25B"/>
	<stop  offset="0.294" style="stop-color:#29BF58"/>
	<stop  offset="0.5502" style="stop-color:#25B44F"/>
	<stop  offset="0.7914" style="stop-color:#1DA240"/>
	<stop  offset="1" style="stop-color:#138C2E"/>
</linearGradient>
<path class="st0" d="M61.4,19.3v38.3c0,2.1-1.7,3.8-3.8,3.8H18.9c-2.1,0-3.8-1.7-3.8-3.8V6.4c0-2.1,1.7-3.8,3.8-3.8h25.7L61.4,19.3z
	"/>
<linearGradient id="SVGID_2_" gradientUnits="userSpaceOnUse" x1="44.8686" y1="1033.3931" x2="75.159" y2="1001.9414" gradientTransform="matrix(1 0 0 1 0 -1014)">
	<stop  offset="0" style="stop-color:#23C24E"/>
	<stop  offset="0.3184" style="stop-color:#13C243"/>
	<stop  offset="0.7263" style="stop-color:#138C2E"/>
</linearGradient>
<path class="st1" d="M61.4,19.3H48.1c-1.9,0-3.5-1.6-3.5-3.5V2.6L61.4,19.3z"/>
<g>
	<rect x="22.1" y="25.6" class="st2" width="6.5" height="7.1"/>
	<rect x="28.5" y="25.6" class="st2" width="6.5" height="7.1"/>
	<rect x="35" y="25.6" class="st2" width="6.5" height="7.1"/>
	<rect x="41.5" y="25.6" class="st2" width="6.5" height="7.1"/>
	<rect x="48" y="25.6" class="st2" width="6.5" height="7.1"/>
	<rect x="22.1" y="32.7" class="st2" width="6.5" height="7.1"/>
	<rect x="28.5" y="32.7" class="st2" width="6.5" height="7.1"/>
	<rect x="35" y="32.7" class="st2" width="6.5" height="7.1"/>
	<rect x="41.5" y="32.7" class="st2" width="6.5" height="7.1"/>
	<rect x="48" y="32.7" class="st2" width="6.5" height="7.1"/>
	<rect x="22.1" y="39.8" class="st2" width="6.5" height="7.1"/>
	<rect x="28.5" y="39.8" class="st2" width="6.5" height="7.1"/>
	<rect x="35" y="39.8" class="st2" width="6.5" height="7.1"/>
	<rect x="41.5" y="39.8" class="st2" width="6.5" height="7.1"/>
	<rect x="48" y="39.8" class="st2" width="6.5" height="7.1"/>
	<rect x="22.1" y="46.9" class="st2" width="6.5" height="7.1"/>
	<rect x="28.5" y="46.9" class="st2" width="6.5" height="7.1"/>
	<rect x="35" y="46.9" class="st2" width="6.5" height="7.1"/>
	<rect x="41.5" y="46.9" class="st2" width="6.5" height="7.1"/>
	<rect x="48" y="46.9" class="st2" width="6.5" height="7.1"/>
</g>
<g>
	
		<radialGradient id="SVGID_3_" cx="19.1935" cy="35.871" r="38.6712" gradientTransform="matrix(1 0 0 -1 0 66)" gradientUnits="userSpaceOnUse">
		<stop  offset="0.1508" style="stop-color:#FFFFFF"/>
		<stop  offset="0.3182" style="stop-color:#F4F5F5"/>
		<stop  offset="0.6089" style="stop-color:#D8D8DB"/>
		<stop  offset="0.9862" style="stop-color:#AAABB0"/>
		<stop  offset="0.9944" style="stop-color:#A9AAAF"/>
	</radialGradient>
	<path class="st3" d="M31.6,48.8H7.1c-2.5,0-4.5-2-4.5-4.5V19.8c0-2.5,2-4.5,4.5-4.5h24.5c2.5,0,4.5,2,4.5,4.5v24.5
		C36.1,46.7,34.1,48.8,31.6,48.8z"/>
	<g transform="translate(0 -.8841)">
		<path class="st4" d="M19.3,32.9h-6.3c0,0-3.8,0-3.8-3.8s3.8-3.8,3.8-3.8h15.1 M19.4,32.9h6.3c0,0,3.8,0,3.8,3.8
			c0,3.8-3.8,3.8-3.8,3.8H10.6"/>
	</g>
</g>
</svg>
