<?xml version="1.0" encoding="utf-8"?>
<!-- Generator: Adobe Illustrator 23.0.2, SVG Export Plug-In . SVG Version: 6.00 Build 0)  -->
<svg version="1.1" id="Layer_1" xmlns="http://www.w3.org/2000/svg" xmlns:xlink="http://www.w3.org/1999/xlink" x="0px" y="0px"
	 viewBox="0 0 64 64" style="enable-background:new 0 0 64 64;" xml:space="preserve">
<style type="text/css">
	.st0{fill:url(#SVGID_1_);}
	.st1{fill:url(#SVGID_2_);}
	.st2{fill:#FFFFFF;}
	.st3{fill:url(#SVGID_3_);}
	.st4{fill:none;stroke:#5C95E0;stroke-width:3;stroke-linecap:round;stroke-linejoin:round;stroke-miterlimit:10;}
</style>
<linearGradient id="SVGID_1_" gradientUnits="userSpaceOnUse" x1="13.9131" y1="4.8979" x2="71.9481" y2="74.2963" gradientTransform="matrix(1 0 0 -1 0 66)">
	<stop  offset="0" style="stop-color:#6DA9F8"/>
	<stop  offset="0.3966" style="stop-color:#63A4F8"/>
	<stop  offset="1" style="stop-color:#5688CB"/>
</linearGradient>
<path class="st0" d="M61.4,19.3v38.3c0,2.1-1.7,3.8-3.8,3.8H18.9c-2.1,0-3.8-1.7-3.8-3.8V6.4c0-2.1,1.7-3.8,3.8-3.8h25.7L61.4,19.3z
	"/>
<linearGradient id="SVGID_2_" gradientUnits="userSpaceOnUse" x1="44.9745" y1="46.8435" x2="70.7164" y2="73.1661" gradientTransform="matrix(1 0 0 -1 0 66)">
	<stop  offset="0" style="stop-color:#75ACF8"/>
	<stop  offset="0.5558" style="stop-color:#6BA2ED"/>
	<stop  offset="1" style="stop-color:#6299E4"/>
</linearGradient>
<path class="st1" d="M61.4,19.3H48.1c-1.9,0-3.5-1.6-3.5-3.5V2.6L61.4,19.3z"/>
<g>
	<rect x="21.3" y="24.9" class="st2" width="19.9" height="2"/>
	<rect x="21.3" y="31.9" class="st2" width="19.9" height="2"/>
	<rect x="21.3" y="38.8" class="st2" width="33.9" height="2"/>
	<rect x="21.3" y="45.8" class="st2" width="33.9" height="2"/>
	<rect x="21.3" y="52.7" class="st2" width="33.9" height="2"/>
</g>
<rect x="46.2" y="24.9" class="st2" width="9" height="9"/>
<radialGradient id="SVGID_3_" cx="19.1935" cy="30.129" r="38.6712" gradientUnits="userSpaceOnUse">
	<stop  offset="0.1508" style="stop-color:#FFFFFF"/>
	<stop  offset="0.3182" style="stop-color:#F4F5F5"/>
	<stop  offset="0.6089" style="stop-color:#D8D8DB"/>
	<stop  offset="0.9862" style="stop-color:#AAABB0"/>
	<stop  offset="0.9944" style="stop-color:#A9AAAF"/>
</radialGradient>
<path class="st3" d="M31.6,48.8H7.1c-2.5,0-4.5-2-4.5-4.5V19.8c0-2.5,2-4.5,4.5-4.5h24.5c2.5,0,4.5,2,4.5,4.5v24.5
	C36.1,46.7,34.1,48.8,31.6,48.8z"/>
<path class="st4" d="M9.4,24.5v15l10-8.7l10,8.7v-15"/>
</svg>
