<?xml version="1.0" encoding="utf-8"?>
<!-- Generator: Adobe Illustrator 23.0.6, SVG Export Plug-In . SVG Version: 6.00 Build 0)  -->
<svg version="1.1" id="Layer_2" xmlns="http://www.w3.org/2000/svg" xmlns:xlink="http://www.w3.org/1999/xlink" x="0px" y="0px"
	 viewBox="0 0 64 64" style="enable-background:new 0 0 64 64;" xml:space="preserve">
<style type="text/css">
	.st0{fill:none;stroke:url(#SVGID_1_);stroke-width:4;stroke-miterlimit:10;}
	.st1{fill:#C8DAEA;}
	.st2{fill:#A9C9DD;}
	.st3{fill:url(#SVGID_2_);}
</style>
<linearGradient id="SVGID_1_" gradientUnits="userSpaceOnUse" x1="45.566" y1="-0.2291" x2="22.053" y2="54.6314">
	<stop  offset="0" style="stop-color:#37AEE2"/>
	<stop  offset="1" style="stop-color:#1E96C8"/>
</linearGradient>
<path class="st0" d="M57.1,8L5.7,27.8c-3.5,1.4-3.5,3.4-0.6,4.2l13.2,4.1l4.5,14.9c0.6,1.6,0.3,2.3,2,2.3c1.3,0,1.9-0.6,2.7-1.3
	l6.4-6.2l13.3,9.8c2.5,1.4,4.2,0.7,4.8-2.3l8.7-41.2C61.7,8.6,59.4,7,57.1,8z"/>
<g>
	<path class="st1" d="M24.8,53.4c-1.7,0-1.4-0.7-2-2.3l-5.1-16.7l39.1-23.2"/>
	<path class="st2" d="M24.8,53.4c1.3,0,1.9-0.6,2.7-1.3l7.1-6.9l-8.9-5.3"/>
	
		<linearGradient id="SVGID_2_" gradientUnits="userSpaceOnUse" x1="-475.4104" y1="541.007" x2="-475.3253" y2="540.8447" gradientTransform="matrix(130.4927 0 0 -109.4496 62075.9414 59243.2109)">
		<stop  offset="0" style="stop-color:#EFF7FC"/>
		<stop  offset="1" style="stop-color:#FFFFFF"/>
	</linearGradient>
	<path class="st3" d="M25.7,39.8l21.5,15.9c2.5,1.4,4.2,0.7,4.8-2.3l8.7-41.2C61.7,8.6,59.4,7,57.1,8L5.7,27.8
		c-3.5,1.4-3.5,3.4-0.6,4.2l13.2,4.1l30.5-19.2c1.4-0.9,2.8-0.4,1.7,0.6"/>
</g>
</svg>
