<?xml version="1.0" encoding="utf-8"?>
<!-- Generator: Adobe Illustrator 23.0.2, SVG Export Plug-In . SVG Version: 6.00 Build 0)  -->
<svg version="1.1" id="blender" image-rendering="optimizeSpeed"
	 xmlns="http://www.w3.org/2000/svg" xmlns:xlink="http://www.w3.org/1999/xlink" x="0px" y="0px" viewBox="0 0 64 64"
	 style="enable-background:new 0 0 64 64;" xml:space="preserve">
<style type="text/css">
	.st0{fill:#FFFFFF;stroke:#FFFFFF;stroke-width:4;stroke-miterlimit:10;}
	.st1{fill:url(#SVGID_1_);}
	.st2{fill:url(#SVGID_2_);}
</style>
<g>
	<g>
		<path class="st0" d="M53.7,22.9c0,0-18.5-18.6-18.5-18.6c-1.4-1.4-3.7-1.4-5.1,0c-1.4,1.4-1.4,3.7,0,5.1l7.2,7.2H12.6
			c-2,0-3.6,1.6-3.6,3.6s1.6,3.6,3.6,3.6h10.1L5.3,41.1c-1.4,1.4-1.4,3.7,0,5.1c0.7,0.7,1.6,1.1,2.5,1.1s1.8-0.4,2.5-1.1l7.2-7.2
			c0.7,11,9.9,19.8,21,19.8c11.6,0,21.1-9.5,21.1-21.1C59.7,31.9,57.4,26.7,53.7,22.9z"/>
	</g>
	<linearGradient id="SVGID_1_" gradientUnits="userSpaceOnUse" x1="38.6416" y1="26.4954" x2="38.6416" y2="51.8928">
		<stop  offset="0" style="stop-color:#4184ED"/>
		<stop  offset="1" style="stop-color:#1950AB"/>
	</linearGradient>
	<circle class="st1" cx="38.6" cy="37.6" r="10.4"/>
	<linearGradient id="SVGID_2_" gradientUnits="userSpaceOnUse" x1="32.0007" y1="4.7419" x2="32.0007" y2="60.5436">
		<stop  offset="0" style="stop-color:#F7D900"/>
		<stop  offset="1" style="stop-color:#E17300"/>
	</linearGradient>
	<path class="st2" d="M53.7,22.9c0,0-18.5-18.5-18.5-18.5c-1.4-1.4-3.7-1.4-5.1,0c-1.4,1.4-1.4,3.7,0,5.1l7.2,7.2H12.6
		c-2,0-3.6,1.6-3.6,3.6s1.6,3.6,3.6,3.6h10.1L5.3,41.1c-1.4,1.4-1.4,3.7,0,5.1c0.7,0.7,1.6,1.1,2.5,1.1s1.8-0.4,2.5-1.1l7.2-7.2
		c0.7,11,9.9,19.8,21,19.8c11.6,0,21.1-9.5,21.1-21.1C59.7,31.9,57.4,26.7,53.7,22.9z M38.6,51.6c-7.7,0-13.9-6.2-13.9-13.9
		c0-7.7,6.2-13.9,13.9-13.9c7.7,0,13.9,6.2,13.9,13.9C52.6,45.3,46.3,51.6,38.6,51.6z"/>
</g>
</svg>
