<?xml version="1.0" encoding="utf-8"?>
<!-- Generator: Adobe Illustrator 23.0.2, SVG Export Plug-In . SVG Version: 6.00 Build 0)  -->
<svg version="1.1" id="discord" xmlns="http://www.w3.org/2000/svg" xmlns:xlink="http://www.w3.org/1999/xlink" x="0px" y="0px"
	 viewBox="0 0 64 64" style="enable-background:new 0 0 64 64;" xml:space="preserve">
<style type="text/css">
	.st0{opacity:0.25;filter:url(#c);enable-background:new    ;}
	.st1{fill:url(#SVGID_1_);}
	.st2{opacity:0.15;enable-background:new    ;}
	.st3{fill:#FFFFFF;}
</style>
<filter  color-interpolation-filters="sRGB" height="1.072" id="c" width="1.072" x="-.036" y="-.036">
	<feGaussianBlur  stdDeviation="1.7963028"></feGaussianBlur>
</filter>
<g>
	<g class="st0">
		<circle cx="32" cy="32" r="30"/>
	</g>
	
		<linearGradient id="SVGID_1_" gradientUnits="userSpaceOnUse" x1="1120.2506" y1="-533.368" x2="1118.2637" y2="-634.895" gradientTransform="matrix(0.4686 0 0 -0.4686 -492.5309 -238.941)">
		<stop  offset="0" style="stop-color:#93B2FC"/>
		<stop  offset="0.4665" style="stop-color:#7289DA"/>
		<stop  offset="1" style="stop-color:#4B68AB"/>
	</linearGradient>
	<circle class="st1" cx="32" cy="32" r="30"/>
	<path class="st2" d="M39.1,43.3c2.4-0.7,4.4-1.9,6-3.9c-8.7,5-17.3,4.9-25.9,0c0.7,1,1.6,1.8,2.5,2.3c1,0.6,2,1,3.1,1.6
		c-0.5,0.6-1,1.2-1.4,1.8c-0.4,0.6-0.9,0.9-1.7,0.8c-2.9-0.3-5.6-1.3-7.7-3.4c-0.1-0.1-0.1-0.1-0.2-0.2c-0.9-0.8-1.3-1.7-1.2-3
		c0.4-6.1,1.9-11.9,4.6-17.4c0.1-0.3,0.4-0.5,0.6-0.7c2.1-1.5,4.5-2.6,7.1-3c0.5-0.1,1-0.2,1.5-0.2c0.2,0,0.4,0.1,0.6,0.3
		c-3.1,1-6,2.3-8.6,4.3c8.9-4.2,17.7-4.4,26.5-0.1c-2.4-1.9-5.1-3.1-7.9-4c0.2-0.4,0.5-0.5,1-0.5c3.1,0.3,5.8,1.4,8.4,3.2
		c0.2,0.2,0.5,0.4,0.6,0.7c2,4,3.3,8.1,4,12.5c0.3,2,0.5,4.1,0.6,6.1c0,0.3-0.1,0.6-0.3,0.9c-1.6,2.1-3.8,3.5-6.4,4.1
		c-1,0.3-2,0.3-3.1,0.5c-0.2,0-0.4,0-0.5-0.1C40.5,45,39.8,44.2,39.1,43.3L39.1,43.3z M25.4,37.9c1.1,0,1.8-0.2,2.4-0.7
		c1-0.8,1.3-1.9,1.4-3.1c0.1-1.4-0.4-2.4-1.6-3.1c-1.2-0.7-2.4-0.8-3.6,0c-1.9,1.2-2.3,4-0.7,5.8C24,37.4,24.8,37.8,25.4,37.9
		L25.4,37.9z M37.9,37.9c0.4-0.1,0.8-0.1,1.2-0.3c2.3-0.9,3-3.9,1.4-5.9c-1.2-1.6-3.5-1.7-4.9-0.3c-0.9,0.9-1.2,2.1-1.1,3.4
		C34.8,36.5,36.3,37.8,37.9,37.9L37.9,37.9z"/>
	<path class="st3" d="M39.1,43.3c2.4-0.7,4.4-1.9,6-3.9c-8.7,5-17.3,4.9-25.9,0c0.7,1,1.6,1.8,2.5,2.3c1,0.6,2,1,3.1,1.6
		c-0.5,0.6-1,1.2-1.4,1.8c-0.4,0.6-0.9,0.9-1.7,0.8c-2.9-0.3-5.6-1.3-7.7-3.4c-0.1-0.1-0.1-0.1-0.2-0.2c-0.9-0.8-1.3-1.7-1.2-3
		c0.4-6.1,1.9-11.9,4.6-17.4c0.1-0.3,0.4-0.5,0.6-0.7c2.1-1.5,4.5-2.6,7.1-3c0.5-0.1,1-0.2,1.5-0.2c0.2,0,0.4,0.1,0.6,0.3
		c-3.1,1-6,2.3-8.6,4.3c8.9-4.2,17.7-4.4,26.5-0.1c-2.4-1.9-5.1-3.1-7.9-4c0.2-0.4,0.5-0.5,1-0.5c3.1,0.3,5.8,1.4,8.4,3.2
		c0.2,0.2,0.5,0.4,0.6,0.7c2,4,3.3,8.1,4,12.5c0.3,2,0.5,4.1,0.6,6.1c0,0.3-0.1,0.6-0.3,0.9c-1.6,2.1-3.8,3.5-6.4,4.1
		c-1,0.3-2,0.3-3.1,0.5c-0.2,0-0.4,0-0.5-0.1C40.5,45,39.8,44.2,39.1,43.3L39.1,43.3z M25.4,37.9c1.1,0,1.8-0.2,2.4-0.7
		c1-0.8,1.3-1.9,1.4-3.1c0.1-1.4-0.4-2.4-1.6-3.1c-1.2-0.7-2.4-0.8-3.6,0c-1.9,1.2-2.3,4-0.7,5.8C24,37.4,24.8,37.8,25.4,37.9
		L25.4,37.9z M37.9,37.9c0.4-0.1,0.8-0.1,1.2-0.3c2.3-0.9,3-3.9,1.4-5.9c-1.2-1.6-3.5-1.7-4.9-0.3c-0.9,0.9-1.2,2.1-1.1,3.4
		C34.8,36.5,36.3,37.8,37.9,37.9L37.9,37.9z"/>
</g>
</svg>
