<?xml version="1.0" encoding="UTF-8" standalone="no"?>
<svg
   xmlns:dc="http://purl.org/dc/elements/1.1/"
   xmlns:cc="http://creativecommons.org/ns#"
   xmlns:rdf="http://www.w3.org/1999/02/22-rdf-syntax-ns#"
   xmlns:svg="http://www.w3.org/2000/svg"
   xmlns="http://www.w3.org/2000/svg"
   xmlns:xlink="http://www.w3.org/1999/xlink"
   xmlns:sodipodi="http://sodipodi.sourceforge.net/DTD/sodipodi-0.dtd"
   xmlns:inkscape="http://www.inkscape.org/namespaces/inkscape"
   id="Spotify"
   width="64"
   height="64"
   enable-background="new 0 0 1024 1024"
   image-rendering="optimizeSpeed"
   version="1.1"
   viewBox="0 0 64 64"
   sodipodi:docname="spotify.svg"
   inkscape:version="0.92.4 5da689c313, 2019-01-14">
  <metadata
     id="metadata60">
    <rdf:RDF>
      <cc:Work
         rdf:about="">
        <dc:format>image/svg+xml</dc:format>
        <dc:type
           rdf:resource="http://purl.org/dc/dcmitype/StillImage" />
      </cc:Work>
    </rdf:RDF>
  </metadata>
  <sodipodi:namedview
     pagecolor="#ffffff"
     bordercolor="#666666"
     borderopacity="1"
     objecttolerance="10"
     gridtolerance="10"
     guidetolerance="10"
     inkscape:pageopacity="0"
     inkscape:pageshadow="2"
     inkscape:window-width="960"
     inkscape:window-height="1024"
     id="namedview58"
     showgrid="false"
     inkscape:zoom="10.429825"
     inkscape:cx="32"
     inkscape:cy="32"
     inkscape:window-x="1600"
     inkscape:window-y="27"
     inkscape:window-maximized="0"
     inkscape:current-layer="Spotify" />
  <defs
     id="defs29">
    <linearGradient
       id="b">
      <stop
         stop-color="#fff"
         offset="0"
         id="stop2" />
      <stop
         stop-color="#e6e6e6"
         offset="1"
         id="stop4" />
    </linearGradient>
    <linearGradient
       id="e"
       x1="540"
       x2="540"
       y1="-16"
       y2="1024"
       gradientUnits="userSpaceOnUse">
      <stop
         stop-color="#fff"
         offset="0"
         id="stop7" />
      <stop
         stop-color="#d7d7d7"
         offset="1"
         id="stop9" />
    </linearGradient>
    <linearGradient
       id="a"
       x1="515.89"
       x2="515.89"
       y1="400.29"
       y2="604.29"
       gradientUnits="userSpaceOnUse"
       xlink:href="#b" />
    <linearGradient
       id="d"
       x1="515.89"
       x2="515.89"
       y1="400.29"
       y2="604.29"
       gradientTransform="translate(-9.7524)"
       gradientUnits="userSpaceOnUse"
       xlink:href="#b" />
    <linearGradient
       id="c"
       x1="520"
       x2="520"
       y1="44"
       y2="984"
       gradientTransform="matrix(0.06355924,0,0,0.06355924,-0.542912,-0.542036)"
       gradientUnits="userSpaceOnUse">
      <stop
         stop-color="#73df1a"
         offset="0"
         id="stop14" />
      <stop
         stop-color="#65d11f"
         offset=".53205"
         id="stop16" />
      <stop
         stop-color="#4ab428"
         offset="1"
         id="stop18" />
    </linearGradient>
    <linearGradient
       x1="540"
       x2="540"
       y1="-16"
       y2="1024"
       gradientUnits="userSpaceOnUse"
       xlink:href="#b"
       id="linearGradient21" />
    <filter
       id="g"
       x="-.034454"
       y="-.037691"
       width="1.0689"
       height="1.0754"
       color-interpolation-filters="sRGB">
      <feGaussianBlur
         stdDeviation="3.5841291"
         id="feGaussianBlur23" />
    </filter>
    <filter
       id="f"
       x="-.036"
       y="-.036"
       width="1.072"
       height="1.072"
       color-interpolation-filters="sRGB">
      <feGaussianBlur
         stdDeviation="14.115"
         id="feGaussianBlur26" />
    </filter>
    <linearGradient
       inkscape:collect="always"
       xlink:href="#b"
       id="linearGradient62"
       gradientUnits="userSpaceOnUse"
       x1="515.89"
       y1="400.29"
       x2="515.89"
       y2="604.29" />
    <linearGradient
       inkscape:collect="always"
       xlink:href="#b"
       id="linearGradient64"
       gradientUnits="userSpaceOnUse"
       x1="515.89"
       y1="400.29"
       x2="515.89"
       y2="604.29" />
    <linearGradient
       inkscape:collect="always"
       xlink:href="#b"
       id="linearGradient66"
       gradientUnits="userSpaceOnUse"
       x1="515.89"
       y1="400.29"
       x2="515.89"
       y2="604.29" />
  </defs>
  <g
     style="fill:url(#e);stroke-width:15.68299961"
     transform="matrix(0.06351269,0,0,0.06351269,-0.486716,-0.550476)"
     id="shadow" />
  <path
     inkscape:connector-curvature="0"
     style="fill:url(#c);stroke-width:0.99679136"
     id="path34"
     d="m 61.090897,24.373151 c -0.06992,-0.276485 -0.149362,-0.572035 -0.231991,-0.864422 -0.158901,-0.556145 -0.340043,-1.11864 -0.53708,-1.674773 C 59.911868,20.673998 59.422463,19.542669 58.850454,18.423965 58.60893,17.953624 58.345159,17.473783 58.068668,17.000223 56.778444,14.807448 55.157678,12.729062 53.215933,10.787317 48.601541,6.172925 43.227616,3.373072 37.094349,2.394326 36.061532,2.229074 35.009587,2.114665 33.913199,2.054283 c -0.616527,-0.03496 -1.261658,-0.05403 -1.913115,-0.05403 -0.594281,0 -1.182211,0.01589 -1.773285,0.04767 -7.522003,0.387711 -14.002135,3.301915 -19.439758,8.73922 Q 2,19.574184 2,32.000122 c 0,8.285235 2.930055,15.358991 8.787041,21.216168 5.437496,5.434308 11.917118,8.348359 19.439758,8.73922 h 0.02542 C 30.792475,61.98411 31.307289,62 31.809415,62 h 0.19068 c 0.654644,0 1.302976,-0.01907 1.913115,-0.05085 0.158901,-0.0095 0.301907,-0.01907 0.441737,-0.0286 1.283911,-0.09216 2.536006,-0.257413 3.730906,-0.489405 0.505294,-0.09852 1.004251,-0.209745 1.487312,-0.327328 5.135583,-1.290224 9.670783,-3.915242 13.643155,-7.887997 3.089014,-3.089014 5.364425,-6.514564 6.823172,-10.284173 1.172647,-3.028632 1.820979,-6.279665 1.941744,-9.756224 0.01271,-0.384536 0.01907,-0.778598 0.01907,-1.175835 v -0.127116 -0.06356 c -0.01271,-2.5837 -0.314621,-5.052947 -0.908927,-7.436562 z" />
  <g
     style="fill:url(#a);stroke-width:15.68299961"
     transform="matrix(0.15687851,0,0,0.15687851,-51.102355,-44.893147)"
     id="ico">
    <g
       style="overflow:visible;fill:url(#linearGradient66);stroke-width:15.68299961"
       id="g52"
       overflow="visible"
       transform="matrix(1.1388,0,0,1.1388,-44.949,-84.382)">
      <g
         style="fill:url(#linearGradient64);stroke-width:15.68299961"
         id="g50">
        <g
           style="fill:url(#linearGradient62);stroke-width:15.68299961"
           id="g48">
          <path
             inkscape:connector-curvature="0"
             style="fill:url(#d);stroke-width:15.68299961"
             id="path46"
             d="m 499.9,461.7 c 36.55,21.1 69.75,51 85.65,79.7 1.75,2.85 3.05,4.45 5.8,6 6.8,3.95 15.7,2.15 19.95,-5.25 0.4,-0.65 0.7,-1.3 1,-1.95 1.5,-4.65 1.3,-8.9 -1.75,-13.95 -1.3,-2.3 -2.7,-4.55 -4.3,-7.05 -20.3,-31.55 -54,-60.85 -91.8,-82.65 -24.35,-14.05 -46.55,-23.2 -69,-28.75 -5.75,-1.4 -11.75,0.6 -15.6,5.75 -0.2,0.25 -0.35,0.5 -0.55,0.8 -4.15,7.2 -1.9,16 5.3,20.15 0.55,0.35 1.25,0.65 2.05,1 0.55,0.2 1.2,0.4 1.9,0.65 0.9,0.25 2.15,0.55 3.8,0.9 19.65,5.2 39.25,14.1 57.55,24.65 z m -86.7,1.65 c -3.35,5.85 -1.4,13.3 4.4,16.65 0.55,0.35 1.2,0.65 1.85,0.9 0.5,0.15 1.05,0.35 1.65,0.5 0.8,0.2 2.1,0.5 3.95,0.85 14.05,3.8 30.2,9.9 47.25,19.75 33.25,19.2 58.55,45.35 72.95,71 1.3,2.35 2.5,4.55 5.4,6.25 5.85,3.4 13.2,1.35 16.55,-4.45 0.25,-0.4 0.45,-0.75 0.65,-1.1 1.85,-5.2 1.25,-7.8 -1.05,-12.05 -16.35,-29.5 -44.9,-59.05 -82.25,-80.65 -3.45,-2 -6.85,-3.85 -10.4,-5.65 -15.9,-8.1 -31.7,-13.85 -46.35,-17.4 -5.9,-1.55 -10.7,0.3 -13.7,4 -0.3,0.5 -0.6,0.9 -0.9,1.4 z m -5.4,39.75 c -4,-1.5 -8.35,-0.8 -11.5,2.6 -0.3,0.4 -0.65,0.95 -0.95,1.45 -1.8,3.15 -1.8,7 -0.1,9.7 0.85,1.45 2.05,2.7 3.65,3.65 0.05,0 0.05,0 0.1,0.05 1.65,0.95 4.9,1.7 7.4,2.5 15.25,5.05 30.8,11.55 45.2,19.9 25.8,14.9 46.5,35.1 59.25,58.2 1.3,2.4 2.4,4.1 4.55,5.35 4.4,2.55 10.4,1.2 13.2,-3.65 0.3,-0.5 0.55,-0.95 0.75,-1.4 0.4,-1.25 0.6,-2.4 0.6,-3.45 0,-1.7 -0.5,-3.45 -1.45,-5.2 -7.2,-13.15 -16.3,-25.2 -27.25,-36.2 -11.15,-11.2 -24.1,-21.1 -38.75,-29.7 -0.35,-0.25 -0.75,-0.45 -1.1,-0.65 C 441.7,514.9 423.25,508.1 407.8,503.1 Z" />
        </g>
      </g>
    </g>
  </g>
</svg>
