<?xml version="1.0" encoding="utf-8"?>
<!-- Generator: Adobe Illustrator 23.0.6, SVG Export Plug-In . SVG Version: 6.00 Build 0)  -->
<svg version="1.1" id="Layer_1" xmlns="http://www.w3.org/2000/svg" xmlns:xlink="http://www.w3.org/1999/xlink" x="0px" y="0px"
	 viewBox="0 0 64 64" style="enable-background:new 0 0 64 64;" xml:space="preserve">
<style type="text/css">
	.st0{fill-rule:evenodd;clip-rule:evenodd;stroke:#FFFFFF;stroke-width:4;stroke-miterlimit:10;}
	.st1{opacity:0.15;fill-rule:evenodd;clip-rule:evenodd;enable-background:new    ;}
	.st2{fill-rule:evenodd;clip-rule:evenodd;fill:#0D96DD;}
	.st3{fill-rule:evenodd;clip-rule:evenodd;fill:url(#SVGID_1_);}
	.st4{opacity:0.25;fill-rule:evenodd;clip-rule:evenodd;enable-background:new    ;}
	.st5{fill-rule:evenodd;clip-rule:evenodd;fill:url(#SVGID_2_);}
	.st6{opacity:0.15;fill-rule:evenodd;clip-rule:evenodd;fill:url(#SVGID_3_);enable-background:new    ;}
	.st7{opacity:0.15;fill-rule:evenodd;clip-rule:evenodd;fill:url(#SVGID_4_);enable-background:new    ;}
</style>
<path class="st0" d="M57.3,10.2L45.9,4.6c-0.3-0.1-0.5-0.2-0.8-0.2c-0.2,0-0.4,0-0.6,0l0,0l0,0l0,0c-0.6,0.1-1.2,0.3-1.7,0.6
	c-0.2,0.1-0.4,0.2-0.7,0.5L24.4,21.9l-3.8,3.5l-8.9-6.8c-0.6-0.5-2.2-1.6-3.5-0.3l-3.5,3.3c-0.9,0.9-0.4,2,0.3,2.7l0,0l8.4,7.7
	L5,39.7l0,0c-0.7,0.7-1.2,1.8-0.3,2.7l3.5,3.3c1.4,1.3,2.9,0.2,3.5-0.3l8.9-6.8L42,58.4c0.3,0.2,0.5,0.4,0.8,0.6
	c0.6,0.4,1.5,0.7,2.2,0.6c0.3,0,0.5-0.1,0.8-0.2l0,0l0,0l11.4-5.6c1.2-0.6,2.5-1.1,2.5-2.5V12.7C59.8,11.3,58.5,10.8,57.3,10.2z
	 M29.3,32l16.6-12.7v25.5L29.3,32z"/>
<g transform="translate(-46.001 .0006897)">
	<path class="st1" d="M90.5,4.4c-0.6,0.1-1.2,0.3-1.7,0.6l0,0c-0.2,0.1-0.5,0.3-0.7,0.5l-37,34.2c-0.7,0.7-1.2,1.8-0.3,2.7l3.5,3.3
		c1.4,1.3,2.9,0.2,3.5-0.3L92,19.2v25.5l-2.8,2.1c-2.2,1.6,0.2,10.9-0.4,12.1c0.6,0.4,1.6,0.8,2.4,0.7c0.3,0,0.5-0.1,0.8-0.2
		l11.4-5.6c1.2-0.6,2.5-1.1,2.5-2.5V12.7c0-1.4-1.3-1.9-2.5-2.5L91.9,4.6c-0.3-0.1-0.5-0.2-0.8-0.2C90.9,4.3,90.7,4.3,90.5,4.4
		L90.5,4.4z"/>
	<path class="st2" d="M90.5,4.4c-0.6,0.1-1.2,0.3-1.7,0.6c0.9,1.1-0.9,11.7,1.4,13.1l1.8,1.1v25.5l-2.8,2.1
		c-2.2,1.6,0.2,10.9-0.4,12.1c0.6,0.4,1.6,0.8,2.4,0.7c0.3,0,0.5-0.1,0.8-0.2l11.4-5.6c1.2-0.6,2.5-1.1,2.5-2.5V12.7
		c0-1.4-1.3-1.9-2.5-2.5L91.9,4.6c-0.3-0.1-0.5-0.2-0.8-0.2C90.9,4.3,90.7,4.4,90.5,4.4L90.5,4.4z"/>
	
		<linearGradient id="SVGID_1_" gradientUnits="userSpaceOnUse" x1="184.1245" y1="968.5856" x2="144.2819" y2="1002.438" gradientTransform="matrix(1 0 0 1 -92.002 -958)">
		<stop  offset="0" style="stop-color:#007ABB"/>
		<stop  offset="1" style="stop-color:#006CAF"/>
	</linearGradient>
	<path class="st3" d="M51.1,39.7l37-34.2c1.7-1.6,3.9-1,3.9,2.2v11.5L57.7,45.4c-0.6,0.5-2.2,1.6-3.5,0.3l-3.5-3.3
		C49.8,41.6,50.3,40.4,51.1,39.7L51.1,39.7z"/>
	<path class="st4" d="M51.1,24.2l37,34.2c1.7,1.6,3.9,1,3.9-2.2V44.7L57.7,18.6c-0.6-0.5-2.2-1.6-3.5-0.3l-3.5,3.3
		C49.8,22.4,50.3,23.6,51.1,24.2L51.1,24.2z"/>
	
		<linearGradient id="SVGID_2_" gradientUnits="userSpaceOnUse" x1="186.3179" y1="1013.4607" x2="144.743" y2="975.3503" gradientTransform="matrix(1 0 0 1 -92.002 -958)">
		<stop  offset="0" style="stop-color:#0080CE"/>
		<stop  offset="1" style="stop-color:#008FD5"/>
	</linearGradient>
	<path class="st5" d="M51.1,24.2l37,34.2c1.7,1.6,3.9,1,3.9-2.2V44.7L57.7,18.6c-0.6-0.5-2.2-1.6-3.5-0.3l-3.5,3.3
		C49.8,22.4,50.3,23.6,51.1,24.2L51.1,24.2z"/>
	
		<linearGradient id="SVGID_3_" gradientUnits="userSpaceOnUse" x1="183.8598" y1="983.4787" x2="178.663" y2="983.4787" gradientTransform="matrix(1 0 0 1 -92.002 -958)">
		<stop  offset="0" style="stop-color:#000000"/>
		<stop  offset="1" style="stop-color:#000000;stop-opacity:0"/>
	</linearGradient>
	<path class="st6" d="M51.1,39.7l37-34.2c1.7-1.6,3.9-1,3.9,2.2v11.5L57.7,45.4c-0.6,0.5-2.2,1.6-3.5,0.3l-3.5-3.3
		C49.8,41.6,50.3,40.4,51.1,39.7L51.1,39.7z"/>
	
		<linearGradient id="SVGID_4_" gradientUnits="userSpaceOnUse" x1="183.8598" y1="996.4714" x2="178.663" y2="996.4714" gradientTransform="matrix(1 0 0 1 -92.002 -958)">
		<stop  offset="0" style="stop-color:#000000"/>
		<stop  offset="1" style="stop-color:#000000;stop-opacity:0"/>
	</linearGradient>
	<path class="st7" d="M51.1,24.2l37,34.2c1.7,1.6,3.9,1,3.9-2.2V44.7L57.7,18.6c-0.6-0.5-2.2-1.6-3.5-0.3l-3.5,3.3
		C49.8,22.4,50.3,23.6,51.1,24.2L51.1,24.2z"/>
</g>
</svg>
