<?xml version="1.0" encoding="utf-8"?>
<!-- Generator: Adobe Illustrator 23.0.2, SVG Export Plug-In . SVG Version: 6.00 Build 0)  -->
<svg version="1.1" id="settings" image-rendering="optimizeSpeed"
	 xmlns="http://www.w3.org/2000/svg" xmlns:xlink="http://www.w3.org/1999/xlink" x="0px" y="0px" viewBox="0 0 64 64"
	 style="enable-background:new 0 0 64 64;" xml:space="preserve">
<style type="text/css">
	.st0{fill:#353535;}
	.st1{opacity:0.2;fill:url(#SVGID_1_);enable-background:new    ;}
	.st2{opacity:0.33;enable-background:new    ;}
	.st3{fill:url(#SVGID_2_);}
	.st4{fill:url(#SVGID_3_);}
	.st5{fill:url(#SVGID_4_);}
	.st6{fill:url(#SVGID_5_);}
	.st7{fill:url(#SVGID_6_);}
	.st8{fill:url(#SVGID_7_);}
</style>
<path class="st0" d="M56.8,57.7H7.2c-2.1,0-3.8-1.9-3.8-4.3V10.5c0-2.4,1.7-4.3,3.8-4.3h49.6c2.1,0,3.8,1.9,3.8,4.3v43
	C60.6,55.8,58.9,57.7,56.8,57.7z"/>
<radialGradient id="SVGID_1_" cx="32.0011" cy="1045.9998" r="16.4698" gradientTransform="matrix(1 0 0 1 0 -1014)" gradientUnits="userSpaceOnUse">
	<stop  offset="0.4798" style="stop-color:#E3E3E3"/>
	<stop  offset="0.7736" style="stop-color:#6E6E6E"/>
</radialGradient>
<path class="st1" d="M42.8,31.2c0-0.1,0-0.1-0.1-0.1L42.6,31l-1.5-0.2c-0.1-0.9-0.4-1.8-0.7-2.6l1.2-1c0.1-0.3,0.1-0.1,0.1-0.1
	c0-0.1,0-0.1,0-0.2l-0.1-0.1l0,0l0,0l-0.6-1l-0.1-0.1c-0.1,0-0.1,0-0.2,0l-1.4,0.6c-0.5-0.7-1.2-1.4-1.9-1.9l0.5-1.5
	c-0.1-0.3,0-0.1,0-0.2s0-0.1-0.1-0.1l-0.1-0.1l-1-0.5c-0.1,0-0.1,0-0.2,0c-0.1,0-0.1,0.1-0.1,0.1l-0.9,1.3c-0.8-0.3-1.6-0.6-2.5-0.7
	c-0.1,0-0.1,0-0.2,0l-0.3-1.5c-0.2-0.2,0-0.1-0.1-0.1L32.3,21l0,0h-1.2C31,21,31,21,31,21.1l-0.1,0.1l-0.2,1.5
	c-0.9,0.1-1.8,0.4-2.7,0.7l-0.9-1.2L27,22.1c-0.1,0-0.1,0-0.2,0L25.9,23l-0.1,0.1c0,0.1,0,0.1,0,0.2l0.6,1.4c-0.7,0.6-1.4,1.2-1.9,2
	l-1.4-0.6c-0.1,0-0.1,0-0.2,0s-0.1,0-0.1,0.1l-0.6,1.1c0,0.1,0,0.1,0,0.2s0.1,0.1,0.1,0.1l1.2,0.9c-0.3,0.8-0.6,1.6-0.7,2.4
	c0,0.1,0,0.2,0,0.2l-1.5,0.2c-0.1,0-0.1,0-0.1,0.1l-0.1,0.1v1.2c0,0.1,0,0.1,0.1,0.1l0.1,0.1l1.5,0.2c0.1,0.9,0.4,1.8,0.7,2.6
	l-1.2,0.9l-0.1,0.1c0,0.1,0,0.1,0,0.2l0.6,1.1l0.1,0.1c0.1,0,0.1,0,0.2,0l1.4-0.6c0.6,0.7,1.2,1.4,2,1.9l-0.6,1.4c0,0.1,0,0.1,0,0.2
	c0,0.1,0,0.1,0.1,0.1l1.1,0.6c0.1,0,0.1,0,0.2,0s0.1-0.1,0.1-0.1l0.9-1.2c0.8,0.3,1.6,0.6,2.4,0.7c0.1,0,0.2,0,0.2,0l0.2,1.5
	c0,0.1,0,0.1,0.1,0.1l0.1,0.1h1.2c0.1,0,0.1,0,0.1-0.1l0.1-0.1l0.2-1.5c0.9-0.1,1.8-0.4,2.6-0.7l1,1.2c0.3,0.1,0.1,0.1,0.1,0.1
	c0.1,0,0.1,0,0.2,0l1.1-0.6L38,41c0-0.1,0-0.1,0-0.2l-0.6-1.4c0.7-0.5,1.4-1.2,1.9-1.9l1.5,0.5c0.3-0.1,0.1,0,0.2,0s0.1,0,0.1-0.1
	l0.6-1.1c0-0.1,0-0.1,0-0.2c0-0.1-0.1-0.1-0.1-0.1l-1.3-0.9c0.3-0.8,0.6-1.6,0.7-2.4c0-0.1,0-0.1,0-0.2l1.5-0.3
	c0.2-0.2,0.1,0,0.1-0.1l0.1-0.1L42.8,31.2z M32,39c-3.9,0-7-3.2-7-7s3.2-7,7-7s7,3.2,7,7S35.9,39,32,39z"/>
<g class="st2">
	<radialGradient id="SVGID_2_" cx="31.7097" cy="31.6008" r="33.4204" gradientUnits="userSpaceOnUse">
		<stop  offset="0" style="stop-color:#E3E3E3"/>
		<stop  offset="1" style="stop-color:#6E6E6E"/>
	</radialGradient>
	<path class="st3" d="M21.8,27.3c-0.1-0.2-0.3-0.5-0.4-0.5l-3.7-0.1c-0.3,0-0.5-0.2-0.6-0.4l-0.5-1.8c-0.1-0.2,0-0.5,0.3-0.7
		l3.1-1.9c0.2-0.1,0.3-0.3,0.2-0.5l-0.6-1.6c-0.1-0.2-0.3-0.3-0.5-0.2l-3.6,0.7c-0.2,0.1-0.5,0-0.7-0.3l-0.9-1.7
		c-0.1-0.2-0.1-0.5,0.2-0.7l2.6-2.6c0.3-0.2,0.2-0.4,0-0.7l-1-1.4c-0.1-0.2-0.4-0.2-0.6-0.1l-3.3,1.6c-0.2,0.1-0.5,0.1-0.7-0.2
		l-1.3-1.4c-0.1-0.2-0.3-0.5,0-0.7l1.8-3.3c0.1-0.3,0-0.5-0.2-0.7L9.7,6.8c-0.3-0.1-0.4-0.2-0.7,0L6.4,9.3c-0.2,0.1-0.5,0.1-0.7,0
		l-1.6-1v6.7c1.5,1.2,2.9,2.6,4,4.2c3.5,4.6,4.7,10.2,3.9,15.6c-0.2,1.2-1.5,1.9-2.9,1.3c-1.4-0.6-3.2-1.3-5.1-2.1v6.4
		c0.9,0.4,1.7,0.8,2.5,1.2c1.4,0.6,1.6,2.2,0.8,3.3c0.1,0.1,0.5-0.4-0.2,0.4c-0.9,1.1-2,2.1-3.1,3v6.3l0.4-0.2
		c0.2-0.1,0.5-0.1,0.7,0.2l2.6,2.6C7.9,57.2,8,57.3,8,57.3h0.2c0.1,0,0.2-0.1,0.3-0.2l1.4-1c0.2-0.1,0.2-0.4,0.1-0.6l-1.6-3.3
		c-0.1-0.2-0.1-0.5,0.2-0.7l1.4-1.3c0.2-0.1,0.5-0.3,0.7,0l3.3,1.8c0.3,0.1,0.5,0,0.7-0.2l1.1-1.5c0.1-0.3,0.2-0.4,0-0.7l-2.4-2.7
		c-0.1-0.2-0.1-0.5,0-0.7l1.1-1.7c0.1-0.3,0.5-0.3,0.6-0.2l3.5,0.9c0.3,0.1,0.5-0.1,0.6-0.2l0.7-1.6c0-0.5,0-0.7-0.2-0.7l-3.2-2
		c-0.3-0.1-0.3-0.5-0.2-0.6l0.6-2c0.1-0.3,0.3-0.4,0.5-0.4l3.7,0c0.2-0.1,0.4-0.2,0.5-0.4l0.3-1.8c0.1-0.3-0.1-0.5-0.4-0.6l-3.5-1
		c-0.3-0.1-0.3-0.3-0.4-0.5l0-1.9c-0.1-0.2,0.2-0.5,0.4-0.6l3.6-1c0.2-0.1,0.5-0.3,0.4-0.5L21.8,27.3z"/>
	<radialGradient id="SVGID_3_" cx="4.0775" cy="6.6928" r="4.315837e-05" gradientUnits="userSpaceOnUse">
		<stop  offset="0" style="stop-color:#E3E3E3"/>
		<stop  offset="1" style="stop-color:#6E6E6E"/>
	</radialGradient>
	<polygon class="st4" points="4.1,6.7 4.1,6.7 4.1,6.7 	"/>
</g>
<g class="st2">
	
		<radialGradient id="SVGID_4_" cx="31.7097" cy="31.5806" r="35.097" gradientTransform="matrix(-1 0 0 1 64.099 0)" gradientUnits="userSpaceOnUse">
		<stop  offset="0" style="stop-color:#E3E3E3"/>
		<stop  offset="1" style="stop-color:#6E6E6E"/>
	</radialGradient>
	<path class="st5" d="M42.3,27.3c0.1-0.2,0.3-0.5,0.4-0.5l3.7-0.1c0.3,0,0.5-0.2,0.6-0.4l0.5-1.8c0.1-0.2,0-0.5-0.3-0.7l-3.1-1.9
		c-0.2-0.1-0.3-0.3-0.2-0.5l0.6-1.6c0.1-0.2,0.3-0.3,0.5-0.2l3.6,0.7c0.2,0.1,0.5,0,0.7-0.3l0.9-1.7c0.1-0.2,0.1-0.5-0.2-0.7
		l-2.6-2.6c-0.3-0.2-0.2-0.4,0-0.7l1-1.4c0.1-0.2,0.4-0.2,0.6-0.1l3.3,1.6c0.2,0.1,0.5,0.1,0.7-0.2l1.3-1.4c0.1-0.2,0.3-0.5,0-0.7
		l-1.8-3.3c-0.1-0.3,0-0.5,0.2-0.7l1.5-1.1c0.3-0.1,0.4-0.2,0.7,0l2.7,2.4c0.2,0.1,0.5,0.1,0.7,0l1.6-1v6.7c-1.5,1.2-2.9,2.6-4,4.2
		c-3.5,4.6-4.7,10.2-3.9,15.6c0.2,1.2,1.5,1.9,2.9,1.3c1.4-0.6,3.2-1.3,5.1-2.1v6.4c-0.9,0.4-1.7,0.8-2.5,1.2
		c-1.4,0.6-1.6,2.2-0.8,3.3c-0.1,0.1-0.5-0.4,0.2,0.4c0.9,1.1,2,2.1,3.1,3v6.3l-0.4-0.2c-0.2-0.1-0.5-0.1-0.7,0.2l-2.6,2.6
		c-0.1,0.1-0.1,0.1-0.2,0.1h-0.2c-0.1,0-0.2-0.1-0.3-0.2l-1.4-1c-0.2-0.1-0.2-0.4-0.1-0.6l1.6-3.3c0.1-0.2,0.1-0.5-0.2-0.7l-1.4-1.3
		c-0.2-0.1-0.5-0.3-0.7,0l-3.3,1.8c-0.3,0.1-0.5,0-0.7-0.2l-1.1-1.5c-0.1-0.3-0.2-0.4,0-0.7l2.4-2.7c0.1-0.2,0.1-0.5,0-0.7l-1.1-1.7
		c-0.1-0.3-0.5-0.3-0.6-0.2l-3.5,0.9c-0.3,0.1-0.5-0.1-0.6-0.2l-0.7-1.6c0-0.5,0-0.7,0.2-0.7l3.2-2c0.3-0.1,0.3-0.5,0.2-0.6l-0.6-2
		c-0.1-0.3-0.3-0.4-0.5-0.4l-3.7,0c-0.2-0.1-0.4-0.2-0.5-0.4l-0.3-1.8c-0.1-0.3,0.1-0.5,0.4-0.6l3.5-1c0.3-0.1,0.3-0.3,0.4-0.5
		l0-1.9c0.1-0.2-0.2-0.5-0.4-0.6l-3.6-1c-0.2-0.1-0.5-0.3-0.4-0.5L42.3,27.3z"/>
	
		<radialGradient id="SVGID_5_" cx="4.1098" cy="6.6928" r="4.315837e-05" gradientTransform="matrix(-1 0 0 1 64.099 0)" gradientUnits="userSpaceOnUse">
		<stop  offset="0" style="stop-color:#E3E3E3"/>
		<stop  offset="1" style="stop-color:#6E6E6E"/>
	</radialGradient>
	<polygon class="st6" points="60,6.7 60,6.7 60,6.7 	"/>
</g>
<linearGradient id="SVGID_6_" gradientUnits="userSpaceOnUse" x1="32.1231" y1="1071.8384" x2="31.8885" y2="1022.8218" gradientTransform="matrix(1 0 0 1 0 -1014)">
	<stop  offset="0" style="stop-color:#6E6E6E"/>
	<stop  offset="2.772886e-02" style="stop-color:#747474"/>
	<stop  offset="0.2365" style="stop-color:#9B9B9B"/>
	<stop  offset="0.4421" style="stop-color:#BBBBBB"/>
	<stop  offset="0.641" style="stop-color:#D1D1D1"/>
	<stop  offset="0.8304" style="stop-color:#DEDEDE"/>
	<stop  offset="1" style="stop-color:#E3E3E3"/>
</linearGradient>
<path class="st7" d="M55,31l-2.8-0.4c-0.2,0-0.3-0.2-0.3-0.3l-0.2-1.6c0-0.2,0.1-0.3,0.2-0.4l2.6-1.1c0.1-0.1,0.2-0.2,0.2-0.4
	l-0.3-1.3c0-0.2-0.2-0.3-0.4-0.3l-2.7,0.3c-0.2,0-0.3-0.1-0.4-0.2l-0.6-1.3c-0.1-0.1,0-0.4,0.1-0.6l2.1-1.8c0.1-0.1,0.2-0.3,0.1-0.4
	l-0.7-1.1c-0.1-0.1-0.3-0.2-0.4-0.2l-2.6,1c-0.2,0.1-0.4,0-0.6-0.1l-0.9-1.1c-0.1-0.1-0.1-0.3,0-0.6l1.6-2.2c0.1-0.1,0.1-0.3,0-0.4
	L48,15.2c-0.1-0.1-0.3-0.1-0.4,0l-2.2,1.6c-0.1,0.1-0.3,0.1-0.6,0l-1.1-0.9c-0.1-0.1-0.2-0.3-0.1-0.6l1-2.6l0,0
	c0.1-0.2,0-0.3-0.2-0.4l-1.1-0.7c-0.1-0.1-0.3,0-0.4,0.1L41,13.8c-0.1,0.1-0.3,0.2-0.6,0.1l-1.3-0.6c-0.1-0.1-0.3-0.2-0.2-0.4
	l0.2-2.8c0-0.2-0.1-0.3-0.3-0.4l-1.3-0.3c-0.2,0-0.3,0-0.4,0.2L35.8,12c-0.1,0.1-0.3,0.2-0.4,0.2L33.9,12c-0.2,0-0.3-0.2-0.3-0.3
	L33.1,9c0-0.2-0.2-0.3-0.3-0.3h-1.3c-0.2,0-0.3,0.1-0.3,0.3l-0.6,2.8c0,0.2-0.2,0.3-0.3,0.3l-1.6,0.2c-0.2,0-0.3-0.1-0.4-0.2
	l-1.1-2.6c-0.1-0.1-0.2-0.2-0.4-0.2l-1.3,0.3c-0.2,0-0.3,0.2-0.3,0.4l0.2,2.8c0,0.2-0.1,0.3-0.2,0.4l-1.3,0.6
	c-0.1,0.1-0.4,0-0.6-0.1l-1.8-2.1c-0.1-0.1-0.3-0.2-0.4-0.1l-1.1,0.7c-0.1,0.1-0.2,0.3-0.2,0.4l1,2.6c0.1,0.2,0,0.4-0.1,0.6
	l-1.1,0.9c-0.1,0.1-0.3,0.1-0.6,0l-2.2-1.6c-0.1-0.1-0.3-0.1-0.4,0l-0.9,0.9c-0.1,0.1-0.1,0.3,0,0.4l1.6,2.2c0.1,0.1,0.1,0.3,0,0.6
	l-0.9,1.1c-0.1,0.1-0.3,0.2-0.6,0.1l-2.5-0.9c-0.2-0.1-0.3,0-0.4,0.2L11.6,21c-0.1,0.1,0,0.3,0.1,0.4l2.1,1.8
	c0.1,0.1,0.2,0.3,0.1,0.6l-0.6,1.3c-0.1,0.1-0.2,0.3-0.4,0.2l-2.8-0.2c-0.2,0-0.3,0.1-0.4,0.3l-0.3,1.3c0,0.2,0,0.3,0.2,0.4l2.5,1.1
	c0.1,0.1,0.2,0.3,0.2,0.4L12,30.3c0,0.2-0.2,0.3-0.3,0.3L9,31.1c-0.2,0-0.3,0.2-0.3,0.3v1.3c0,0.2,0.1,0.3,0.3,0.3l2.7,0.4
	c0.2,0,0.3,0.2,0.3,0.3l0.2,1.5c0,0.2-0.1,0.3-0.2,0.4l-2.6,1.1c-0.1,0.1-0.2,0.2-0.2,0.4l0.3,1.3c0,0.2,0.2,0.3,0.4,0.3l2.8-0.2
	c0.2,0,0.3,0.1,0.4,0.2l0.6,1.3c0.1,0.1,0,0.4-0.1,0.6l-2.1,1.8c-0.1,0.1-0.2,0.3-0.1,0.4l0.7,1.1c0.1,0.1,0.3,0.2,0.4,0.2l2.6-1
	c0.2-0.1,0.4,0,0.6,0.1l0.9,1.1c0.1,0.1,0.1,0.3,0,0.6l-1.6,2.2c-0.1,0.1-0.1,0.3,0,0.4l0.9,0.9c0.1,0.1,0.3,0.1,0.4,0l2.2-1.6
	c0.1-0.1,0.3-0.1,0.6,0l1.1,0.9c0.1,0.1,0.2,0.3,0.1,0.6l-0.8,2.5c-0.1,0.2,0,0.3,0.2,0.4l1.1,0.7c0.1,0.1,0.3,0,0.4-0.1l1.8-2.1
	c0.1-0.1,0.3-0.2,0.6-0.1l1.3,0.6c0.1,0.1,0.3,0.2,0.2,0.4l-0.2,2.8c0,0.2,0.1,0.3,0.3,0.4l1.3,0.3c0.2,0,0.3,0,0.4-0.2l1.1-2.5
	c0.1-0.1,0.3-0.2,0.4-0.2l1.5,0.2c0.2,0,0.3,0.2,0.3,0.3l0.4,2.7c0,0.2,0.2,0.3,0.3,0.3h1.3c0.2,0,0.3-0.1,0.3-0.3l0.4-2.7
	c0-0.2,0.2-0.3,0.3-0.3l1.5-0.2c0.2,0,0.3,0.1,0.4,0.2l1.1,2.6c0.1,0.1,0.2,0.2,0.4,0.2l1.3-0.3c0.2,0,0.3-0.2,0.3-0.4l-0.3-2.8
	c0-0.2,0.1-0.3,0.2-0.4l1.3-0.6c0.1-0.1,0.4,0,0.6,0.1l1.8,2.1c0.1,0.1,0.3,0.2,0.4,0.1l1.1-0.7c0.1-0.1,0.2-0.3,0.2-0.4l-1-2.6
	c-0.1-0.2,0-0.4,0.1-0.6l1.1-0.9c0.1-0.1,0.3-0.1,0.6,0l2.2,1.6c0.1,0.1,0.3,0.1,0.4,0l0.9-0.9c0.1-0.1,0.1-0.3,0-0.4l-1.6-2.2
	c-0.1-0.1-0.1-0.3,0-0.6l0.9-1.1c0.1-0.1,0.3-0.2,0.6-0.1l2.6,1c0.2,0.1,0.3,0,0.4-0.2l0.7-1.1c0.1-0.1,0-0.3-0.1-0.4L50.2,41
	c-0.1-0.1-0.2-0.3-0.1-0.6l0.6-1.3c0.1-0.1,0.2-0.3,0.4-0.2l2.8,0.2c0.2,0,0.3-0.1,0.4-0.3l0.3-1.3c0-0.2,0-0.3-0.2-0.4L52,35.8
	c-0.1-0.1-0.2-0.3-0.2-0.4l0.2-1.5c0-0.2,0.2-0.3,0.3-0.3l2.7-0.4c0.2,0,0.3-0.2,0.3-0.3v-1.3C55.2,31.1,55.1,31,55,31z M23.1,43.2
	C23,43.3,23.1,43.2,23.1,43.2L23.1,43.2z M23.3,43L23.3,43L23.3,43c-0.6,0.9-1.7,1.1-2.5,0.4l0,0c-2.9-2.8-4.7-6.7-4.7-11.1
	C16,28,17.6,24,20.5,21.1c0.6-0.6,0.2-0.2,0.2-0.2c0.8-0.8,1.9-0.6,2.6,0.3l0,0c1.7,2.7,5.2,8.2,5.2,8.2c0.8,1.2,0.8,3.3,0.1,4.6
	C28.4,34,24.9,40,23.3,43z M47.2,36.6c-1.1,3.8-3.7,7.3-7.5,9.3l0,0c-3.8,2.1-8.1,2.5-12,1.5c-1-0.3-1.3-1.3-0.9-2.2
	c1.7-3,5.2-9,5.2-9c0.8-1.2,2.5-2.2,3.9-2.2c0,0,6.5,0.2,9.8,0.3l0,0c1.1,0,1.8,1,1.6,2C47.4,36.3,47.5,35.8,47.2,36.6z M27.4,47.2
	L27.4,47.2L27.4,47.2z M27.5,47.4h0.1H27.5z M26.8,45.1L26.8,45.1L26.8,45.1z M30.3,32c0-0.9,0.8-1.7,1.7-1.7s1.7,0.8,1.7,1.7
	s-0.8,1.7-1.7,1.7S30.3,32.9,30.3,32z M46,29.6C46.1,29.6,46.1,29.6,46,29.6L46,29.6z M45.8,29.6C45.8,29.6,45.9,29.6,45.8,29.6
	C45.9,29.6,45.9,29.6,45.8,29.6c-3.5,0.1-10.3,0.2-10.3,0.2c-1.5,0-3.3-1-3.9-2.2c0,0-3.1-5.7-4.7-8.5l0,0c-0.6-1-0.1-2,0.9-2.4
	c0,0-0.4,0.1,0.3-0.1c3.9-1,8.2-0.6,11.9,1.7l0,0c3.8,2.1,6.3,5.6,7.4,9.5C47.6,28.7,46.9,29.6,45.8,29.6z"/>
<linearGradient id="SVGID_7_" gradientUnits="userSpaceOnUse" x1="32" y1="7.8795" x2="32" y2="60.8018" gradientTransform="matrix(1 0 0 -1 0 66)">
	<stop  offset="0" style="stop-color:#6E6E6E"/>
	<stop  offset="2.772886e-02" style="stop-color:#747474"/>
	<stop  offset="0.2365" style="stop-color:#9B9B9B"/>
	<stop  offset="0.4421" style="stop-color:#BBBBBB"/>
	<stop  offset="0.641" style="stop-color:#D1D1D1"/>
	<stop  offset="0.8304" style="stop-color:#DEDEDE"/>
	<stop  offset="1" style="stop-color:#E3E3E3"/>
</linearGradient>
<path class="st8" d="M57.6,7.6c1,0,1.8,0.9,1.8,2.1v44.6c0,1.1-0.8,2.1-1.8,2.1H6.4c-1,0-1.8-0.9-1.8-2.1V9.7c0-1.1,0.8-2.1,1.8-2.1
	H57.6 M57.6,5.3H6.4c-2.1,0-3.8,1.9-3.8,4.3v44.6c0,2.4,1.7,4.3,3.8,4.3h51.2c2.1,0,3.8-1.9,3.8-4.3V9.7C61.4,7.3,59.7,5.3,57.6,5.3
	L57.6,5.3z"/>
</svg>
