<?xml version="1.0" encoding="utf-8"?>
<!-- Generator: Adobe Illustrator 23.0.2, SVG Export Plug-In . SVG Version: 6.00 Build 0)  -->
<svg version="1.1" id="Apps-Visual-Studio-Code" image-rendering="optimizeSpeed"
	 xmlns="http://www.w3.org/2000/svg" xmlns:xlink="http://www.w3.org/1999/xlink" x="0px" y="0px" viewBox="0 0 64 64"
	 style="enable-background:new 0 0 64 64;" xml:space="preserve">
<style type="text/css">
	.st0{opacity:0.25;enable-background:new    ;}
	.st1{fill:url(#path_1_);}
	.st2{fill:#666666;}
	.st3{fill:url(#SVGID_1_);}
	.st4{opacity:0.75;fill:#050505;enable-background:new    ;}
	.st5{fill:#333333;}
	.st6{opacity:0.3;fill:url(#gear_1_);}
	.st7{fill:url(#gear_2_);}
	.st8{opacity:0.4;}
	.st9{fill:url(#SVGID_2_);}
	.st10{fill:url(#SVGID_3_);}
	.st11{fill:url(#SVGID_4_);}
	.st12{fill:url(#SVGID_5_);}
	.st13{fill:url(#SVGID_6_);}
	.st14{fill:url(#SVGID_7_);}
</style>
<g transform="matrix(.058825 0 0 .058825 1.8818 1.8825)">
	<path class="st0" d="M-2556.3-2240c-6.2-15-13.2-29.7-21-44.1c-4.4-8.2-9-16.3-13.9-24.2c-21.1-34.3-46.9-66.6-77.3-97
		c-99.6-99.6-219.8-149.4-360.7-149.4c-140.9,0-261.1,49.8-360.6,149.4c-99.6,99.6-149.4,219.8-149.4,360.6s49.8,261.1,149.4,360.7
		c99.6,99.6,219.8,149.3,360.6,149.3c140.8,0,261.1-49.8,360.7-149.3c54.8-54.9,94.6-116,119.2-183.4c20-54.9,30.1-114,30.1-177.3
		c0-48.5-5.9-94.6-17.7-138.3c-1.4-4.9-2.8-9.8-4.2-14.7C-2545.5-2212.1-2550.6-2226.2-2556.3-2240L-2556.3-2240z"/>
	
		<linearGradient id="path_1_" gradientUnits="userSpaceOnUse" x1="201419.9375" y1="-93781.6563" x2="201419.9375" y2="-94805.6406" gradientTransform="matrix(5.859499e-02 0 0 -5.859499e-02 -14831.3564 -8047.8999)">
		<stop  offset="0" style="stop-color:#FFFFFF"/>
		<stop  offset="1" style="stop-color:#D7D7D7"/>
	</linearGradient>
	<path id="path" class="st1" d="M-2556.3-2240c-6.2-15-13.2-29.7-21-44.1c-4.4-8.2-9-16.3-13.9-24.2c-21.1-34.3-46.9-66.6-77.3-97
		c-99.6-99.6-219.8-149.4-360.7-149.4c-140.9,0-261.1,49.8-360.6,149.4c-99.6,99.6-149.4,219.8-149.4,360.6s49.8,261.1,149.4,360.7
		c99.6,99.6,219.8,149.3,360.6,149.3c140.8,0,261.1-49.8,360.7-149.3c54.8-54.9,94.6-116,119.2-183.4c20-54.9,30.1-114,30.1-177.3
		c0-48.5-5.9-94.6-17.7-138.3c-1.4-4.9-2.8-9.8-4.2-14.7C-2545.5-2212.1-2550.6-2226.2-2556.3-2240L-2556.3-2240z"/>
	<circle class="st2" cx="-3029.2" cy="-2044.8" r="459"/>
	
		<radialGradient id="SVGID_1_" cx="205657.4531" cy="-104553.9688" r="470.1562" gradientTransform="matrix(5.742791e-02 0 0 -5.742791e-02 -14839.6328 -8049.0898)" gradientUnits="userSpaceOnUse">
		<stop  offset="0" style="stop-color:#000000;stop-opacity:0"/>
		<stop  offset="1" style="stop-color:#000000;stop-opacity:0.5259"/>
	</radialGradient>
	<circle class="st3" cx="-3029.2" cy="-2044.8" r="459"/>
	<path class="st4" d="M-2810.1-2373.3l-17.2,46c-1.1,3,0,7,2.6,9l20.3,15.5c2.5,1.9,6.7,2,9.3,0.1l39.9-28.5
		c2.6-1.9,6.6-1.5,8.9,0.7l16.7,16.7c2.3,2.3,2.6,6.2,0.7,8.9l-28.5,39.9c-1.9,2.6-1.8,6.8,0.2,9.3l15.5,20.3c1.9,2.5,6,3.7,9,2.6
		l45.9-17.2c3-1.1,6.8,0.2,8.4,3l11.8,20.5c1.7,2.9,0.9,6.7-1.6,8.8l-37.9,31.2c-2.5,2.1-3.5,6.1-2.3,9l9.7,23.6
		c1.2,2.9,4.8,5.1,8,4.8l48.9-4.7c3.2-0.3,6.5,1.9,7.3,5.1l6.1,22.8c0.9,3.2-0.9,6.7-3.8,8l-44.7,20.3c-2.9,1.3-5,5-4.5,8.2
		l3.3,25.3c0.4,3.1,3.3,6.2,6.5,6.7l48.4,8.1c3.2,0.5,5.7,3.6,5.7,6.8v23.6c0,3.3-2.6,6.3-5.7,6.8l-48.3,8.1
		c-3.2,0.5-6.1,3.5-6.5,6.7l-3.3,25.3c-0.4,3.1,1.6,6.8,4.5,8.2l44.6,20.3c2.9,1.3,4.6,4.9,3.8,8l-6.1,22.8
		c-0.9,3.2-4.1,5.4-7.3,5.1l-48.8-4.7c-3.2-0.3-6.8,1.8-8,4.8l-9.8,23.6c-1.2,2.9-0.2,7,2.3,9l37.9,31.2c2.5,2.1,3.2,6,1.6,8.8
		l-11.8,20.5c-1.7,2.9-5.4,4.1-8.4,3l-46-17.2c-3-1.1-7,0-9,2.6l-15.5,20.3c-1.9,2.5-2,6.7-0.1,9.3l28.5,39.9
		c1.9,2.6,1.5,6.6-0.7,8.9l-16.7,16.7c-2.3,2.3-6.2,2.6-8.9,0.7l-39.9-28.5c-2.6-1.9-6.8-1.8-9.3,0.2l-20.3,15.5
		c-2.5,1.9-3.7,6-2.6,9l17.2,45.9c1.1,3-0.2,6.8-3,8.4l-20.5,11.8c-2.9,1.7-6.7,0.9-8.8-1.6l-31.2-37.9c-2.1-2.5-6.1-3.5-9-2.3
		l-23.6,9.7c-2.9,1.2-5.1,4.8-4.8,8l4.7,48.9c0.3,3.2-1.9,6.5-5.1,7.3l-22.8,6.1c-3.2,0.9-6.7-0.9-8-3.8l-20.3-44.7
		c-1.3-2.9-5-5-8.2-4.5l-25.3,3.3c-3.1,0.4-6.2,3.3-6.7,6.5l-8.1,48.4c-0.5,3.2-3.6,5.7-6.8,5.7h-23.6c-3.3,0-6.3-2.6-6.8-5.7
		l-8.1-48.3c-0.5-3.2-3.5-6.1-6.7-6.5l-25.3-3.3c-3.1-0.4-6.8,1.6-8.2,4.5l-20.3,44.6c-1.3,2.9-4.9,4.6-8,3.8l-22.8-6.1
		c-3.2-0.9-5.4-4.1-5.1-7.3l4.7-48.8c0.3-3.2-1.8-6.8-4.8-8l-23.6-9.8c-2.9-1.2-7-0.2-9,2.3l-31.2,37.9c-2.1,2.5-5.9,3.2-8.8,1.6
		l-20.5-11.8c-2.9-1.7-4.1-5.4-3-8.4l17.2-46c1.1-3,0-7-2.6-9l-20.3-15.5c-2.5-1.9-6.7-2-9.3-0.1l-39.9,28.5
		c-2.6,1.9-6.6,1.5-8.9-0.7l-16.7-16.7c-2.3-2.3-2.6-6.2-0.7-8.9l28.5-39.9c1.9-2.6,1.8-6.8-0.2-9.3l-15.5-20.3
		c-1.9-2.5-6-3.7-9-2.6l-45.9,17.2c-3,1.1-6.8-0.2-8.4-3l-11.8-20.5c-1.7-2.9-0.9-6.7,1.6-8.8l37.9-31.2c2.5-2.1,3.5-6.1,2.3-9
		l-9.7-23.6c-1.2-2.9-4.8-5.1-8-4.8l-48.9,4.7c-3.2,0.3-6.5-1.9-7.3-5.1l-6.1-22.8c-0.9-3.2,0.9-6.7,3.8-8l44.7-20.3
		c2.9-1.3,5-5,4.5-8.2l-3.3-25.3c-0.4-3.1-3.3-6.2-6.5-6.7l-48.4-8.1c-3.2-0.5-5.7-3.6-5.7-6.8v-23.6c0-3.3,2.6-6.3,5.7-6.8
		l48.3-8.1c3.2-0.5,6.1-3.5,6.5-6.7l3.3-25.3c0.4-3.1-1.6-6.8-4.5-8.2l-44.6-20.3c-2.9-1.3-4.6-4.9-3.8-8l6.1-22.8
		c0.9-3.2,4.1-5.4,7.3-5.1l48.8,4.7c3.2,0.3,6.8-1.8,8-4.8l9.8-23.6c1.2-2.9,0.2-7-2.3-9l-37.9-31.2c-2.5-2.1-3.2-5.9-1.6-8.8
		l11.8-20.5c1.7-2.9,5.4-4.1,8.4-3l46,17.2c3,1.1,7,0,9-2.6l15.5-20.3c1.9-2.5,2-6.7,0.1-9.3l-28.5-39.9c-1.9-2.6-1.5-6.6,0.7-8.9
		l16.7-16.7c2.3-2.3,6.2-2.6,8.9-0.7l39.9,28.5c2.6,1.9,6.8,1.8,9.3-0.2l20.3-15.5c2.5-1.9,3.7-6,2.6-9l-17.2-45.9
		c-1.1-3,0.2-6.8,3-8.4l20.5-11.8c2.9-1.7,6.7-0.9,8.8,1.6l31.2,37.9c2.1,2.5,6.1,3.5,9,2.3l23.6-9.7c2.9-1.2,5.1-4.8,4.8-8
		l-4.7-48.9c-0.3-3.2,1.9-6.5,5.1-7.3l22.8-6.1c3.2-0.9,6.7,0.9,8,3.8l20.3,44.7c1.3,2.9,5,5,8.2,4.5l25.3-3.3
		c3.1-0.4,6.2-3.3,6.7-6.5l8.1-48.4c0.5-3.2,3.6-5.7,6.8-5.7h23.6c3.3,0,6.3,2.6,6.8,5.7l8.1,48.3c0.5,3.2,3.5,6.1,6.7,6.5l25.3,3.3
		c3.1,0.4,6.8-1.6,8.2-4.5l20.3-44.6c1.3-2.9,4.9-4.6,8-3.8l22.8,6.1c3.2,0.9,5.4,4.1,5.1,7.3l-4.7,48.8c-0.3,3.2,1.8,6.8,4.8,8
		l23.6,9.8c2.9,1.2,7,0.2,9-2.3l31.2-37.9c2.1-2.5,5.9-3.2,8.8-1.6l20.5,11.8C-2810.2-2380-2808.9-2376.3-2810.1-2373.3z
		 M-2888.4-2275.4c-66.3-38.3-141.8-46.6-210.6-29.2c-13.3,3.4-5.5,1.5-5.5,1.5c-18.5,6.3-25.8,25.3-16.5,42.3c0,0-5.4-9.8,0.4,0.7
		c27.6,50.3,82.8,151.1,82.8,151.1c12.5,22.8,43.7,40.8,69.7,40.3c0,0,122.4-2.5,183.6-3.8c11.4-0.2,0,0,0,0
		c18.8-0.4,31.1-16.2,27-34C-2776.6-2175.2-2821.6-2236.8-2888.4-2275.4L-2888.4-2275.4z M-2893-1784c67-37.1,113-97.5,133.5-165.5
		c3.9-13.1,1.5-5.5,1.5-5.5c4.1-19.1-8.4-35.2-27.7-35.9c0,0,11.2,0.5-0.9,0c-57.4-2.3-172.2-6.8-172.2-6.8c-26-1-57.5,16.4-70.4,39
		c0,0-60.8,106.2-91.3,159.3c-5.7,9.9,0,0,0,0c-9.4,16.4-2.1,35,15.3,40.6c0,0-10.9-3,0,0C-3036.4-1739.7-2960.4-1746.6-2893-1784
		L-2893-1784z M-3227-1828.9c13.5,12.2,33.4,9.2,42.8-7.1c0,0-5.7,9.8,0,0c30.8-52.9,92.3-158.7,92.3-158.7
		c13.1-22.5,12.4-58.5-1.4-80.5c0,0-61.3-97.1-92-145.7c-6.4-10.2-0.5-0.7-0.5-0.7c-10.3-16.4-30.5-19.2-45-6.1c0,0,5.4-5.9-4,4.1
		c-48.6,51.7-77.9,121.7-76.6,198.3C-3310-1948.3-3277.9-1879-3227-1828.9L-3227-1828.9z"/>
</g>
<path class="st5" d="M56.8,54.7H7.2c-2.1,0-3.8-1.7-3.8-3.8V13c0-2.1,1.7-3.8,3.8-3.8h49.6c2.1,0,3.8,1.7,3.8,3.8V51
	C60.6,53,58.9,54.7,56.8,54.7z"/>
<linearGradient id="gear_1_" gradientUnits="userSpaceOnUse" x1="32" y1="14.5262" x2="32" y2="42.0786" gradientTransform="matrix(0.7071 0.7071 -0.7071 0.7071 32 -13.2548)">
	<stop  offset="0" style="stop-color:#6E6E6E"/>
	<stop  offset="2.772886e-02" style="stop-color:#747474"/>
	<stop  offset="0.2365" style="stop-color:#9B9B9B"/>
	<stop  offset="0.4421" style="stop-color:#BBBBBB"/>
	<stop  offset="0.641" style="stop-color:#D1D1D1"/>
	<stop  offset="0.8304" style="stop-color:#DEDEDE"/>
	<stop  offset="1" style="stop-color:#E3E3E3"/>
</linearGradient>
<path id="gear_3_" class="st6" d="M42.5,29.7l-1.2,0.5c-0.1,0-0.1,0.1-0.1,0.2l0.1,0.7c0,0.1,0.1,0.2,0.2,0.2l1.3,0.2
	c0.1,0,0.2,0.1,0.2,0.2v0.6c0,0.1-0.1,0.2-0.2,0.2l-1.3,0.2c-0.1,0-0.2,0.1-0.2,0.2l-0.1,0.7c0,0.1,0,0.2,0.1,0.2l1.2,0.5
	c0.1,0,0.1,0.1,0.1,0.2l-0.2,0.6c0,0.1-0.1,0.1-0.2,0.1L41,35.1c-0.1,0-0.2,0-0.2,0.1l-0.3,0.6c0,0.1,0,0.2,0.1,0.2l1,0.8
	c0.1,0.1,0.1,0.2,0,0.2l-0.3,0.5c0,0.1-0.1,0.1-0.2,0.1l-1.2-0.5c-0.1,0-0.2,0-0.2,0.1L39.2,38c-0.1,0.1-0.1,0.2,0,0.2l0.8,1.1
	c0,0.1,0,0.2,0,0.2l-0.4,0.4c-0.1,0.1-0.2,0.1-0.2,0l-1.1-0.8c-0.1,0-0.2,0-0.2,0l-0.5,0.4c-0.1,0.1-0.1,0.2-0.1,0.2l0.5,1.2
	c0,0.1,0,0.2-0.1,0.2l-0.5,0.3c-0.1,0-0.2,0-0.2,0l-0.8-1c-0.1-0.1-0.2-0.1-0.2-0.1l-0.6,0.3c-0.1,0-0.1,0.1-0.1,0.2l0.1,1.3
	c0,0.1-0.1,0.2-0.1,0.2l-0.6,0.2c-0.1,0-0.2,0-0.2-0.1l-0.5-1.2c0-0.1-0.1-0.1-0.2-0.1l-0.7,0.1c-0.1,0-0.2,0.1-0.2,0.2l-0.2,1.3
	c0,0.1-0.1,0.2-0.2,0.2h-0.6c-0.1,0-0.2-0.1-0.2-0.2l-0.2-1.3c0-0.1-0.1-0.2-0.2-0.2l-0.7-0.1c-0.1,0-0.2,0-0.2,0.1l-0.5,1.2
	c0,0.1-0.1,0.1-0.2,0.1l-0.6-0.2c-0.1,0-0.1-0.1-0.1-0.2l0.1-1.3c0-0.1,0-0.2-0.1-0.2l-0.6-0.3c-0.1,0-0.2,0-0.2,0.1l-0.8,1
	c-0.1,0.1-0.2,0.1-0.2,0l-0.5-0.3c-0.1,0-0.1-0.1-0.1-0.2l0.5-1.2c0-0.1,0-0.2-0.1-0.2L26,39.2c-0.1-0.1-0.2-0.1-0.2,0L24.7,40
	c-0.1,0-0.2,0-0.2,0l-0.4-0.4c-0.1-0.1-0.1-0.2,0-0.2l0.8-1.1c0-0.1,0-0.2,0-0.2l-0.4-0.5c-0.1-0.1-0.2-0.1-0.2-0.1l-1.2,0.5
	c-0.1,0-0.2,0-0.2-0.1l-0.3-0.5c0-0.1,0-0.2,0-0.2l1-0.8c0.1-0.1,0.1-0.2,0.1-0.2l-0.3-0.6c0-0.1-0.1-0.1-0.2-0.1l-1.3,0.1
	c-0.1,0-0.2-0.1-0.2-0.1l-0.2-0.6c0-0.1,0-0.2,0.1-0.2l1.2-0.5c0.1,0,0.1-0.1,0.1-0.2l-0.1-0.7c0-0.1-0.1-0.2-0.2-0.2l-1.3-0.2
	c-0.1,0-0.2-0.1-0.2-0.2v-0.6c0-0.1,0.1-0.2,0.2-0.2l1.3-0.2c0.1,0,0.2-0.1,0.2-0.2l0.1-0.7c0-0.1,0-0.2-0.1-0.2l-1.2-0.5
	c-0.1,0-0.1-0.1-0.1-0.2l0.2-0.6c0-0.1,0.1-0.1,0.2-0.1l1.3,0.1c0.1,0,0.2,0,0.2-0.1l0.3-0.6c0-0.1,0-0.2-0.1-0.2l-1-0.8
	c-0.1-0.1-0.1-0.2,0-0.2l0.3-0.5c0-0.1,0.1-0.1,0.2-0.1l1.2,0.5c0.1,0,0.2,0,0.2-0.1l0.4-0.5c0.1-0.1,0.1-0.2,0-0.2L24,24.7
	c0-0.1,0-0.2,0-0.2l0.4-0.4c0.1-0.1,0.2-0.1,0.2,0l1.1,0.8c0.1,0,0.2,0,0.2,0l0.5-0.4c0.1-0.1,0.1-0.2,0.1-0.2l-0.5-1.2
	c0-0.1,0-0.2,0.1-0.2l0.5-0.3c0.1,0,0.2,0,0.2,0l0.8,1c0.1,0.1,0.2,0.1,0.2,0.1l0.6-0.3c0.1,0,0.1-0.1,0.1-0.2l-0.1-1.3
	c0-0.1,0.1-0.2,0.1-0.2l0.6-0.2c0.1,0,0.2,0,0.2,0.1l0.5,1.2c0,0.1,0.1,0.1,0.2,0.1l0.7-0.1c0.1,0,0.2-0.1,0.2-0.2l0.2-1.3
	c0-0.1,0.1-0.2,0.2-0.2h0.6c0.1,0,0.2,0.1,0.2,0.2l0.2,1.3c0,0.1,0.1,0.2,0.2,0.2l0.7,0.1c0.1,0,0.2,0,0.2-0.1l0.5-1.2
	c0-0.1,0.1-0.1,0.2-0.1l0.6,0.2c0.1,0,0.1,0.1,0.1,0.2L35.1,23c0,0.1,0,0.2,0.1,0.2l0.6,0.3c0.1,0,0.2,0,0.2-0.1l0.8-1
	c0.1-0.1,0.2-0.1,0.2,0l0.5,0.3c0.1,0,0.1,0.1,0.1,0.2l-0.5,1.2c0,0.1,0,0.2,0.1,0.2l0.5,0.4c0.1,0.1,0.2,0.1,0.2,0l1.1-0.8
	c0.1,0,0.2,0,0.2,0l0.4,0.4c0.1,0.1,0.1,0.2,0,0.2l-0.8,1.1c0,0.1,0,0.2,0,0.2l0.4,0.5c0.1,0.1,0.2,0.1,0.2,0.1l1.2-0.5
	c0.1,0,0.2,0,0.2,0.1l0.3,0.5c0,0.1,0,0.2,0,0.2l-1,0.8c-0.1,0.1-0.1,0.2-0.1,0.2l0.3,0.6c0,0.1,0.1,0.1,0.2,0.1l1.3-0.1
	c0.1,0,0.2,0.1,0.2,0.1l0.2,0.6C42.6,29.6,42.6,29.7,42.5,29.7L42.5,29.7z M39.2,30.1c-0.5-2-1.8-3.5-3.4-4.5
	c-0.3-0.2-0.1-0.1-0.1-0.1c-0.5-0.2-1,0-1.1,0.5c0,0,0.1-0.3,0,0c-0.4,1.5-1.3,4.4-1.3,4.4c-0.2,0.7,0.1,1.6,0.6,2.1
	c0,0,2.3,2.2,3.5,3.4c0.2,0.2,0,0,0,0c0.4,0.3,0.9,0.3,1.1-0.1C39.4,34,39.7,32,39.2,30.1L39.2,30.1z M29.9,39.2
	c2,0.6,3.9,0.3,5.6-0.6c0.3-0.2,0.1-0.1,0.1-0.1c0.4-0.3,0.5-0.8,0.2-1.2c0,0,0.2,0.2,0,0c-1-1.1-3.1-3.4-3.1-3.4
	c-0.5-0.5-1.4-0.8-2-0.6c0,0-3.1,0.8-4.7,1.3c-0.3,0.1,0,0,0,0c-0.5,0.1-0.7,0.6-0.5,1c0,0-0.1-0.3,0,0C26.4,37.3,28,38.6,29.9,39.2
	L29.9,39.2z M24.5,32.1c0,0.5,0.5,0.8,0.9,0.7c0,0-0.3,0.1,0,0c1.6-0.4,4.7-1.2,4.7-1.2c0.7-0.2,1.3-0.9,1.5-1.5c0,0,0.7-3,1-4.5
	c0.1-0.3,0,0,0,0c0.1-0.5-0.2-0.9-0.7-1c0,0,0.2,0-0.2,0c-1.9,0.1-3.7,0.8-5.1,2.3C25.2,28.3,24.5,30.2,24.5,32.1L24.5,32.1z"/>
<linearGradient id="gear_2_" gradientUnits="userSpaceOnUse" x1="7307.4658" y1="-3093.0442" x2="7307.4658" y2="-2784.2351" gradientTransform="matrix(0.157 0 0 -0.157 -1114.957 -422.7349)">
	<stop  offset="0" style="stop-color:#6E6E6E"/>
	<stop  offset="2.772886e-02" style="stop-color:#747474"/>
	<stop  offset="0.2365" style="stop-color:#9B9B9B"/>
	<stop  offset="0.4421" style="stop-color:#BBBBBB"/>
	<stop  offset="0.641" style="stop-color:#D1D1D1"/>
	<stop  offset="0.8304" style="stop-color:#DEDEDE"/>
	<stop  offset="1" style="stop-color:#E3E3E3"/>
</linearGradient>
<path id="gear" class="st7" d="M42.2,16l-0.8,2.1c-0.1,0.1,0,0.3,0.1,0.4l0.9,0.7c0.1,0.1,0.3,0.1,0.4,0l1.9-1.3
	c0.1-0.1,0.3-0.1,0.4,0l0.8,0.8c0.1,0.1,0.1,0.3,0,0.4l-1.3,1.9c-0.1,0.1-0.1,0.3,0,0.4l0.7,0.9c0.1,0.1,0.3,0.2,0.4,0.1l2.1-0.8
	c0.1-0.1,0.3,0,0.4,0.1l0.6,1c0.1,0.1,0,0.3-0.1,0.4l-1.8,1.5c-0.1,0.1-0.2,0.3-0.1,0.4l0.5,1.1c0.1,0.1,0.2,0.2,0.4,0.2l2.3-0.2
	c0.1,0,0.3,0.1,0.3,0.2l0.3,1.1c0,0.1,0,0.3-0.2,0.4l-2.1,0.9c-0.1,0.1-0.2,0.2-0.2,0.4l0.2,1.2c0,0.1,0.2,0.3,0.3,0.3l2.3,0.4
	c0.1,0,0.3,0.2,0.3,0.3v1.1c0,0.2-0.1,0.3-0.3,0.3l-2.3,0.4c-0.1,0-0.3,0.2-0.3,0.3l-0.2,1.2c0,0.1,0.1,0.3,0.2,0.4l2.1,0.9
	c0.1,0.1,0.2,0.2,0.2,0.4l-0.3,1.1c0,0.1-0.2,0.3-0.3,0.2l-2.3-0.2c-0.1,0-0.3,0.1-0.4,0.2L47,38.8c-0.1,0.1,0,0.3,0.1,0.4l1.8,1.5
	c0.1,0.1,0.1,0.3,0.1,0.4l-0.6,1c-0.1,0.1-0.2,0.2-0.4,0.1l-2.1-0.8c-0.1-0.1-0.3,0-0.4,0.1l-0.7,0.9c-0.1,0.1-0.1,0.3,0,0.4
	l1.3,1.9c0.1,0.1,0.1,0.3,0,0.4L45.2,46c-0.1,0.1-0.3,0.1-0.4,0l-1.9-1.3c-0.1-0.1-0.3-0.1-0.4,0l-0.9,0.7c-0.1,0.1-0.2,0.3-0.1,0.4
	l0.8,2.1c0.1,0.1,0,0.3-0.1,0.4l-1,0.6c-0.1,0.1-0.3,0-0.4-0.1l-1.5-1.8c-0.1-0.1-0.3-0.2-0.4-0.1l-1.1,0.5
	c-0.1,0.1-0.2,0.2-0.2,0.4l0.2,2.3c0,0.1-0.1,0.3-0.2,0.3l-1.1,0.3c-0.1,0-0.3,0-0.4-0.2l-0.9-2.1c-0.1-0.1-0.2-0.2-0.4-0.2
	l-1.2,0.2c-0.1,0-0.3,0.2-0.3,0.3l-0.4,2.3c0,0.1-0.2,0.3-0.3,0.3h-1.1c-0.2,0-0.3-0.1-0.3-0.3l-0.4-2.3c0-0.1-0.2-0.3-0.3-0.3
	l-1.2-0.2c-0.1,0-0.3,0.1-0.4,0.2l-0.9,2.1c-0.1,0.1-0.2,0.2-0.4,0.2l-1.1-0.3c-0.1,0-0.3-0.2-0.2-0.3l0.2-2.3
	c0-0.1-0.1-0.3-0.2-0.4L25.2,47c-0.1-0.1-0.3,0-0.4,0.1l-1.5,1.8c-0.1,0.1-0.3,0.1-0.4,0.1l-1-0.6c-0.1-0.1-0.2-0.2-0.1-0.4l0.8-2.1
	c0.1-0.1,0-0.3-0.1-0.4l-0.9-0.7c-0.1-0.1-0.3-0.1-0.4,0L19.2,46c-0.1,0.1-0.3,0.1-0.4,0L18,45.2c-0.1-0.1-0.1-0.3,0-0.4l1.3-1.9
	c0.1-0.1,0.1-0.3,0-0.4l-0.7-0.9c-0.1-0.1-0.3-0.2-0.4-0.1L16,42.2c-0.1,0.1-0.3,0-0.4-0.1l-0.6-1c-0.1-0.1,0-0.3,0.1-0.4l1.8-1.5
	c0.1-0.1,0.2-0.3,0.1-0.4l-0.5-1.1c-0.1-0.1-0.2-0.2-0.4-0.2l-2.3,0.2c-0.1,0-0.3-0.1-0.3-0.2l-0.3-1.1c0-0.1,0-0.3,0.2-0.4l2.1-0.9
	c0.1-0.1,0.2-0.2,0.2-0.4l-0.2-1.2c0-0.1-0.2-0.3-0.3-0.3l-2.3-0.4c-0.1,0-0.3-0.2-0.3-0.3v-1.1c0-0.2,0.1-0.3,0.3-0.3l2.3-0.4
	c0.1,0,0.3-0.2,0.3-0.3l0.2-1.2c0-0.1-0.1-0.3-0.2-0.4l-2.1-0.9c-0.1-0.1-0.2-0.2-0.2-0.4l0.3-1.1c0-0.1,0.2-0.3,0.3-0.2l2.3,0.2
	c0.1,0,0.3-0.1,0.4-0.2l0.5-1.1c0.1-0.1,0-0.3-0.1-0.4l-1.8-1.5c-0.1-0.1-0.1-0.3-0.1-0.4l0.6-1c0.1-0.1,0.2-0.2,0.4-0.1l2.1,0.8
	c0.1,0.1,0.3,0,0.4-0.1l0.7-0.9c0.1-0.1,0.1-0.3,0-0.4L18,19.2c-0.1-0.1-0.1-0.3,0-0.4l0.8-0.8c0.1-0.1,0.3-0.1,0.4,0l1.9,1.3
	c0.1,0.1,0.3,0.1,0.4,0l0.9-0.7c0.1-0.1,0.2-0.3,0.1-0.4L21.8,16c-0.1-0.1,0-0.3,0.1-0.4l1-0.6c0.1-0.1,0.3,0,0.4,0.1l1.5,1.8
	c0.1,0.1,0.3,0.2,0.4,0.1l1.1-0.5c0.1-0.1,0.2-0.2,0.2-0.4l-0.2-2.3c0-0.1,0.1-0.3,0.2-0.3l1.1-0.3c0.1,0,0.3,0,0.4,0.2l0.9,2.1
	c0.1,0.1,0.2,0.2,0.4,0.2l1.2-0.2c0.1,0,0.3-0.2,0.3-0.3l0.4-2.3c0-0.1,0.2-0.3,0.3-0.3h1.1c0.2,0,0.3,0.1,0.3,0.3l0.4,2.3
	c0,0.1,0.2,0.3,0.3,0.3l1.2,0.2c0.1,0,0.3-0.1,0.4-0.2l0.9-2.1c0.1-0.1,0.2-0.2,0.4-0.2l1.1,0.3c0.1,0,0.3,0.2,0.2,0.3l-0.2,2.3
	c0,0.1,0.1,0.3,0.2,0.4l1.1,0.5c0.1,0.1,0.3,0,0.4-0.1l1.5-1.8c0.1-0.1,0.3-0.1,0.4-0.1l1,0.6C42.2,15.7,42.3,15.9,42.2,16L42.2,16z
	 M38.6,20.6c-3.1-1.8-6.6-2.2-9.8-1.4c-0.6,0.2-0.3,0.1-0.3,0.1c-0.9,0.3-1.2,1.2-0.8,2c0,0-0.2-0.5,0,0c1.3,2.3,3.9,7,3.9,7
	c0.6,1.1,2,1.9,3.2,1.9c0,0,5.7-0.1,8.6-0.2c0.5,0,0,0,0,0c0.9,0,1.4-0.8,1.3-1.6C43.8,25.3,41.7,22.4,38.6,20.6L38.6,20.6z
	 M38.3,43.5c3.1-1.7,5.3-4.5,6.2-7.7c0.2-0.6,0.1-0.3,0.1-0.3c0.2-0.9-0.4-1.6-1.3-1.7c0,0,0.5,0,0,0c-2.7-0.1-8-0.3-8-0.3
	c-1.2,0-2.7,0.8-3.3,1.8c0,0-2.8,4.9-4.3,7.4c-0.3,0.5,0,0,0,0c-0.4,0.8-0.1,1.6,0.7,1.9c0,0-0.5-0.1,0,0
	C31.7,45.6,35.2,45.2,38.3,43.5L38.3,43.5z M22.8,41.4c0.6,0.6,1.6,0.4,2-0.3c0,0-0.3,0.5,0,0c1.4-2.5,4.3-7.4,4.3-7.4
	c0.6-1,0.6-2.7-0.1-3.8c0,0-2.9-4.5-4.3-6.8c-0.3-0.5,0,0,0,0c-0.5-0.8-1.4-0.9-2.1-0.3c0,0,0.3-0.3-0.2,0.2
	c-2.3,2.4-3.6,5.7-3.6,9.2C18.9,35.9,20.4,39.1,22.8,41.4L22.8,41.4z"/>
<g class="st8">
	<linearGradient id="SVGID_2_" gradientUnits="userSpaceOnUse" x1="60.2199" y1="47.9059" x2="60.2199" y2="49.4638">
		<stop  offset="0" style="stop-color:#6E6E6E"/>
		<stop  offset="2.772886e-02" style="stop-color:#747474"/>
		<stop  offset="0.2365" style="stop-color:#9B9B9B"/>
		<stop  offset="0.4421" style="stop-color:#BBBBBB"/>
		<stop  offset="0.641" style="stop-color:#D1D1D1"/>
		<stop  offset="0.8304" style="stop-color:#DEDEDE"/>
		<stop  offset="1" style="stop-color:#E3E3E3"/>
	</linearGradient>
	<path class="st9" d="M60.3,48.3l-0.2,0.9c0,0.1,0,0.3,0.2,0.4l0,0V48.3z"/>
	<linearGradient id="SVGID_3_" gradientUnits="userSpaceOnUse" x1="60.2591" y1="14.2676" x2="60.2591" y2="15.3367">
		<stop  offset="0" style="stop-color:#6E6E6E"/>
		<stop  offset="2.772886e-02" style="stop-color:#747474"/>
		<stop  offset="0.2365" style="stop-color:#9B9B9B"/>
		<stop  offset="0.4421" style="stop-color:#BBBBBB"/>
		<stop  offset="0.641" style="stop-color:#D1D1D1"/>
		<stop  offset="0.8304" style="stop-color:#DEDEDE"/>
		<stop  offset="1" style="stop-color:#E3E3E3"/>
	</linearGradient>
	<path class="st10" d="M60.3,14.5c-0.1,0.1-0.2,0.2-0.1,0.3l0.1,0.5V14.5z"/>
	<linearGradient id="SVGID_4_" gradientUnits="userSpaceOnUse" x1="54.7102" y1="6.9465" x2="54.7102" y2="46.4111">
		<stop  offset="0" style="stop-color:#6E6E6E"/>
		<stop  offset="2.772886e-02" style="stop-color:#747474"/>
		<stop  offset="0.2365" style="stop-color:#9B9B9B"/>
		<stop  offset="0.4421" style="stop-color:#BBBBBB"/>
		<stop  offset="0.641" style="stop-color:#D1D1D1"/>
		<stop  offset="0.8304" style="stop-color:#DEDEDE"/>
		<stop  offset="1" style="stop-color:#E3E3E3"/>
	</linearGradient>
	<path class="st11" d="M57.8,40.1L57.8,40.1c-2-2.6-3.1-6-2.7-9.6c0.4-3.5,2.2-6.6,4.8-8.7c0.5-0.4,0.2-0.2,0.2-0.2
		c0.1,0,0.1-0.1,0.2-0.1v-4L59.5,18c-0.1,0.1-0.3,0.1-0.4-0.1l-1.7-1.6c-0.1-0.1-0.3-0.1-0.4,0l-0.9,0.7C56,17.2,56,17.4,56,17.5
		l1.1,2c0.1,0.1,0,0.3-0.1,0.4l-0.8,0.8c-0.1,0.1-0.3,0.1-0.4,0.1l-2-1.1c-0.1-0.1-0.3,0-0.4,0.1l-0.7,0.9c-0.1,0.1-0.1,0.3,0,0.4
		l1.6,1.7c0.1,0.1,0.1,0.3,0,0.4l-0.6,1c-0.1,0.1-0.3,0.2-0.4,0.2l-2.2-0.5c-0.1,0-0.3,0-0.4,0.2l-0.4,1c-0.1,0.1,0,0.3,0.1,0.4
		l1.9,1.2c0.1,0.1,0.2,0.3,0.2,0.4l-0.3,1.1c0,0.1-0.2,0.3-0.3,0.3l-2.3,0.1c-0.1,0-0.3,0.1-0.3,0.3L49.1,30c0,0.1,0.1,0.3,0.2,0.3
		l2.2,0.7c0.1,0,0.3,0.2,0.3,0.3l0,1.2c0,0.1-0.1,0.3-0.3,0.3l-2.2,0.7c-0.1,0-0.2,0.2-0.2,0.3l0.1,1.1c0,0.1,0.2,0.3,0.3,0.3
		l2.3,0.1c0.1,0,0.3,0.1,0.3,0.3l0.3,1.1c0,0.1,0,0.3-0.2,0.4l-1.9,1.2c-0.1,0.1-0.2,0.3-0.1,0.4l0.4,1C50.7,40,50.9,40,51,40
		l2.2-0.5c0.1,0,0.3,0,0.4,0.2l0.6,1c0.1,0.1,0.1,0.3-0.1,0.4l-1.6,1.7c-0.1,0.1-0.1,0.3,0,0.4l0.7,0.9c0.1,0.1,0.3,0.2,0.4,0.1
		l2-1.1c0.1-0.1,0.3,0,0.4,0.1L57,44c0.1,0.1,0.1,0.3,0.1,0.4l-1.1,2c-0.1,0.1,0,0.3,0.1,0.4l0.9,0.7c0.1,0.1,0.3,0.1,0.4,0L59,46
		c0.1-0.1,0.3-0.1,0.4,0l0.9,0.5v-7c-0.2,0.2-0.3,0.4-0.5,0.6C59.3,40.7,58.4,40.8,57.8,40.1z M59.7,40.2
		C59.7,40.2,59.7,40.2,59.7,40.2L59.7,40.2z"/>
</g>
<g class="st8">
	<linearGradient id="SVGID_5_" gradientUnits="userSpaceOnUse" x1="3.9485" y1="13.3631" x2="3.9485" y2="16.71">
		<stop  offset="0" style="stop-color:#6E6E6E"/>
		<stop  offset="2.772886e-02" style="stop-color:#747474"/>
		<stop  offset="0.2365" style="stop-color:#9B9B9B"/>
		<stop  offset="0.4421" style="stop-color:#BBBBBB"/>
		<stop  offset="0.641" style="stop-color:#D1D1D1"/>
		<stop  offset="0.8304" style="stop-color:#DEDEDE"/>
		<stop  offset="1" style="stop-color:#E3E3E3"/>
	</linearGradient>
	<path class="st12" d="M4,14.3l-0.4-0.2v2.7l0.5-2.1C4.2,14.5,4.2,14.4,4,14.3z"/>
	<linearGradient id="SVGID_6_" gradientUnits="userSpaceOnUse" x1="9.3204" y1="6.8764" x2="9.3204" y2="46.3332">
		<stop  offset="0" style="stop-color:#6E6E6E"/>
		<stop  offset="2.772886e-02" style="stop-color:#747474"/>
		<stop  offset="0.2365" style="stop-color:#9B9B9B"/>
		<stop  offset="0.4421" style="stop-color:#BBBBBB"/>
		<stop  offset="0.641" style="stop-color:#D1D1D1"/>
		<stop  offset="0.8304" style="stop-color:#DEDEDE"/>
		<stop  offset="1" style="stop-color:#E3E3E3"/>
	</linearGradient>
	<path class="st13" d="M14.5,28.7l-2.3-0.1c-0.1,0-0.3-0.1-0.3-0.3l-0.3-1.2c0-0.1,0-0.3,0.2-0.4l2-1.2c0.1-0.1,0.2-0.2,0.1-0.4
		l-0.4-1C13.4,24,13.3,24,13.1,24l-2.2,0.5c-0.1,0-0.3-0.1-0.4-0.2l-0.6-1c-0.1-0.1,0-0.3,0.1-0.4l1.6-1.6c0.1-0.1,0.1-0.3,0-0.4
		L11,19.9c-0.1-0.1-0.3-0.2-0.4-0.1l-2,1c-0.1,0.1-0.3,0-0.4-0.1l-0.8-0.9c-0.1-0.1-0.1-0.3-0.1-0.4l1.1-2v0c0.1-0.1,0-0.3-0.1-0.4
		l-0.9-0.7c-0.1-0.1-0.3-0.1-0.4,0l-1.7,1.5C5.2,18,5,18,4.8,17.9l-1-0.6c-0.1,0-0.1-0.1-0.1-0.2v4c0.1,0.1,0.2,0.2,0.4,0.3l0,0
		c2.8,2.2,4.4,5.4,4.8,8.7c0.1,0.8-0.6,1.5-1.5,1.4c0,0,0.1,0,0.1,0c0,0-0.1,0-0.1,0c-1-0.1-2.4-0.3-3.7-0.5v3.6
		c1.1,0.2,2.2,0.4,3,0.6c0,0,0,0,0,0c0.9,0.2,1.3,1,1,1.8c0,0,0.2-0.3-0.1,0.2c-0.9,1.9-2.3,3.6-4,4.9v3.9l0.6-0.3
		c0.1-0.1,0.3,0,0.4,0.1l1.6,1.6c0.1,0.1,0.3,0.1,0.4,0l0.9-0.7c0.1-0.1,0.2-0.3,0.1-0.4l-1-2c-0.1-0.1,0-0.3,0.1-0.4l0.9-0.8
		C7.7,43,7.9,43,8.1,43.1l2,1.1c0.1,0.1,0.3,0,0.4-0.1l0.7-0.9c0.1-0.1,0.1-0.3,0-0.4l-1.5-1.7c-0.1-0.1-0.1-0.3,0-0.4l0.6-1
		c0.1-0.1,0.3-0.2,0.4-0.2l2.2,0.6c0.1,0,0.3,0,0.4-0.2l0.4-1c0.1-0.1,0-0.3-0.1-0.4l-1.9-1.2c-0.1-0.1-0.2-0.3-0.2-0.4l0.3-1.1
		c0-0.1,0.2-0.3,0.3-0.3l2.3,0c0.1,0,0.3-0.1,0.3-0.3l0.2-1.1c0-0.1-0.1-0.3-0.2-0.4L12.5,33c-0.1,0-0.3-0.2-0.3-0.4l0-1.2
		c0-0.1,0.1-0.3,0.3-0.3l2.2-0.6c0.1,0,0.2-0.2,0.2-0.3L14.8,29C14.8,28.9,14.7,28.7,14.5,28.7z M7.6,31.5
		C7.6,31.5,7.6,31.5,7.6,31.5L7.6,31.5z"/>
</g>
<linearGradient id="SVGID_7_" gradientUnits="userSpaceOnUse" x1="32" y1="54.925" x2="32" y2="8.5784">
	<stop  offset="0" style="stop-color:#6E6E6E"/>
	<stop  offset="2.772886e-02" style="stop-color:#747474"/>
	<stop  offset="0.2365" style="stop-color:#9B9B9B"/>
	<stop  offset="0.4421" style="stop-color:#BBBBBB"/>
	<stop  offset="0.641" style="stop-color:#D1D1D1"/>
	<stop  offset="0.8304" style="stop-color:#DEDEDE"/>
	<stop  offset="1" style="stop-color:#E3E3E3"/>
</linearGradient>
<path class="st14" d="M57.6,10.7c1,0,1.8,0.8,1.8,1.8v39.1c0,1-0.8,1.8-1.8,1.8H6.4c-1,0-1.8-0.8-1.8-1.8V12.5c0-1,0.8-1.8,1.8-1.8
	H57.6 M57.6,8.7H6.4c-2.1,0-3.8,1.7-3.8,3.8v39.1c0,2.1,1.7,3.8,3.8,3.8h51.2c2.1,0,3.8-1.7,3.8-3.8V12.5
	C61.4,10.4,59.7,8.7,57.6,8.7L57.6,8.7z"/>
</svg>
