<?xml version="1.0" encoding="utf-8"?>
<!-- Generator: Adobe Illustrator 23.0.2, SVG Export Plug-In . SVG Version: 6.00 Build 0)  -->
<svg version="1.1" id="Apps-Visual-Studio-Code" image-rendering="optimizeSpeed"
	 xmlns="http://www.w3.org/2000/svg" xmlns:xlink="http://www.w3.org/1999/xlink" x="0px" y="0px" viewBox="0 0 64 64"
	 style="enable-background:new 0 0 64 64;" xml:space="preserve">
<style type="text/css">
	.st0{opacity:0.25;enable-background:new    ;}
	.st1{fill:url(#path_1_);}
	.st2{fill:#666666;}
	.st3{fill:url(#SVGID_1_);}
	.st4{opacity:0.75;fill:#050505;enable-background:new    ;}
	.st5{fill:#353535;}
	.st6{opacity:0.2;fill:url(#SVGID_2_);}
	.st7{opacity:0.33;fill:url(#SVGID_3_);}
	.st8{opacity:0.33;fill:url(#SVGID_4_);}
	.st9{fill:url(#SVGID_5_);}
	.st10{fill:url(#SVGID_6_);}
</style>
<g transform="matrix(.058825 0 0 .058825 1.8818 1.8825)">
	<path class="st0" d="M-2556.3-2240c-6.2-15-13.2-29.7-21-44.1c-4.4-8.2-9-16.3-13.9-24.2c-21.1-34.3-46.9-66.6-77.3-97
		c-99.6-99.6-219.8-149.4-360.7-149.4c-140.9,0-261.1,49.8-360.6,149.4c-99.6,99.6-149.4,219.8-149.4,360.6s49.8,261.1,149.4,360.7
		c99.6,99.6,219.8,149.3,360.6,149.3c140.8,0,261.1-49.8,360.7-149.3c54.8-54.9,94.6-116,119.2-183.4c20-54.9,30.1-114,30.1-177.3
		c0-48.5-5.9-94.6-17.7-138.3c-1.4-4.9-2.8-9.8-4.2-14.7C-2545.5-2212.1-2550.6-2226.2-2556.3-2240L-2556.3-2240z"/>
	
		<linearGradient id="path_1_" gradientUnits="userSpaceOnUse" x1="201419.9375" y1="-93781.6563" x2="201419.9375" y2="-94805.6406" gradientTransform="matrix(5.859499e-02 0 0 -5.859499e-02 -14831.3564 -8047.8999)">
		<stop  offset="0" style="stop-color:#FFFFFF"/>
		<stop  offset="1" style="stop-color:#D7D7D7"/>
	</linearGradient>
	<path id="path" class="st1" d="M-2556.3-2240c-6.2-15-13.2-29.7-21-44.1c-4.4-8.2-9-16.3-13.9-24.2c-21.1-34.3-46.9-66.6-77.3-97
		c-99.6-99.6-219.8-149.4-360.7-149.4c-140.9,0-261.1,49.8-360.6,149.4c-99.6,99.6-149.4,219.8-149.4,360.6s49.8,261.1,149.4,360.7
		c99.6,99.6,219.8,149.3,360.6,149.3c140.8,0,261.1-49.8,360.7-149.3c54.8-54.9,94.6-116,119.2-183.4c20-54.9,30.1-114,30.1-177.3
		c0-48.5-5.9-94.6-17.7-138.3c-1.4-4.9-2.8-9.8-4.2-14.7C-2545.5-2212.1-2550.6-2226.2-2556.3-2240L-2556.3-2240z"/>
	<circle class="st2" cx="-3029.2" cy="-2044.8" r="459"/>
	
		<radialGradient id="SVGID_1_" cx="205657.4531" cy="-104553.9688" r="470.1562" gradientTransform="matrix(5.742791e-02 0 0 -5.742791e-02 -14839.6328 -8049.0898)" gradientUnits="userSpaceOnUse">
		<stop  offset="0" style="stop-color:#000000;stop-opacity:0"/>
		<stop  offset="1" style="stop-color:#000000;stop-opacity:0.5259"/>
	</radialGradient>
	<circle class="st3" cx="-3029.2" cy="-2044.8" r="459"/>
	<path class="st4" d="M-2810.1-2373.3l-17.2,46c-1.1,3,0,7,2.6,9l20.3,15.5c2.5,1.9,6.7,2,9.3,0.1l39.9-28.5
		c2.6-1.9,6.6-1.5,8.9,0.7l16.7,16.7c2.3,2.3,2.6,6.2,0.7,8.9l-28.5,39.9c-1.9,2.6-1.8,6.8,0.2,9.3l15.5,20.3c1.9,2.5,6,3.7,9,2.6
		l45.9-17.2c3-1.1,6.8,0.2,8.4,3l11.8,20.5c1.7,2.9,0.9,6.7-1.6,8.8l-37.9,31.2c-2.5,2.1-3.5,6.1-2.3,9l9.7,23.6
		c1.2,2.9,4.8,5.1,8,4.8l48.9-4.7c3.2-0.3,6.5,1.9,7.3,5.1l6.1,22.8c0.9,3.2-0.9,6.7-3.8,8l-44.7,20.3c-2.9,1.3-5,5-4.5,8.2
		l3.3,25.3c0.4,3.1,3.3,6.2,6.5,6.7l48.4,8.1c3.2,0.5,5.7,3.6,5.7,6.8v23.6c0,3.3-2.6,6.3-5.7,6.8l-48.3,8.1
		c-3.2,0.5-6.1,3.5-6.5,6.7l-3.3,25.3c-0.4,3.1,1.6,6.8,4.5,8.2l44.6,20.3c2.9,1.3,4.6,4.9,3.8,8l-6.1,22.8
		c-0.9,3.2-4.1,5.4-7.3,5.1l-48.8-4.7c-3.2-0.3-6.8,1.8-8,4.8l-9.8,23.6c-1.2,2.9-0.2,7,2.3,9l37.9,31.2c2.5,2.1,3.2,6,1.6,8.8
		l-11.8,20.5c-1.7,2.9-5.4,4.1-8.4,3l-46-17.2c-3-1.1-7,0-9,2.6l-15.5,20.3c-1.9,2.5-2,6.7-0.1,9.3l28.5,39.9
		c1.9,2.6,1.5,6.6-0.7,8.9l-16.7,16.7c-2.3,2.3-6.2,2.6-8.9,0.7l-39.9-28.5c-2.6-1.9-6.8-1.8-9.3,0.2l-20.3,15.5
		c-2.5,1.9-3.7,6-2.6,9l17.2,45.9c1.1,3-0.2,6.8-3,8.4l-20.5,11.8c-2.9,1.7-6.7,0.9-8.8-1.6l-31.2-37.9c-2.1-2.5-6.1-3.5-9-2.3
		l-23.6,9.7c-2.9,1.2-5.1,4.8-4.8,8l4.7,48.9c0.3,3.2-1.9,6.5-5.1,7.3l-22.8,6.1c-3.2,0.9-6.7-0.9-8-3.8l-20.3-44.7
		c-1.3-2.9-5-5-8.2-4.5l-25.3,3.3c-3.1,0.4-6.2,3.3-6.7,6.5l-8.1,48.4c-0.5,3.2-3.6,5.7-6.8,5.7h-23.6c-3.3,0-6.3-2.6-6.8-5.7
		l-8.1-48.3c-0.5-3.2-3.5-6.1-6.7-6.5l-25.3-3.3c-3.1-0.4-6.8,1.6-8.2,4.5l-20.3,44.6c-1.3,2.9-4.9,4.6-8,3.8l-22.8-6.1
		c-3.2-0.9-5.4-4.1-5.1-7.3l4.7-48.8c0.3-3.2-1.8-6.8-4.8-8l-23.6-9.8c-2.9-1.2-7-0.2-9,2.3l-31.2,37.9c-2.1,2.5-5.9,3.2-8.8,1.6
		l-20.5-11.8c-2.9-1.7-4.1-5.4-3-8.4l17.2-46c1.1-3,0-7-2.6-9l-20.3-15.5c-2.5-1.9-6.7-2-9.3-0.1l-39.9,28.5
		c-2.6,1.9-6.6,1.5-8.9-0.7l-16.7-16.7c-2.3-2.3-2.6-6.2-0.7-8.9l28.5-39.9c1.9-2.6,1.8-6.8-0.2-9.3l-15.5-20.3
		c-1.9-2.5-6-3.7-9-2.6l-45.9,17.2c-3,1.1-6.8-0.2-8.4-3l-11.8-20.5c-1.7-2.9-0.9-6.7,1.6-8.8l37.9-31.2c2.5-2.1,3.5-6.1,2.3-9
		l-9.7-23.6c-1.2-2.9-4.8-5.1-8-4.8l-48.9,4.7c-3.2,0.3-6.5-1.9-7.3-5.1l-6.1-22.8c-0.9-3.2,0.9-6.7,3.8-8l44.7-20.3
		c2.9-1.3,5-5,4.5-8.2l-3.3-25.3c-0.4-3.1-3.3-6.2-6.5-6.7l-48.4-8.1c-3.2-0.5-5.7-3.6-5.7-6.8v-23.6c0-3.3,2.6-6.3,5.7-6.8
		l48.3-8.1c3.2-0.5,6.1-3.5,6.5-6.7l3.3-25.3c0.4-3.1-1.6-6.8-4.5-8.2l-44.6-20.3c-2.9-1.3-4.6-4.9-3.8-8l6.1-22.8
		c0.9-3.2,4.1-5.4,7.3-5.1l48.8,4.7c3.2,0.3,6.8-1.8,8-4.8l9.8-23.6c1.2-2.9,0.2-7-2.3-9l-37.9-31.2c-2.5-2.1-3.2-5.9-1.6-8.8
		l11.8-20.5c1.7-2.9,5.4-4.1,8.4-3l46,17.2c3,1.1,7,0,9-2.6l15.5-20.3c1.9-2.5,2-6.7,0.1-9.3l-28.5-39.9c-1.9-2.6-1.5-6.6,0.7-8.9
		l16.7-16.7c2.3-2.3,6.2-2.6,8.9-0.7l39.9,28.5c2.6,1.9,6.8,1.8,9.3-0.2l20.3-15.5c2.5-1.9,3.7-6,2.6-9l-17.2-45.9
		c-1.1-3,0.2-6.8,3-8.4l20.5-11.8c2.9-1.7,6.7-0.9,8.8,1.6l31.2,37.9c2.1,2.5,6.1,3.5,9,2.3l23.6-9.7c2.9-1.2,5.1-4.8,4.8-8
		l-4.7-48.9c-0.3-3.2,1.9-6.5,5.1-7.3l22.8-6.1c3.2-0.9,6.7,0.9,8,3.8l20.3,44.7c1.3,2.9,5,5,8.2,4.5l25.3-3.3
		c3.1-0.4,6.2-3.3,6.7-6.5l8.1-48.4c0.5-3.2,3.6-5.7,6.8-5.7h23.6c3.3,0,6.3,2.6,6.8,5.7l8.1,48.3c0.5,3.2,3.5,6.1,6.7,6.5l25.3,3.3
		c3.1,0.4,6.8-1.6,8.2-4.5l20.3-44.6c1.3-2.9,4.9-4.6,8-3.8l22.8,6.1c3.2,0.9,5.4,4.1,5.1,7.3l-4.7,48.8c-0.3,3.2,1.8,6.8,4.8,8
		l23.6,9.8c2.9,1.2,7,0.2,9-2.3l31.2-37.9c2.1-2.5,5.9-3.2,8.8-1.6l20.5,11.8C-2810.2-2380-2808.9-2376.3-2810.1-2373.3z
		 M-2888.4-2275.4c-66.3-38.3-141.8-46.6-210.6-29.2c-13.3,3.4-5.5,1.5-5.5,1.5c-18.5,6.3-25.8,25.3-16.5,42.3c0,0-5.4-9.8,0.4,0.7
		c27.6,50.3,82.8,151.1,82.8,151.1c12.5,22.8,43.7,40.8,69.7,40.3c0,0,122.4-2.5,183.6-3.8c11.4-0.2,0,0,0,0
		c18.8-0.4,31.1-16.2,27-34C-2776.6-2175.2-2821.6-2236.8-2888.4-2275.4L-2888.4-2275.4z M-2893-1784c67-37.1,113-97.5,133.5-165.5
		c3.9-13.1,1.5-5.5,1.5-5.5c4.1-19.1-8.4-35.2-27.7-35.9c0,0,11.2,0.5-0.9,0c-57.4-2.3-172.2-6.8-172.2-6.8c-26-1-57.5,16.4-70.4,39
		c0,0-60.8,106.2-91.3,159.3c-5.7,9.9,0,0,0,0c-9.4,16.4-2.1,35,15.3,40.6c0,0-10.9-3,0,0C-3036.4-1739.7-2960.4-1746.6-2893-1784
		L-2893-1784z M-3227-1828.9c13.5,12.2,33.4,9.2,42.8-7.1c0,0-5.7,9.8,0,0c30.8-52.9,92.3-158.7,92.3-158.7
		c13.1-22.5,12.4-58.5-1.4-80.5c0,0-61.3-97.1-92-145.7c-6.4-10.2-0.5-0.7-0.5-0.7c-10.3-16.4-30.5-19.2-45-6.1c0,0,5.4-5.9-4,4.1
		c-48.6,51.7-77.9,121.7-76.6,198.3C-3310-1948.3-3277.9-1879-3227-1828.9L-3227-1828.9z"/>
</g>
<path class="st5" d="M56.8,54.7H7.2c-2.1,0-3.8-1.7-3.8-3.8V13c0-2.1,1.7-3.8,3.8-3.8h49.6c2.1,0,3.8,1.7,3.8,3.8V51
	C60.6,53,58.9,54.7,56.8,54.7z"/>
<radialGradient id="SVGID_2_" cx="32.0011" cy="31.9997" r="16.4698" gradientUnits="userSpaceOnUse">
	<stop  offset="0.4798" style="stop-color:#E3E3E3"/>
	<stop  offset="0.7736" style="stop-color:#6E6E6E"/>
</radialGradient>
<path class="st6" d="M42.8,31.2c0-0.1,0-0.1-0.1-0.1c0,0-0.1-0.1-0.1-0.1l-1.5-0.2c-0.1-0.9-0.4-1.8-0.7-2.6l1.2-1
	c0.1-0.3,0.1-0.1,0.1-0.1c0-0.1,0-0.1,0-0.2l-0.1-0.1c0,0,0,0,0,0c0,0,0,0,0,0l-0.6-1c0,0-0.1-0.1-0.1-0.1c-0.1,0-0.1,0-0.2,0
	l-1.4,0.6c-0.5-0.7-1.2-1.4-1.9-1.9l0.5-1.5c-0.1-0.3,0-0.1,0-0.2c0-0.1,0-0.1-0.1-0.1l-0.1-0.1l-1-0.5c-0.1,0-0.1,0-0.2,0
	c-0.1,0-0.1,0.1-0.1,0.1l-0.9,1.3c-0.8-0.3-1.6-0.6-2.5-0.7c-0.1,0-0.1,0-0.2,0l-0.3-1.5c-0.2-0.2,0-0.1-0.1-0.1
	c0,0-0.1-0.1-0.1-0.1l0,0l-1.2,0c-0.1,0-0.1,0-0.1,0.1c0,0-0.1,0.1-0.1,0.1l-0.2,1.5c-0.9,0.1-1.8,0.4-2.7,0.7l-0.9-1.2
	c0,0-0.1-0.1-0.1-0.1c-0.1,0-0.1,0-0.2,0L25.9,23c0,0-0.1,0.1-0.1,0.1c0,0.1,0,0.1,0,0.2l0.6,1.4c-0.7,0.6-1.4,1.2-1.9,2l-1.4-0.6
	c-0.1,0-0.1,0-0.2,0c-0.1,0-0.1,0-0.1,0.1l-0.6,1.1c0,0.1,0,0.1,0,0.2c0,0.1,0.1,0.1,0.1,0.1l1.2,0.9c-0.3,0.8-0.6,1.6-0.7,2.4
	c0,0.1,0,0.2,0,0.2l-1.5,0.2c-0.1,0-0.1,0-0.1,0.1c0,0-0.1,0.1-0.1,0.1l0,1.2c0,0.1,0,0.1,0.1,0.1c0,0,0.1,0.1,0.1,0.1l1.5,0.2
	c0.1,0.9,0.4,1.8,0.7,2.6l-1.2,0.9c0,0-0.1,0.1-0.1,0.1c0,0.1,0,0.1,0,0.2l0.6,1.1c0,0,0.1,0.1,0.1,0.1c0.1,0,0.1,0,0.2,0l1.4-0.6
	c0.6,0.7,1.2,1.4,2,1.9l-0.6,1.4c0,0.1,0,0.1,0,0.2c0,0.1,0,0.1,0.1,0.1l1.1,0.6c0.1,0,0.1,0,0.2,0c0.1,0,0.1-0.1,0.1-0.1l0.9-1.2
	c0.8,0.3,1.6,0.6,2.4,0.7c0.1,0,0.2,0,0.2,0l0.2,1.5c0,0.1,0,0.1,0.1,0.1c0,0,0.1,0.1,0.1,0.1l1.2,0c0.1,0,0.1,0,0.1-0.1
	c0,0,0.1-0.1,0.1-0.1l0.2-1.5c0.9-0.1,1.8-0.4,2.6-0.7l1,1.2c0.3,0.1,0.1,0.1,0.1,0.1c0.1,0,0.1,0,0.2,0l1.1-0.6
	c0,0,0.1-0.1,0.1-0.1c0-0.1,0-0.1,0-0.2l-0.6-1.4c0.7-0.5,1.4-1.2,1.9-1.9l1.5,0.5c0.3-0.1,0.1,0,0.2,0s0.1,0,0.1-0.1l0.6-1.1
	c0-0.1,0-0.1,0-0.2c0-0.1-0.1-0.1-0.1-0.1l-1.3-0.9c0.3-0.8,0.6-1.6,0.7-2.4c0-0.1,0-0.1,0-0.2l1.5-0.3c0.2-0.2,0.1,0,0.1-0.1
	c0,0,0.1-0.1,0.1-0.1L42.8,31.2z M32,39c-3.9,0-7-3.2-7-7s3.2-7,7-7s7,3.2,7,7S35.9,39,32,39z"/>
<radialGradient id="SVGID_3_" cx="22.5806" cy="30.8065" r="24.0018" gradientUnits="userSpaceOnUse">
	<stop  offset="0" style="stop-color:#E3E3E3"/>
	<stop  offset="1" style="stop-color:#6E6E6E"/>
</radialGradient>
<path class="st7" d="M7.2,54.7H10l-1.2-2.2C8.8,52.3,8.8,52,9,51.8l1.4-1.4c0.2-0.2,0.5-0.2,0.7-0.1l3.4,1.8
	c0.2,0.1,0.5,0.1,0.7-0.1l1.1-1.5c0.2-0.2,0.1-0.5,0-0.7l-2.6-2.8c-0.2-0.2-0.2-0.5-0.1-0.7l1-1.7c0.1-0.2,0.4-0.3,0.7-0.3l3.7,0.8
	c0.2,0.1,0.5-0.1,0.6-0.3l0.7-1.7c0.1-0.2,0-0.5-0.2-0.7l-3.2-2c-0.2-0.1-0.3-0.4-0.3-0.7l0.5-1.9c0.1-0.2,0.3-0.4,0.6-0.5l3.8-0.1
	c0.2,0,0.5-0.2,0.5-0.5l0.2-1.8c0-0.3-0.1-0.5-0.4-0.6l-3.6-1.1c-0.2-0.1-0.4-0.3-0.4-0.6l0-2c0-0.2,0.2-0.5,0.4-0.6l3.6-1.1
	c0.2-0.1,0.4-0.3,0.4-0.6l-0.2-1.8c0-0.3-0.3-0.5-0.5-0.5l-3.8-0.1c-0.2,0-0.5-0.2-0.6-0.4l-0.5-1.9c-0.1-0.2,0.1-0.5,0.3-0.7l3.2-2
	c0.2-0.1,0.3-0.4,0.2-0.7l-0.7-1.7c-0.1-0.2-0.4-0.4-0.6-0.3l-3.7,0.9c-0.2,0.1-0.5-0.1-0.7-0.3l-1-1.7c-0.1-0.2-0.1-0.5,0.1-0.7
	l2.6-2.8c0.2-0.2,0.2-0.5,0-0.7L15,11.7c-0.2-0.2-0.5-0.3-0.7-0.1L11,13.4c-0.2,0.1-0.5,0.1-0.7-0.1l-1.4-1.4
	c-0.2-0.2-0.2-0.5-0.1-0.7l1-1.9H7.2C5.1,9.3,3.4,11,3.4,13v1.5c0.1,0.1,0.2,0.1,0.4,0.2c0,0-0.5-0.4,0.3,0.3
	c4.3,3.5,7.2,8.5,7.9,14.4C12.7,35.4,11,41,7.6,45.3l0,0c-0.9,1.1-2.5,1-3.4-0.1c-0.2-0.3-0.5-0.7-0.8-1V51
	C3.4,53,5.1,54.7,7.2,54.7z"/>
<radialGradient id="SVGID_4_" cx="14.0817" cy="30.9166" r="24.0018" gradientTransform="matrix(-1 0 0 1 55.501 0)" gradientUnits="userSpaceOnUse">
	<stop  offset="0" style="stop-color:#E3E3E3"/>
	<stop  offset="1" style="stop-color:#6E6E6E"/>
</radialGradient>
<path class="st8" d="M56.8,54.8H54l1.2-2.2c0.1-0.2,0.1-0.5-0.1-0.7l-1.4-1.4c-0.2-0.2-0.5-0.2-0.7-0.1l-3.4,1.8
	c-0.2,0.1-0.5,0.1-0.7-0.1l-1.1-1.5c-0.2-0.2-0.1-0.5,0-0.7l2.6-2.8c0.2-0.2,0.2-0.5,0.1-0.7l-1-1.7c-0.1-0.2-0.4-0.3-0.7-0.3
	l-3.7,0.8c-0.2,0.1-0.5-0.1-0.6-0.3l-0.7-1.7c-0.1-0.2,0-0.5,0.2-0.7l3.2-2c0.2-0.1,0.3-0.4,0.3-0.7L47,38.1
	c-0.1-0.2-0.3-0.4-0.6-0.5l-3.8-0.1c-0.2,0-0.5-0.2-0.5-0.5l-0.2-1.8c0-0.3,0.1-0.5,0.4-0.6l3.6-1.1c0.2-0.1,0.4-0.3,0.4-0.6l0-2
	c0-0.2-0.2-0.5-0.4-0.6l-3.6-1.1c-0.2-0.1-0.4-0.3-0.4-0.6l0.2-1.8c0-0.3,0.3-0.5,0.5-0.5l3.8-0.1c0.2,0,0.5-0.2,0.6-0.4l0.5-1.9
	c0.1-0.2-0.1-0.5-0.3-0.7l-3.2-2c-0.2-0.1-0.3-0.4-0.2-0.7l0.7-1.7c0.1-0.2,0.4-0.4,0.6-0.3l3.7,0.9c0.2,0.1,0.5-0.1,0.7-0.3l1-1.7
	c0.1-0.2,0.1-0.5-0.1-0.7L47.9,14c-0.2-0.2-0.2-0.5,0-0.7l1.1-1.4c0.2-0.2,0.5-0.3,0.7-0.1l3.3,1.8c0.2,0.1,0.5,0.1,0.7-0.1l1.4-1.4
	c0.2-0.2,0.2-0.5,0.1-0.7l-1-1.9h2.6c2.1,0,3.8,1.7,3.8,3.8v1.5c-0.1,0.1-0.2,0.1-0.4,0.2c0,0,0.5-0.4-0.3,0.3
	c-4.3,3.5-7.2,8.5-7.9,14.4c-0.7,5.9,1.1,11.6,4.4,15.9l0,0c0.9,1.1,2.5,1,3.4-0.1c0.2-0.3,0.5-0.7,0.8-1v6.8
	C60.6,53.2,58.9,54.8,56.8,54.8z"/>
<linearGradient id="SVGID_5_" gradientUnits="userSpaceOnUse" x1="32.1103" y1="55.0437" x2="31.9011" y2="11.3288">
	<stop  offset="0" style="stop-color:#6E6E6E"/>
	<stop  offset="2.772886e-02" style="stop-color:#747474"/>
	<stop  offset="0.2365" style="stop-color:#9B9B9B"/>
	<stop  offset="0.4421" style="stop-color:#BBBBBB"/>
	<stop  offset="0.641" style="stop-color:#D1D1D1"/>
	<stop  offset="0.8304" style="stop-color:#DEDEDE"/>
	<stop  offset="1" style="stop-color:#E3E3E3"/>
</linearGradient>
<path class="st9" d="M52.5,31.1L50,30.7c-0.2,0-0.3-0.2-0.3-0.3L49.5,29c0-0.2,0.1-0.3,0.2-0.4l2.3-1c0.1-0.1,0.2-0.2,0.2-0.4
	l-0.3-1.2c0-0.2-0.2-0.3-0.4-0.3L49.1,26c-0.2,0-0.3-0.1-0.4-0.2l-0.5-1.2c-0.1-0.1,0-0.4,0.1-0.5l1.9-1.6c0.1-0.1,0.2-0.3,0.1-0.4
	l-0.6-1c-0.1-0.1-0.3-0.2-0.4-0.2l-2.3,0.9c-0.2,0.1-0.4,0-0.5-0.1l-0.8-1c-0.1-0.1-0.1-0.3,0-0.5l1.4-2c0.1-0.1,0.1-0.3,0-0.4
	l-0.8-0.8c-0.1-0.1-0.3-0.1-0.4,0l-2,1.4c-0.1,0.1-0.3,0.1-0.5,0l-1-0.8c-0.1-0.1-0.2-0.3-0.1-0.5l0.9-2.3v0c0.1-0.2,0-0.3-0.2-0.4
	l-1-0.6c-0.1-0.1-0.3,0-0.4,0.1l-1.6,1.9c-0.1,0.1-0.3,0.2-0.5,0.1l-1.2-0.5c-0.1-0.1-0.3-0.2-0.2-0.4l0.2-2.5
	c0-0.2-0.1-0.3-0.3-0.4l-1.2-0.3c-0.2,0-0.3,0-0.4,0.2l-1,2.2c-0.1,0.1-0.3,0.2-0.4,0.2l-1.3-0.2c-0.2,0-0.3-0.2-0.3-0.3l-0.4-2.4
	c0-0.2-0.2-0.3-0.3-0.3h-1.2c-0.2,0-0.3,0.1-0.3,0.3L30.7,14c0,0.2-0.2,0.3-0.3,0.3L29,14.5c-0.2,0-0.3-0.1-0.4-0.2l-1-2.3
	c-0.1-0.1-0.2-0.2-0.4-0.2l-1.2,0.3c-0.2,0-0.3,0.2-0.3,0.4l0.2,2.5c0,0.2-0.1,0.3-0.2,0.4l-1.2,0.5c-0.1,0.1-0.4,0-0.5-0.1
	l-1.6-1.9c-0.1-0.1-0.3-0.2-0.4-0.1l-1,0.6c-0.1,0.1-0.2,0.3-0.2,0.4l0.9,2.3c0.1,0.2,0,0.4-0.1,0.5l-1,0.8c-0.1,0.1-0.3,0.1-0.5,0
	l-2-1.4c-0.1-0.1-0.3-0.1-0.4,0l-0.8,0.8c-0.1,0.1-0.1,0.3,0,0.4l1.4,2c0.1,0.1,0.1,0.3,0,0.5l-0.8,1c-0.1,0.1-0.3,0.2-0.5,0.1
	L14.8,21c-0.2-0.1-0.3,0-0.4,0.2l-0.6,1c-0.1,0.1,0,0.3,0.1,0.4l1.9,1.6c0.1,0.1,0.2,0.3,0.1,0.5l-0.5,1.2c-0.1,0.1-0.2,0.3-0.4,0.2
	l-2.5-0.2c-0.2,0-0.3,0.1-0.4,0.3l-0.3,1.2c0,0.2,0,0.3,0.2,0.4l2.2,1c0.1,0.1,0.2,0.3,0.2,0.4l-0.2,1.3c0,0.2-0.2,0.3-0.3,0.3
	l-2.4,0.4c-0.2,0-0.3,0.2-0.3,0.3v1.2c0,0.2,0.1,0.3,0.3,0.3l2.4,0.4c0.2,0,0.3,0.2,0.3,0.3l0.2,1.3c0,0.2-0.1,0.3-0.2,0.4l-2.3,1
	c-0.1,0.1-0.2,0.2-0.2,0.4l0.3,1.2c0,0.2,0.2,0.3,0.4,0.3l2.5-0.2c0.2,0,0.3,0.1,0.4,0.2l0.5,1.2c0.1,0.1,0,0.4-0.1,0.5l-1.9,1.6
	c-0.1,0.1-0.2,0.3-0.1,0.4l0.6,1c0.1,0.1,0.3,0.2,0.4,0.2l2.3-0.9c0.2-0.1,0.4,0,0.5,0.1l0.8,1c0.1,0.1,0.1,0.3,0,0.5l-1.4,2
	c-0.1,0.1-0.1,0.3,0,0.4l0.8,0.8c0.1,0.1,0.3,0.1,0.4,0l2-1.4c0.1-0.1,0.3-0.1,0.5,0l1,0.8c0.1,0.1,0.2,0.3,0.1,0.5L21,49.2
	c-0.1,0.2,0,0.3,0.2,0.4l1,0.6c0.1,0.1,0.3,0,0.4-0.1l1.6-1.9c0.1-0.1,0.3-0.2,0.5-0.1l1.2,0.5c0.1,0.1,0.3,0.2,0.2,0.4l-0.2,2.5
	c0,0.2,0.1,0.3,0.3,0.4l1.2,0.3c0.2,0,0.3,0,0.4-0.2l1-2.2c0.1-0.1,0.3-0.2,0.4-0.2l1.3,0.2c0.2,0,0.3,0.2,0.3,0.3l0.4,2.4
	c0,0.2,0.2,0.3,0.3,0.3h1.2c0.2,0,0.3-0.1,0.3-0.3l0.4-2.4c0-0.2,0.2-0.3,0.3-0.3l1.3-0.2c0.2,0,0.3,0.1,0.4,0.2l1,2.3
	c0.1,0.1,0.2,0.2,0.4,0.2l1.2-0.3c0.2,0,0.3-0.2,0.3-0.4L38,49.1c0-0.2,0.1-0.3,0.2-0.4l1.2-0.5c0.1-0.1,0.4,0,0.5,0.1l1.6,1.9
	c0.1,0.1,0.3,0.2,0.4,0.1l1-0.6c0.1-0.1,0.2-0.3,0.2-0.4l-0.9-2.3c-0.1-0.2,0-0.4,0.1-0.5l1-0.8c0.1-0.1,0.3-0.1,0.5,0l2,1.4
	c0.1,0.1,0.3,0.1,0.4,0l0.8-0.8c0.1-0.1,0.1-0.3,0-0.4l-1.4-2c-0.1-0.1-0.1-0.3,0-0.5l0.8-1c0.1-0.1,0.3-0.2,0.5-0.1l2.3,0.9
	c0.2,0.1,0.3,0,0.4-0.2l0.6-1c0.1-0.1,0-0.3-0.1-0.4l-1.9-1.6c-0.1-0.1-0.2-0.3-0.1-0.5l0.5-1.2c0.1-0.1,0.2-0.3,0.4-0.2l2.5,0.2
	c0.2,0,0.3-0.1,0.4-0.3l0.3-1.2c0-0.2,0-0.3-0.2-0.4l-2.2-1c-0.1-0.1-0.2-0.3-0.2-0.4l0.2-1.3c0-0.2,0.2-0.3,0.3-0.3l2.4-0.4
	c0.2,0,0.3-0.2,0.3-0.3v-1.2C52.7,31.2,52.6,31.1,52.5,31.1z M24.1,42C24,42.1,24.1,42,24.1,42L24.1,42z M24.2,41.8
	C24.2,41.8,24.2,41.8,24.2,41.8C24.2,41.8,24.2,41.8,24.2,41.8c-0.5,0.8-1.5,1-2.2,0.4l0,0c-2.6-2.5-4.2-6-4.2-9.9
	c-0.1-3.9,1.4-7.4,3.9-10c0.5-0.5,0.2-0.2,0.2-0.2c0.7-0.7,1.7-0.5,2.3,0.3c0,0,0,0,0,0c1.5,2.4,4.6,7.3,4.6,7.3
	c0.7,1.1,0.7,2.9,0.1,4.1C28.8,33.8,25.7,39.1,24.2,41.8z M45.6,36.1c-1,3.4-3.3,6.5-6.7,8.3l0,0c-3.4,1.9-7.2,2.2-10.7,1.3
	c-0.9-0.3-1.2-1.2-0.8-2c1.5-2.7,4.6-8,4.6-8c0.7-1.1,2.2-2,3.5-2c0,0,5.8,0.2,8.7,0.3c0,0,0,0,0,0c1,0,1.6,0.9,1.4,1.8
	C45.7,35.8,45.8,35.4,45.6,36.1z M27.9,45.6C27.9,45.6,27.9,45.6,27.9,45.6L27.9,45.6z M28,45.7c0,0,0.1,0,0.1,0
	C28.1,45.7,28,45.7,28,45.7z M27.4,43.7C27.4,43.7,27.4,43.7,27.4,43.7C27.4,43.7,27.4,43.7,27.4,43.7z M30.5,32
	c0-0.8,0.7-1.5,1.5-1.5c0.8,0,1.5,0.7,1.5,1.5c0,0.8-0.7,1.5-1.5,1.5C31.2,33.5,30.5,32.8,30.5,32z M44.5,29.9
	C44.6,29.9,44.6,29.9,44.5,29.9L44.5,29.9z M44.3,29.9C44.3,29.9,44.4,29.9,44.3,29.9C44.4,29.9,44.4,29.9,44.3,29.9
	c-3.1,0.1-9.2,0.2-9.2,0.2c-1.3,0-2.9-0.9-3.5-2c0,0-2.8-5.1-4.2-7.6c0,0,0,0,0,0c-0.5-0.9-0.1-1.8,0.8-2.1c0,0-0.4,0.1,0.3-0.1
	c3.5-0.9,7.3-0.5,10.6,1.5h0c3.4,1.9,5.6,5,6.6,8.5C45.9,29.1,45.3,29.9,44.3,29.9z"/>
<linearGradient id="SVGID_6_" gradientUnits="userSpaceOnUse" x1="32" y1="54.925" x2="32" y2="8.5784">
	<stop  offset="0" style="stop-color:#6E6E6E"/>
	<stop  offset="2.772886e-02" style="stop-color:#747474"/>
	<stop  offset="0.2365" style="stop-color:#9B9B9B"/>
	<stop  offset="0.4421" style="stop-color:#BBBBBB"/>
	<stop  offset="0.641" style="stop-color:#D1D1D1"/>
	<stop  offset="0.8304" style="stop-color:#DEDEDE"/>
	<stop  offset="1" style="stop-color:#E3E3E3"/>
</linearGradient>
<path class="st10" d="M57.6,10.7c1,0,1.8,0.8,1.8,1.8v39.1c0,1-0.8,1.8-1.8,1.8H6.4c-1,0-1.8-0.8-1.8-1.8V12.5c0-1,0.8-1.8,1.8-1.8
	H57.6 M57.6,8.7H6.4c-2.1,0-3.8,1.7-3.8,3.8v39.1c0,2.1,1.7,3.8,3.8,3.8h51.2c2.1,0,3.8-1.7,3.8-3.8V12.5
	C61.4,10.4,59.7,8.7,57.6,8.7L57.6,8.7z"/>
</svg>
