<?xml version="1.0" encoding="utf-8"?>
<!-- Generator: Adobe Illustrator 23.0.2, SVG Export Plug-In . SVG Version: 6.00 Build 0)  -->
<svg version="1.1" id="system-monitor" xmlns="http://www.w3.org/2000/svg" xmlns:xlink="http://www.w3.org/1999/xlink" x="0px"
	 y="0px" viewBox="0 0 64 64" style="enable-background:new 0 0 64 64;" xml:space="preserve">
<style type="text/css">
	.st0{fill:#191919;}
	.st1{opacity:0.1;}
	.st2{fill:none;stroke:#DEFFDE;stroke-width:0.2;stroke-miterlimit:10;}
	.st3{opacity:0.4;}
	.st4{fill:#FFFFFF;stroke:#000000;stroke-width:0.2;stroke-miterlimit:10;}
	.st5{opacity:0.15;fill:url(#SVGID_1_);enable-background:new    ;}
	.st6{opacity:0.7;}
	.st7{fill:none;stroke:#9BBC9B;stroke-width:0.8;stroke-linecap:round;stroke-linejoin:round;stroke-miterlimit:10;}
	.st8{fill:url(#SVGID_2_);}
</style>
<path class="st0" d="M56.8,57.4H7.2c-2.1,0-3.8-1.9-3.8-4.2V10.8c0-2.3,1.7-4.2,3.8-4.2h49.6c2.1,0,3.8,1.9,3.8,4.2v42.4
	C60.6,55.5,58.9,57.4,56.8,57.4z"/>
<g class="st1">
	<rect x="3.9" y="10.9" class="st2" width="4.7" height="4.7"/>
	<rect x="8.6" y="10.9" class="st2" width="4.7" height="4.7"/>
	<rect x="13.3" y="10.9" class="st2" width="4.7" height="4.7"/>
	<rect x="18" y="10.9" class="st2" width="4.7" height="4.7"/>
	<rect x="22.6" y="10.9" class="st2" width="4.7" height="4.7"/>
	<rect x="27.3" y="10.9" class="st2" width="4.7" height="4.7"/>
	<rect x="32" y="10.9" class="st2" width="4.7" height="4.7"/>
	<rect x="36.7" y="10.9" class="st2" width="4.7" height="4.7"/>
	<rect x="41.4" y="10.9" class="st2" width="4.7" height="4.7"/>
	<rect x="46" y="10.9" class="st2" width="4.7" height="4.7"/>
	<rect x="50.7" y="10.9" class="st2" width="4.7" height="4.7"/>
	<rect x="55.4" y="10.9" class="st2" width="4.7" height="4.7"/>
	<rect x="3.9" y="15.6" class="st2" width="4.7" height="4.7"/>
	<rect x="8.6" y="15.6" class="st2" width="4.7" height="4.7"/>
	<rect x="13.3" y="15.6" class="st2" width="4.7" height="4.7"/>
	<rect x="18" y="15.6" class="st2" width="4.7" height="4.7"/>
	<rect x="22.6" y="15.6" class="st2" width="4.7" height="4.7"/>
	<rect x="27.3" y="15.6" class="st2" width="4.7" height="4.7"/>
	<rect x="32" y="15.6" class="st2" width="4.7" height="4.7"/>
	<rect x="36.7" y="15.6" class="st2" width="4.7" height="4.7"/>
	<rect x="41.4" y="15.6" class="st2" width="4.7" height="4.7"/>
	<rect x="46" y="15.6" class="st2" width="4.7" height="4.7"/>
	<rect x="50.7" y="15.6" class="st2" width="4.7" height="4.7"/>
	<rect x="55.4" y="15.6" class="st2" width="4.7" height="4.7"/>
	<rect x="3.9" y="20.2" class="st2" width="4.7" height="4.7"/>
	<rect x="8.6" y="20.2" class="st2" width="4.7" height="4.7"/>
	<rect x="13.3" y="20.2" class="st2" width="4.7" height="4.7"/>
	<rect x="18" y="20.2" class="st2" width="4.7" height="4.7"/>
	<rect x="22.6" y="20.2" class="st2" width="4.7" height="4.7"/>
	<rect x="27.3" y="20.2" class="st2" width="4.7" height="4.7"/>
	<rect x="32" y="20.2" class="st2" width="4.7" height="4.7"/>
	<rect x="36.7" y="20.2" class="st2" width="4.7" height="4.7"/>
	<rect x="41.4" y="20.2" class="st2" width="4.7" height="4.7"/>
	<rect x="46" y="20.2" class="st2" width="4.7" height="4.7"/>
	<rect x="50.7" y="20.2" class="st2" width="4.7" height="4.7"/>
	<rect x="55.4" y="20.2" class="st2" width="4.7" height="4.7"/>
	<rect x="3.9" y="24.9" class="st2" width="4.7" height="4.7"/>
	<rect x="8.6" y="24.9" class="st2" width="4.7" height="4.7"/>
	<rect x="13.3" y="24.9" class="st2" width="4.7" height="4.7"/>
	<rect x="18" y="24.9" class="st2" width="4.7" height="4.7"/>
	<rect x="22.6" y="24.9" class="st2" width="4.7" height="4.7"/>
	<rect x="27.3" y="24.9" class="st2" width="4.7" height="4.7"/>
	<rect x="32" y="24.9" class="st2" width="4.7" height="4.7"/>
	<rect x="36.7" y="24.9" class="st2" width="4.7" height="4.7"/>
	<rect x="41.4" y="24.9" class="st2" width="4.7" height="4.7"/>
	<rect x="46" y="24.9" class="st2" width="4.7" height="4.7"/>
	<rect x="50.7" y="24.9" class="st2" width="4.7" height="4.7"/>
	<rect x="55.4" y="24.9" class="st2" width="4.7" height="4.7"/>
	<rect x="3.9" y="29.6" class="st2" width="4.7" height="4.7"/>
	<rect x="8.6" y="29.6" class="st2" width="4.7" height="4.7"/>
	<rect x="13.3" y="29.6" class="st2" width="4.7" height="4.7"/>
	<rect x="18" y="29.6" class="st2" width="4.7" height="4.7"/>
	<rect x="22.6" y="29.6" class="st2" width="4.7" height="4.7"/>
	<rect x="27.3" y="29.6" class="st2" width="4.7" height="4.7"/>
	<rect x="32" y="29.6" class="st2" width="4.7" height="4.7"/>
	<rect x="36.7" y="29.6" class="st2" width="4.7" height="4.7"/>
	<rect x="41.4" y="29.6" class="st2" width="4.7" height="4.7"/>
	<rect x="46" y="29.6" class="st2" width="4.7" height="4.7"/>
	<rect x="50.7" y="29.6" class="st2" width="4.7" height="4.7"/>
	<rect x="55.4" y="29.6" class="st2" width="4.7" height="4.7"/>
	<rect x="3.9" y="34.3" class="st2" width="4.7" height="4.7"/>
	<rect x="8.6" y="34.3" class="st2" width="4.7" height="4.7"/>
	<rect x="13.3" y="34.3" class="st2" width="4.7" height="4.7"/>
	<rect x="18" y="34.3" class="st2" width="4.7" height="4.7"/>
	<rect x="22.6" y="34.3" class="st2" width="4.7" height="4.7"/>
	<rect x="27.3" y="34.3" class="st2" width="4.7" height="4.7"/>
	<rect x="32" y="34.3" class="st2" width="4.7" height="4.7"/>
	<rect x="36.7" y="34.3" class="st2" width="4.7" height="4.7"/>
	<rect x="41.4" y="34.3" class="st2" width="4.7" height="4.7"/>
	<rect x="46" y="34.3" class="st2" width="4.7" height="4.7"/>
	<rect x="50.7" y="34.3" class="st2" width="4.7" height="4.7"/>
	<rect x="55.4" y="34.3" class="st2" width="4.7" height="4.7"/>
	<rect x="3.9" y="39" class="st2" width="4.7" height="4.7"/>
	<rect x="8.6" y="39" class="st2" width="4.7" height="4.7"/>
	<rect x="13.3" y="39" class="st2" width="4.7" height="4.7"/>
	<rect x="18" y="39" class="st2" width="4.7" height="4.7"/>
	<rect x="22.6" y="39" class="st2" width="4.7" height="4.7"/>
	<rect x="27.3" y="39" class="st2" width="4.7" height="4.7"/>
	<rect x="32" y="39" class="st2" width="4.7" height="4.7"/>
	<rect x="36.7" y="39" class="st2" width="4.7" height="4.7"/>
	<rect x="41.4" y="39" class="st2" width="4.7" height="4.7"/>
	<rect x="46" y="39" class="st2" width="4.7" height="4.7"/>
	<rect x="50.7" y="39" class="st2" width="4.7" height="4.7"/>
	<rect x="55.4" y="39" class="st2" width="4.7" height="4.7"/>
	<rect x="3.9" y="43.7" class="st2" width="4.7" height="4.7"/>
	<rect x="8.6" y="43.7" class="st2" width="4.7" height="4.7"/>
	<rect x="13.3" y="43.7" class="st2" width="4.7" height="4.7"/>
	<rect x="18" y="43.7" class="st2" width="4.7" height="4.7"/>
	<rect x="22.6" y="43.7" class="st2" width="4.7" height="4.7"/>
	<rect x="27.3" y="43.7" class="st2" width="4.7" height="4.7"/>
	<rect x="32" y="43.7" class="st2" width="4.7" height="4.7"/>
	<rect x="36.7" y="43.7" class="st2" width="4.7" height="4.7"/>
	<rect x="41.4" y="43.7" class="st2" width="4.7" height="4.7"/>
	<rect x="46" y="43.7" class="st2" width="4.7" height="4.7"/>
	<rect x="50.7" y="43.7" class="st2" width="4.7" height="4.7"/>
	<rect x="55.4" y="43.7" class="st2" width="4.7" height="4.7"/>
	<path class="st2" d="M5.4,6.2h3.2v4.7H3.9V7.7C3.9,6.9,4.6,6.2,5.4,6.2z"/>
	<rect x="8.6" y="6.2" class="st2" width="4.7" height="4.7"/>
	<rect x="13.3" y="6.2" class="st2" width="4.7" height="4.7"/>
	<rect x="18" y="6.2" class="st2" width="4.7" height="4.7"/>
	<rect x="22.6" y="6.2" class="st2" width="4.7" height="4.7"/>
	<rect x="27.3" y="6.2" class="st2" width="4.7" height="4.7"/>
	<rect x="32" y="6.2" class="st2" width="4.7" height="4.7"/>
	<rect x="36.7" y="6.2" class="st2" width="4.7" height="4.7"/>
	<rect x="41.4" y="6.2" class="st2" width="4.7" height="4.7"/>
	<rect x="46" y="6.2" class="st2" width="4.7" height="4.7"/>
	<rect x="50.7" y="6.2" class="st2" width="4.7" height="4.7"/>
	<path class="st2" d="M55.4,6.2h2.7c1.1,0,2,0.9,2,2v2.7h-4.7V6.2z"/>
	<rect x="3.9" y="48.4" class="st2" width="4.7" height="4.7"/>
	<rect x="8.6" y="48.4" class="st2" width="4.7" height="4.7"/>
	<rect x="13.3" y="48.4" class="st2" width="4.7" height="4.7"/>
	<rect x="18" y="48.4" class="st2" width="4.7" height="4.7"/>
	<rect x="22.6" y="48.4" class="st2" width="4.7" height="4.7"/>
	<rect x="27.3" y="48.4" class="st2" width="4.7" height="4.7"/>
	<rect x="32" y="48.4" class="st2" width="4.7" height="4.7"/>
	<rect x="36.7" y="48.4" class="st2" width="4.7" height="4.7"/>
	<rect x="41.4" y="48.4" class="st2" width="4.7" height="4.7"/>
	<rect x="46" y="48.4" class="st2" width="4.7" height="4.7"/>
	<rect x="50.7" y="48.4" class="st2" width="4.7" height="4.7"/>
	<rect x="55.4" y="48.4" class="st2" width="4.7" height="4.7"/>
	<path class="st2" d="M3.9,53.1h4.7v4.7h-3c-0.9,0-1.7-0.7-1.7-1.7V53.1z"/>
	<rect x="8.6" y="53.1" class="st2" width="4.7" height="4.7"/>
	<rect x="13.3" y="53.1" class="st2" width="4.7" height="4.7"/>
	<rect x="18" y="53.1" class="st2" width="4.7" height="4.7"/>
	<rect x="22.6" y="53.1" class="st2" width="4.7" height="4.7"/>
	<rect x="27.3" y="53.1" class="st2" width="4.7" height="4.7"/>
	<rect x="32" y="53.1" class="st2" width="4.7" height="4.7"/>
	<rect x="36.7" y="53.1" class="st2" width="4.7" height="4.7"/>
	<rect x="41.4" y="53.1" class="st2" width="4.7" height="4.7"/>
	<rect x="46" y="53.1" class="st2" width="4.7" height="4.7"/>
	<rect x="50.7" y="53.1" class="st2" width="4.7" height="4.7"/>
	<path class="st2" d="M55.4,53.1h4.7v3c0,0.9-0.8,1.7-1.7,1.7h-3V53.1z"/>
</g>
<g class="st3">
	<circle class="st4" cx="8.6" cy="10.9" r="0.2"/>
	<circle class="st4" cx="13.3" cy="10.9" r="0.2"/>
	<circle class="st4" cx="18" cy="10.9" r="0.2"/>
	<circle class="st4" cx="22.6" cy="10.9" r="0.2"/>
	<circle class="st4" cx="27.3" cy="10.9" r="0.2"/>
	<circle class="st4" cx="32" cy="10.9" r="0.2"/>
	<circle class="st4" cx="36.7" cy="10.9" r="0.2"/>
	<circle class="st4" cx="41.4" cy="10.9" r="0.2"/>
	<circle class="st4" cx="46" cy="10.9" r="0.2"/>
	<circle class="st4" cx="50.7" cy="10.9" r="0.2"/>
	<circle class="st4" cx="55.4" cy="10.9" r="0.2"/>
	<circle class="st4" cx="8.6" cy="15.6" r="0.2"/>
	<circle class="st4" cx="13.3" cy="15.6" r="0.2"/>
	<circle class="st4" cx="18" cy="15.6" r="0.2"/>
	<circle class="st4" cx="22.6" cy="15.6" r="0.2"/>
	<circle class="st4" cx="27.3" cy="15.6" r="0.2"/>
	<circle class="st4" cx="32" cy="15.6" r="0.2"/>
	<circle class="st4" cx="36.7" cy="15.6" r="0.2"/>
	<circle class="st4" cx="41.4" cy="15.6" r="0.2"/>
	<circle class="st4" cx="46" cy="15.6" r="0.2"/>
	<circle class="st4" cx="50.7" cy="15.6" r="0.2"/>
	<circle class="st4" cx="55.4" cy="15.6" r="0.2"/>
	<circle class="st4" cx="8.6" cy="20.2" r="0.2"/>
	<circle class="st4" cx="13.3" cy="20.2" r="0.2"/>
	<circle class="st4" cx="18" cy="20.2" r="0.2"/>
	<circle class="st4" cx="22.6" cy="20.2" r="0.2"/>
	<circle class="st4" cx="27.3" cy="20.2" r="0.2"/>
	<circle class="st4" cx="32" cy="20.2" r="0.2"/>
	<circle class="st4" cx="36.7" cy="20.2" r="0.2"/>
	<circle class="st4" cx="41.4" cy="20.2" r="0.2"/>
	<circle class="st4" cx="46" cy="20.2" r="0.2"/>
	<circle class="st4" cx="50.7" cy="20.2" r="0.2"/>
	<circle class="st4" cx="55.4" cy="20.2" r="0.2"/>
	<circle class="st4" cx="8.6" cy="24.9" r="0.2"/>
	<circle class="st4" cx="13.3" cy="24.9" r="0.2"/>
	<circle class="st4" cx="18" cy="24.9" r="0.2"/>
	<circle class="st4" cx="22.6" cy="24.9" r="0.2"/>
	<circle class="st4" cx="27.3" cy="24.9" r="0.2"/>
	<circle class="st4" cx="32" cy="24.9" r="0.2"/>
	<circle class="st4" cx="36.7" cy="24.9" r="0.2"/>
	<circle class="st4" cx="41.4" cy="24.9" r="0.2"/>
	<circle class="st4" cx="46" cy="24.9" r="0.2"/>
	<circle class="st4" cx="50.7" cy="24.9" r="0.2"/>
	<circle class="st4" cx="55.4" cy="24.9" r="0.2"/>
	<circle class="st4" cx="8.6" cy="29.6" r="0.2"/>
	<circle class="st4" cx="13.3" cy="29.6" r="0.2"/>
	<circle class="st4" cx="18" cy="29.6" r="0.2"/>
	<circle class="st4" cx="22.6" cy="29.6" r="0.2"/>
	<circle class="st4" cx="27.3" cy="29.6" r="0.2"/>
	<circle class="st4" cx="32" cy="29.6" r="0.2"/>
	<circle class="st4" cx="36.7" cy="29.6" r="0.2"/>
	<circle class="st4" cx="41.4" cy="29.6" r="0.2"/>
	<circle class="st4" cx="46" cy="29.6" r="0.2"/>
	<circle class="st4" cx="50.7" cy="29.6" r="0.2"/>
	<circle class="st4" cx="55.4" cy="29.6" r="0.2"/>
	<circle class="st4" cx="8.6" cy="34.3" r="0.2"/>
	<circle class="st4" cx="13.3" cy="34.3" r="0.2"/>
	<circle class="st4" cx="18" cy="34.3" r="0.2"/>
	<circle class="st4" cx="22.6" cy="34.3" r="0.2"/>
	<circle class="st4" cx="27.3" cy="34.3" r="0.2"/>
	<circle class="st4" cx="32" cy="34.3" r="0.2"/>
	<circle class="st4" cx="36.7" cy="34.3" r="0.2"/>
	<circle class="st4" cx="41.4" cy="34.3" r="0.2"/>
	<circle class="st4" cx="46" cy="34.3" r="0.2"/>
	<circle class="st4" cx="50.7" cy="34.3" r="0.2"/>
	<circle class="st4" cx="55.4" cy="34.3" r="0.2"/>
	<circle class="st4" cx="8.6" cy="39" r="0.2"/>
	<circle class="st4" cx="13.3" cy="39" r="0.2"/>
	<circle class="st4" cx="18" cy="39" r="0.2"/>
	<circle class="st4" cx="22.6" cy="39" r="0.2"/>
	<circle class="st4" cx="27.3" cy="39" r="0.2"/>
	<circle class="st4" cx="32" cy="39" r="0.2"/>
	<circle class="st4" cx="36.7" cy="39" r="0.2"/>
	<circle class="st4" cx="41.4" cy="39" r="0.2"/>
	<circle class="st4" cx="46" cy="39" r="0.2"/>
	<circle class="st4" cx="50.7" cy="39" r="0.2"/>
	<circle class="st4" cx="55.4" cy="39" r="0.2"/>
	<circle class="st4" cx="8.6" cy="43.6" r="0.2"/>
	<circle class="st4" cx="13.3" cy="43.6" r="0.2"/>
	<circle class="st4" cx="18" cy="43.6" r="0.2"/>
	<circle class="st4" cx="22.6" cy="43.6" r="0.2"/>
	<circle class="st4" cx="27.3" cy="43.6" r="0.2"/>
	<circle class="st4" cx="32" cy="43.6" r="0.2"/>
	<circle class="st4" cx="36.7" cy="43.6" r="0.2"/>
	<circle class="st4" cx="41.4" cy="43.6" r="0.2"/>
	<circle class="st4" cx="46" cy="43.6" r="0.2"/>
	<circle class="st4" cx="50.7" cy="43.6" r="0.2"/>
	<circle class="st4" cx="55.4" cy="43.6" r="0.2"/>
	<circle class="st4" cx="8.6" cy="48.3" r="0.2"/>
	<circle class="st4" cx="13.3" cy="48.3" r="0.2"/>
	<circle class="st4" cx="18" cy="48.3" r="0.2"/>
	<circle class="st4" cx="22.6" cy="48.3" r="0.2"/>
	<circle class="st4" cx="27.3" cy="48.3" r="0.2"/>
	<circle class="st4" cx="32" cy="48.3" r="0.2"/>
	<circle class="st4" cx="36.7" cy="48.3" r="0.2"/>
	<circle class="st4" cx="41.4" cy="48.3" r="0.2"/>
	<circle class="st4" cx="46" cy="48.3" r="0.2"/>
	<circle class="st4" cx="50.7" cy="48.3" r="0.2"/>
	<circle class="st4" cx="55.4" cy="48.3" r="0.2"/>
	<circle class="st4" cx="55.4" cy="53.1" r="0.2"/>
	<circle class="st4" cx="8.6" cy="53.1" r="0.2"/>
	<circle class="st4" cx="13.3" cy="53.1" r="0.2"/>
	<circle class="st4" cx="17.9" cy="53.1" r="0.2"/>
	<circle class="st4" cx="22.6" cy="53.1" r="0.2"/>
	<circle class="st4" cx="27.3" cy="53.1" r="0.2"/>
	<circle class="st4" cx="32" cy="53.1" r="0.2"/>
	<circle class="st4" cx="36.7" cy="53.1" r="0.2"/>
	<circle class="st4" cx="41.3" cy="53.1" r="0.2"/>
	<circle class="st4" cx="46" cy="53.1" r="0.2"/>
	<circle class="st4" cx="50.7" cy="53.1" r="0.2"/>
</g>
<linearGradient id="SVGID_1_" gradientUnits="userSpaceOnUse" x1="31.5844" y1="30.5993" x2="32.3359" y2="1.495" gradientTransform="matrix(1 0 0 -1 0 66)">
	<stop  offset="0" style="stop-color:#B1FFB1"/>
	<stop  offset="0.1156" style="stop-color:#ACF7AC"/>
	<stop  offset="0.2904" style="stop-color:#9FE39F"/>
	<stop  offset="0.5028" style="stop-color:#89C088"/>
	<stop  offset="0.7447" style="stop-color:#6B916A"/>
	<stop  offset="1" style="stop-color:#465744"/>
</linearGradient>
<polygon class="st5" points="60.2,33 53.5,34.6 46.2,33.1 41.5,28.4 37.3,30.4 34.3,39.7 31.3,41.7 29.1,37.9 27.1,28.3 22.4,24.8 
	19.8,31.5 16.3,35.1 9.5,32 3.8,33 3.4,54.5 4.6,57.2 6.3,58.4 57.7,58.2 59.3,57.4 60.4,55.5 "/>
<g class="st6">
	<polyline class="st7" points="60.3,33 53.5,34.6 46.3,33.1 41.6,28.4 37.3,30.4 34.3,39.7 31.3,41.7 29.1,37.9 27.1,28.3 
		22.4,24.8 19.8,31.5 16.3,35.1 9.5,32 3.9,33 	"/>
</g>
<linearGradient id="SVGID_2_" gradientUnits="userSpaceOnUse" x1="32" y1="7.8795" x2="32" y2="60.8018" gradientTransform="matrix(1 0 0 -1 0 66)">
	<stop  offset="0" style="stop-color:#6E6E6E"/>
	<stop  offset="2.772886e-02" style="stop-color:#747474"/>
	<stop  offset="0.2365" style="stop-color:#9B9B9B"/>
	<stop  offset="0.4421" style="stop-color:#BBBBBB"/>
	<stop  offset="0.641" style="stop-color:#D1D1D1"/>
	<stop  offset="0.8304" style="stop-color:#DEDEDE"/>
	<stop  offset="1" style="stop-color:#E3E3E3"/>
</linearGradient>
<path class="st8" d="M57.6,7.6c1,0,1.8,0.9,1.8,2.1v44.6c0,1.1-0.8,2.1-1.8,2.1H6.4c-1,0-1.8-0.9-1.8-2.1V9.7c0-1.1,0.8-2.1,1.8-2.1
	H57.6 M57.6,5.3H6.4c-2.1,0-3.8,1.9-3.8,4.3v44.6c0,2.4,1.7,4.3,3.8,4.3h51.2c2.1,0,3.8-1.9,3.8-4.3V9.7C61.4,7.3,59.7,5.3,57.6,5.3
	L57.6,5.3z"/>
</svg>
