<?xml version="1.0" encoding="utf-8"?>
<!-- Generator: Adobe Illustrator 23.0.2, SVG Export Plug-In . SVG Version: 6.00 Build 0)  -->
<svg version="1.1" id="terminal" xmlns="http://www.w3.org/2000/svg" xmlns:xlink="http://www.w3.org/1999/xlink" x="0px" y="0px"
	 viewBox="0 0 64 64" style="enable-background:new 0 0 64 64;" xml:space="preserve">
<style type="text/css">
	.st0{fill:#191919;}
	.st1{fill:url(#SVGID_1_);}
	.st2{fill:url(#SVGID_2_);}
	.st3{fill:url(#SVGID_3_);}
</style>
<g>
	<path class="st0" d="M56.8,53.2H7.2c-2.1,0-3.8-1.7-3.8-3.8V14.5c0-2.1,1.7-3.8,3.8-3.8h49.6c2.1,0,3.8,1.7,3.8,3.8v34.9
		C60.6,51.5,58.9,53.2,56.8,53.2z"/>
	<linearGradient id="SVGID_1_" gradientUnits="userSpaceOnUse" x1="32" y1="53.4516" x2="32" y2="10.0837">
		<stop  offset="0" style="stop-color:#6E6E6E"/>
		<stop  offset="2.772886e-02" style="stop-color:#747474"/>
		<stop  offset="0.2365" style="stop-color:#9B9B9B"/>
		<stop  offset="0.4421" style="stop-color:#BBBBBB"/>
		<stop  offset="0.641" style="stop-color:#D1D1D1"/>
		<stop  offset="0.8304" style="stop-color:#DEDEDE"/>
		<stop  offset="1" style="stop-color:#E3E3E3"/>
	</linearGradient>
	<path class="st1" d="M57.6,12.2c1,0,1.8,0.8,1.8,1.8V50c0,1-0.8,1.8-1.8,1.8H6.4c-1,0-1.8-0.8-1.8-1.8V14c0-1,0.8-1.8,1.8-1.8H57.6
		 M57.6,10.2H6.4c-2.1,0-3.8,1.7-3.8,3.8V50c0,2.1,1.7,3.8,3.8,3.8h51.2c2.1,0,3.8-1.7,3.8-3.8V14C61.4,11.9,59.7,10.2,57.6,10.2
		L57.6,10.2z"/>
	
		<linearGradient id="SVGID_2_" gradientUnits="userSpaceOnUse" x1="13750.7334" y1="-7593.6294" x2="13750.7334" y2="-7746.5894" gradientTransform="matrix(6.383000e-02 0 0 -6.383000e-02 -866.9507 -469.5039)">
		<stop  offset="0" style="stop-color:#FFFFFF"/>
		<stop  offset="1" style="stop-color:#D7D7D7"/>
	</linearGradient>
	<path class="st2" d="M9,15.5c-0.3,0-0.5,0.1-0.7,0.3C8.1,16,8,16.2,8,16.4c0,0.3,0.1,0.5,0.3,0.7l3,3l-3,3C8.1,23.2,8,23.4,8,23.7
		c0,0.3,0.1,0.5,0.3,0.7c0.2,0.2,0.4,0.3,0.7,0.3c0.3,0,0.5-0.1,0.7-0.3l3.3-3.3c0.7-0.7,0.7-1.4,0-2.1l-3.3-3.3
		C9.5,15.6,9.3,15.5,9,15.5L9,15.5z"/>
	
		<linearGradient id="SVGID_3_" gradientUnits="userSpaceOnUse" x1="7500.7334" y1="14531.3486" x2="7500.7334" y2="14306.877" gradientTransform="matrix(3.908461e-18 6.383000e-02 6.383000e-02 -3.908461e-18 -898.6656 -450.5679)">
		<stop  offset="0" style="stop-color:#FFFFFF"/>
		<stop  offset="1" style="stop-color:#D7D7D7"/>
	</linearGradient>
	<path class="st3" d="M28.5,28.2L28.5,28.2c0,0.6-0.5,1.1-1.1,1.1H16c-0.6,0-1.1-0.5-1.1-1.1l0,0c0-0.6,0.5-1.1,1.1-1.1h11.4
		C28,27.1,28.5,27.6,28.5,28.2z"/>
</g>
</svg>
