<?xml version="1.0" encoding="utf-8"?>
<!-- Generator: Adobe Illustrator 23.0.2, SVG Export Plug-In . SVG Version: 6.00 Build 0)  -->
<svg version="1.1" id="system-monitor" xmlns="http://www.w3.org/2000/svg" xmlns:xlink="http://www.w3.org/1999/xlink" x="0px"
	 y="0px" viewBox="0 0 64 64" style="enable-background:new 0 0 64 64;" xml:space="preserve">
<style type="text/css">
	.st0{fill:#191919;}
	.st1{opacity:0.1;}
	.st2{fill:none;stroke:#DEFFDE;stroke-width:0.2;stroke-miterlimit:10;}
	.st3{opacity:0.4;}
	.st4{fill:#FFFFFF;stroke:#000000;stroke-width:0.2;stroke-miterlimit:10;}
	.st5{opacity:0.15;fill:url(#SVGID_1_);}
	.st6{fill:url(#Border_1_);}
</style>
<path class="st0" d="M56.8,54.7H7.2c-2.1,0-3.8-1.7-3.8-3.8V13c0-2.1,1.7-3.8,3.8-3.8h49.6c2.1,0,3.8,1.7,3.8,3.8v38
	C60.6,53,58.9,54.7,56.8,54.7z"/>
<g class="st1">
	<line class="st2" x1="8.6" y1="9.6" x2="3.9" y2="9.6"/>
	<line class="st2" x1="13.3" y1="9.6" x2="8.6" y2="9.6"/>
	<line class="st2" x1="18" y1="9.6" x2="13.3" y2="9.6"/>
	<line class="st2" x1="22.6" y1="9.6" x2="18" y2="9.6"/>
	<line class="st2" x1="27.3" y1="9.6" x2="22.6" y2="9.6"/>
	<line class="st2" x1="32" y1="9.6" x2="27.3" y2="9.6"/>
	<line class="st2" x1="36.7" y1="9.6" x2="32" y2="9.6"/>
	<line class="st2" x1="41.4" y1="9.6" x2="36.7" y2="9.6"/>
	<line class="st2" x1="46" y1="9.6" x2="41.4" y2="9.6"/>
	<line class="st2" x1="50.7" y1="9.6" x2="46" y2="9.6"/>
	<line class="st2" x1="55.4" y1="9.6" x2="50.7" y2="9.6"/>
	<polygon class="st2" points="4.9,9.6 8.6,9.6 8.6,13.3 3.9,13.3 3.9,11.1 	"/>
	<rect x="8.6" y="9.6" class="st2" width="4.7" height="3.7"/>
	<rect x="13.3" y="9.6" class="st2" width="4.7" height="3.7"/>
	<rect x="18" y="9.6" class="st2" width="4.7" height="3.7"/>
	<rect x="22.6" y="9.6" class="st2" width="4.7" height="3.7"/>
	<rect x="27.3" y="9.6" class="st2" width="4.7" height="3.7"/>
	<rect x="32" y="9.6" class="st2" width="4.7" height="3.7"/>
	<rect x="36.7" y="9.6" class="st2" width="4.7" height="3.7"/>
	<rect x="41.4" y="9.6" class="st2" width="4.7" height="3.7"/>
	<rect x="46" y="9.6" class="st2" width="4.7" height="3.7"/>
	<rect x="50.7" y="9.6" class="st2" width="4.7" height="3.7"/>
	<polygon class="st2" points="55.4,9.6 59.4,10.2 60.1,13.3 55.4,13.3 	"/>
	<rect x="3.9" y="13.3" class="st2" width="4.7" height="4.7"/>
	<rect x="8.6" y="13.3" class="st2" width="4.7" height="4.7"/>
	<rect x="13.3" y="13.3" class="st2" width="4.7" height="4.7"/>
	<rect x="18" y="13.3" class="st2" width="4.7" height="4.7"/>
	<rect x="22.6" y="13.3" class="st2" width="4.7" height="4.7"/>
	<rect x="27.3" y="13.3" class="st2" width="4.7" height="4.7"/>
	<rect x="32" y="13.3" class="st2" width="4.7" height="4.7"/>
	<rect x="36.7" y="13.3" class="st2" width="4.7" height="4.7"/>
	<rect x="41.4" y="13.3" class="st2" width="4.7" height="4.7"/>
	<rect x="46" y="13.3" class="st2" width="4.7" height="4.7"/>
	<rect x="50.7" y="13.3" class="st2" width="4.7" height="4.7"/>
	<rect x="55.4" y="13.3" class="st2" width="4.7" height="4.7"/>
	<rect x="3.9" y="18" class="st2" width="4.7" height="4.7"/>
	<rect x="8.6" y="18" class="st2" width="4.7" height="4.7"/>
	<rect x="13.3" y="18" class="st2" width="4.7" height="4.7"/>
	<rect x="18" y="18" class="st2" width="4.7" height="4.7"/>
	<rect x="22.6" y="18" class="st2" width="4.7" height="4.7"/>
	<rect x="27.3" y="18" class="st2" width="4.7" height="4.7"/>
	<rect x="32" y="18" class="st2" width="4.7" height="4.7"/>
	<rect x="36.7" y="18" class="st2" width="4.7" height="4.7"/>
	<rect x="41.4" y="18" class="st2" width="4.7" height="4.7"/>
	<rect x="46" y="18" class="st2" width="4.7" height="4.7"/>
	<rect x="50.7" y="18" class="st2" width="4.7" height="4.7"/>
	<rect x="55.4" y="18" class="st2" width="4.7" height="4.7"/>
	<rect x="3.9" y="22.6" class="st2" width="4.7" height="4.7"/>
	<rect x="8.6" y="22.6" class="st2" width="4.7" height="4.7"/>
	<rect x="13.3" y="22.6" class="st2" width="4.7" height="4.7"/>
	<rect x="18" y="22.6" class="st2" width="4.7" height="4.7"/>
	<rect x="22.6" y="22.6" class="st2" width="4.7" height="4.7"/>
	<rect x="27.3" y="22.6" class="st2" width="4.7" height="4.7"/>
	<rect x="32" y="22.6" class="st2" width="4.7" height="4.7"/>
	<rect x="36.7" y="22.6" class="st2" width="4.7" height="4.7"/>
	<rect x="41.4" y="22.6" class="st2" width="4.7" height="4.7"/>
	<rect x="46" y="22.6" class="st2" width="4.7" height="4.7"/>
	<rect x="50.7" y="22.6" class="st2" width="4.7" height="4.7"/>
	<rect x="55.4" y="22.6" class="st2" width="4.7" height="4.7"/>
	<rect x="3.9" y="27.3" class="st2" width="4.7" height="4.7"/>
	<rect x="8.6" y="27.3" class="st2" width="4.7" height="4.7"/>
	<rect x="13.3" y="27.3" class="st2" width="4.7" height="4.7"/>
	<rect x="18" y="27.3" class="st2" width="4.7" height="4.7"/>
	<rect x="22.6" y="27.3" class="st2" width="4.7" height="4.7"/>
	<rect x="27.3" y="27.3" class="st2" width="4.7" height="4.7"/>
	<rect x="32" y="27.3" class="st2" width="4.7" height="4.7"/>
	<rect x="36.7" y="27.3" class="st2" width="4.7" height="4.7"/>
	<rect x="41.4" y="27.3" class="st2" width="4.7" height="4.7"/>
	<rect x="46" y="27.3" class="st2" width="4.7" height="4.7"/>
	<rect x="50.7" y="27.3" class="st2" width="4.7" height="4.7"/>
	<rect x="55.4" y="27.3" class="st2" width="4.7" height="4.7"/>
	<rect x="3.9" y="32" class="st2" width="4.7" height="4.7"/>
	<rect x="8.6" y="32" class="st2" width="4.7" height="4.7"/>
	<rect x="13.3" y="32" class="st2" width="4.7" height="4.7"/>
	<rect x="18" y="32" class="st2" width="4.7" height="4.7"/>
	<rect x="22.6" y="32" class="st2" width="4.7" height="4.7"/>
	<rect x="27.3" y="32" class="st2" width="4.7" height="4.7"/>
	<rect x="32" y="32" class="st2" width="4.7" height="4.7"/>
	<rect x="36.7" y="32" class="st2" width="4.7" height="4.7"/>
	<rect x="41.4" y="32" class="st2" width="4.7" height="4.7"/>
	<rect x="46" y="32" class="st2" width="4.7" height="4.7"/>
	<rect x="50.7" y="32" class="st2" width="4.7" height="4.7"/>
	<rect x="55.4" y="32" class="st2" width="4.7" height="4.7"/>
	<rect x="3.9" y="36.7" class="st2" width="4.7" height="4.7"/>
	<rect x="8.6" y="36.7" class="st2" width="4.7" height="4.7"/>
	<rect x="13.3" y="36.7" class="st2" width="4.7" height="4.7"/>
	<rect x="18" y="36.7" class="st2" width="4.7" height="4.7"/>
	<rect x="22.6" y="36.7" class="st2" width="4.7" height="4.7"/>
	<rect x="27.3" y="36.7" class="st2" width="4.7" height="4.7"/>
	<rect x="32" y="36.7" class="st2" width="4.7" height="4.7"/>
	<rect x="36.7" y="36.7" class="st2" width="4.7" height="4.7"/>
	<rect x="41.4" y="36.7" class="st2" width="4.7" height="4.7"/>
	<rect x="46" y="36.7" class="st2" width="4.7" height="4.7"/>
	<rect x="50.7" y="36.7" class="st2" width="4.7" height="4.7"/>
	<rect x="55.4" y="36.7" class="st2" width="4.7" height="4.7"/>
	<rect x="3.9" y="41.4" class="st2" width="4.7" height="4.7"/>
	<rect x="8.6" y="41.4" class="st2" width="4.7" height="4.7"/>
	<rect x="13.3" y="41.4" class="st2" width="4.7" height="4.7"/>
	<rect x="18" y="41.4" class="st2" width="4.7" height="4.7"/>
	<rect x="22.6" y="41.4" class="st2" width="4.7" height="4.7"/>
	<rect x="27.3" y="41.4" class="st2" width="4.7" height="4.7"/>
	<rect x="32" y="41.4" class="st2" width="4.7" height="4.7"/>
	<rect x="36.7" y="41.4" class="st2" width="4.7" height="4.7"/>
	<rect x="41.4" y="41.4" class="st2" width="4.7" height="4.7"/>
	<rect x="46" y="41.4" class="st2" width="4.7" height="4.7"/>
	<rect x="50.7" y="41.4" class="st2" width="4.7" height="4.7"/>
	<rect x="55.4" y="41.4" class="st2" width="4.7" height="4.7"/>
	<rect x="3.9" y="46" class="st2" width="4.7" height="4.7"/>
	<rect x="8.6" y="46" class="st2" width="4.7" height="4.7"/>
	<rect x="13.3" y="46" class="st2" width="4.7" height="4.7"/>
	<rect x="18" y="46" class="st2" width="4.7" height="4.7"/>
	<rect x="22.6" y="46" class="st2" width="4.7" height="4.7"/>
	<rect x="27.3" y="46" class="st2" width="4.7" height="4.7"/>
	<rect x="32" y="46" class="st2" width="4.7" height="4.7"/>
	<rect x="36.7" y="46" class="st2" width="4.7" height="4.7"/>
	<rect x="41.4" y="46" class="st2" width="4.7" height="4.7"/>
	<rect x="46" y="46" class="st2" width="4.7" height="4.7"/>
	<rect x="50.7" y="46" class="st2" width="4.7" height="4.7"/>
	<rect x="55.4" y="46" class="st2" width="4.7" height="4.7"/>
	<polygon class="st2" points="3.9,50.7 8.6,50.7 8.6,54.4 4.9,54.4 	"/>
	<rect x="8.6" y="50.7" class="st2" width="4.7" height="3.7"/>
	<rect x="13.3" y="50.7" class="st2" width="4.7" height="3.7"/>
	<rect x="18" y="50.7" class="st2" width="4.7" height="3.7"/>
	<rect x="22.6" y="50.7" class="st2" width="4.7" height="3.7"/>
	<rect x="27.3" y="50.7" class="st2" width="4.7" height="3.7"/>
	<rect x="32" y="50.7" class="st2" width="4.7" height="3.7"/>
	<rect x="36.7" y="50.7" class="st2" width="4.7" height="3.7"/>
	<rect x="41.4" y="50.7" class="st2" width="4.7" height="3.7"/>
	<rect x="46" y="50.7" class="st2" width="4.7" height="3.7"/>
	<rect x="50.7" y="50.7" class="st2" width="4.7" height="3.7"/>
	<polygon class="st2" points="55.4,50.7 60.1,50.7 59.1,54.4 55.4,54.4 	"/>
</g>
<g class="st3">
	<circle class="st4" cx="8.6" cy="13.3" r="0.2"/>
	<circle class="st4" cx="13.3" cy="13.3" r="0.2"/>
	<circle class="st4" cx="18" cy="13.3" r="0.2"/>
	<circle class="st4" cx="22.6" cy="13.3" r="0.2"/>
	<circle class="st4" cx="27.3" cy="13.3" r="0.2"/>
	<circle class="st4" cx="32" cy="13.3" r="0.2"/>
	<circle class="st4" cx="36.7" cy="13.3" r="0.2"/>
	<circle class="st4" cx="41.4" cy="13.3" r="0.2"/>
	<circle class="st4" cx="46" cy="13.3" r="0.2"/>
	<circle class="st4" cx="50.7" cy="13.3" r="0.2"/>
	<circle class="st4" cx="55.4" cy="13.3" r="0.2"/>
	<circle class="st4" cx="8.6" cy="18" r="0.2"/>
	<circle class="st4" cx="13.3" cy="18" r="0.2"/>
	<circle class="st4" cx="18" cy="18" r="0.2"/>
	<circle class="st4" cx="22.6" cy="18" r="0.2"/>
	<circle class="st4" cx="27.3" cy="18" r="0.2"/>
	<circle class="st4" cx="32" cy="18" r="0.2"/>
	<circle class="st4" cx="36.7" cy="18" r="0.2"/>
	<circle class="st4" cx="41.4" cy="18" r="0.2"/>
	<circle class="st4" cx="46" cy="18" r="0.2"/>
	<circle class="st4" cx="50.7" cy="18" r="0.2"/>
	<circle class="st4" cx="55.4" cy="18" r="0.2"/>
	<circle class="st4" cx="8.6" cy="22.6" r="0.2"/>
	<circle class="st4" cx="13.3" cy="22.6" r="0.2"/>
	<circle class="st4" cx="18" cy="22.6" r="0.2"/>
	<circle class="st4" cx="22.6" cy="22.6" r="0.2"/>
	<circle class="st4" cx="27.3" cy="22.6" r="0.2"/>
	<circle class="st4" cx="32" cy="22.6" r="0.2"/>
	<circle class="st4" cx="36.7" cy="22.6" r="0.2"/>
	<circle class="st4" cx="41.4" cy="22.6" r="0.2"/>
	<circle class="st4" cx="46" cy="22.6" r="0.2"/>
	<circle class="st4" cx="50.7" cy="22.6" r="0.2"/>
	<circle class="st4" cx="55.4" cy="22.6" r="0.2"/>
	<circle class="st4" cx="8.6" cy="27.3" r="0.2"/>
	<circle class="st4" cx="13.3" cy="27.3" r="0.2"/>
	<circle class="st4" cx="18" cy="27.3" r="0.2"/>
	<circle class="st4" cx="22.6" cy="27.3" r="0.2"/>
	<circle class="st4" cx="27.3" cy="27.3" r="0.2"/>
	<circle class="st4" cx="32" cy="27.3" r="0.2"/>
	<circle class="st4" cx="36.7" cy="27.3" r="0.2"/>
	<circle class="st4" cx="41.4" cy="27.3" r="0.2"/>
	<circle class="st4" cx="46" cy="27.3" r="0.2"/>
	<circle class="st4" cx="50.7" cy="27.3" r="0.2"/>
	<circle class="st4" cx="55.4" cy="27.3" r="0.2"/>
	<circle class="st4" cx="8.6" cy="32" r="0.2"/>
	<circle class="st4" cx="13.3" cy="32" r="0.2"/>
	<circle class="st4" cx="18" cy="32" r="0.2"/>
	<circle class="st4" cx="22.6" cy="32" r="0.2"/>
	<circle class="st4" cx="27.3" cy="32" r="0.2"/>
	<circle class="st4" cx="32" cy="32" r="0.2"/>
	<circle class="st4" cx="36.7" cy="32" r="0.2"/>
	<circle class="st4" cx="41.4" cy="32" r="0.2"/>
	<circle class="st4" cx="46" cy="32" r="0.2"/>
	<circle class="st4" cx="50.7" cy="32" r="0.2"/>
	<circle class="st4" cx="55.4" cy="32" r="0.2"/>
	<circle class="st4" cx="8.6" cy="36.7" r="0.2"/>
	<circle class="st4" cx="13.3" cy="36.7" r="0.2"/>
	<circle class="st4" cx="18" cy="36.7" r="0.2"/>
	<circle class="st4" cx="22.6" cy="36.7" r="0.2"/>
	<circle class="st4" cx="27.3" cy="36.7" r="0.2"/>
	<circle class="st4" cx="32" cy="36.7" r="0.2"/>
	<circle class="st4" cx="36.7" cy="36.7" r="0.2"/>
	<circle class="st4" cx="41.4" cy="36.7" r="0.2"/>
	<circle class="st4" cx="46" cy="36.7" r="0.2"/>
	<circle class="st4" cx="50.7" cy="36.7" r="0.2"/>
	<circle class="st4" cx="55.4" cy="36.7" r="0.2"/>
	<circle class="st4" cx="8.6" cy="41.4" r="0.2"/>
	<circle class="st4" cx="13.3" cy="41.4" r="0.2"/>
	<circle class="st4" cx="18" cy="41.4" r="0.2"/>
	<circle class="st4" cx="22.6" cy="41.4" r="0.2"/>
	<circle class="st4" cx="27.3" cy="41.4" r="0.2"/>
	<circle class="st4" cx="32" cy="41.4" r="0.2"/>
	<circle class="st4" cx="36.7" cy="41.4" r="0.2"/>
	<circle class="st4" cx="41.4" cy="41.4" r="0.2"/>
	<circle class="st4" cx="46" cy="41.4" r="0.2"/>
	<circle class="st4" cx="50.7" cy="41.4" r="0.2"/>
	<circle class="st4" cx="55.4" cy="41.4" r="0.2"/>
	<circle class="st4" cx="8.6" cy="46" r="0.2"/>
	<circle class="st4" cx="13.3" cy="46" r="0.2"/>
	<circle class="st4" cx="18" cy="46" r="0.2"/>
	<circle class="st4" cx="22.6" cy="46" r="0.2"/>
	<circle class="st4" cx="27.3" cy="46" r="0.2"/>
	<circle class="st4" cx="32" cy="46" r="0.2"/>
	<circle class="st4" cx="36.7" cy="46" r="0.2"/>
	<circle class="st4" cx="41.4" cy="46" r="0.2"/>
	<circle class="st4" cx="46" cy="46" r="0.2"/>
	<circle class="st4" cx="50.7" cy="46" r="0.2"/>
	<circle class="st4" cx="55.4" cy="46" r="0.2"/>
	<circle class="st4" cx="8.6" cy="50.7" r="0.2"/>
	<circle class="st4" cx="13.3" cy="50.7" r="0.2"/>
	<circle class="st4" cx="18" cy="50.7" r="0.2"/>
	<circle class="st4" cx="22.6" cy="50.7" r="0.2"/>
	<circle class="st4" cx="27.3" cy="50.7" r="0.2"/>
	<circle class="st4" cx="32" cy="50.7" r="0.2"/>
	<circle class="st4" cx="36.7" cy="50.7" r="0.2"/>
	<circle class="st4" cx="41.4" cy="50.7" r="0.2"/>
	<circle class="st4" cx="46" cy="50.7" r="0.2"/>
	<circle class="st4" cx="50.7" cy="50.7" r="0.2"/>
	<circle class="st4" cx="55.4" cy="50.7" r="0.2"/>
</g>
<linearGradient id="SVGID_1_" gradientUnits="userSpaceOnUse" x1="31.5678" y1="32.7094" x2="32.2774" y2="60.1933">
	<stop  offset="0" style="stop-color:#B1FFB1"/>
	<stop  offset="0.1156" style="stop-color:#ACF7AC"/>
	<stop  offset="0.2904" style="stop-color:#9FE39F"/>
	<stop  offset="0.5028" style="stop-color:#89C088"/>
	<stop  offset="0.7447" style="stop-color:#6B916A"/>
	<stop  offset="1" style="stop-color:#465744"/>
</linearGradient>
<polygon class="st5" points="60.2,32 46.2,32.1 41.5,27.4 32.1,41.4 22.8,22.7 18.1,32 15.7,32 3.8,32 3.4,50.5 4.6,53.2 6.3,54.4 
	57.7,54.2 59.3,53.4 60.4,51.5 "/>
<g>
	<g>
		
			<image style="overflow:visible;" width="56.4" height="20.3" xlink:href="8E3713D2.png"  transform="matrix(1 0 0 1 3.7097 21.811)"/>
	</g>
</g>
<linearGradient id="Border_1_" gradientUnits="userSpaceOnUse" x1="32" y1="11.075" x2="32" y2="57.4216" gradientTransform="matrix(1 0 0 -1 0 66)">
	<stop  offset="0" style="stop-color:#6E6E6E"/>
	<stop  offset="2.772886e-02" style="stop-color:#747474"/>
	<stop  offset="0.2365" style="stop-color:#9B9B9B"/>
	<stop  offset="0.4421" style="stop-color:#BBBBBB"/>
	<stop  offset="0.641" style="stop-color:#D1D1D1"/>
	<stop  offset="0.8304" style="stop-color:#DEDEDE"/>
	<stop  offset="1" style="stop-color:#E3E3E3"/>
</linearGradient>
<path id="Border" class="st6" d="M57.6,10.7c1,0,1.8,0.8,1.8,1.8v39.1c0,1-0.8,1.8-1.8,1.8H6.4c-1,0-1.8-0.8-1.8-1.8V12.5
	c0-1,0.8-1.8,1.8-1.8H57.6 M57.6,8.7H6.4c-2.1,0-3.8,1.7-3.8,3.8v39.1c0,2.1,1.7,3.8,3.8,3.8h51.2c2.1,0,3.8-1.7,3.8-3.8V12.5
	C61.4,10.4,59.7,8.7,57.6,8.7L57.6,8.7z"/>
</svg>
